<?xml version="1.0" standalone="no"?>
<!DOCTYPE svg PUBLIC "-//W3C//DTD SVG 1.1//EN" "http://www.w3.org/Graphics/SVG/1.1/DTD/svg11.dtd" >
<svg xmlns="http://www.w3.org/2000/svg" xmlns:xlink="http://www.w3.org/1999/xlink" version="1.1">
<metadata>
Created by FontForge 20170731 at Mon Jun 14 18:11:03 2021
 By Aleksey,,,
Copyright (c) 1995-2018 Monotype GmbH. All rights reserved
</metadata>
<defs>
<font id="DINPro" horiz-adv-x="1085" >
  <font-face 
    font-family="DIN Pro"
    font-weight="400"
    font-stretch="normal"
    units-per-em="2048"
    panose-1="2 0 5 3 4 0 0 2 0 3"
    ascent="1565"
    descent="-483"
    x-height="1008"
    cap-height="1458"
    bbox="-365 -561 2292 2302"
    underline-thickness="104"
    underline-position="-388"
    unicode-range="U+000D-FEFF"
  />
<missing-glyph horiz-adv-x="1150" 
d="M967 1458v-1458h-783v1458h783zM862 1354h-573v-1250h573v1250z" />
    <glyph glyph-name=".notdef" horiz-adv-x="1150" 
d="M967 1458v-1458h-783v1458h783zM862 1354h-573v-1250h573v1250z" />
    <glyph glyph-name=".null" horiz-adv-x="0" 
 />
    <glyph glyph-name=".null" horiz-adv-x="0" 
 />
    <glyph glyph-name="nonmarkingreturn" horiz-adv-x="682" 
 />
    <glyph glyph-name="CR" unicode="&#xd;" horiz-adv-x="509" 
 />
    <glyph glyph-name="space" unicode=" " horiz-adv-x="509" 
 />
    <glyph glyph-name="exclam" unicode="!" horiz-adv-x="647" 
d="M440 1458l-22 -1048h-127l-21 1048h170zM442 172v-172h-176v172h176z" />
    <glyph glyph-name="quotedbl" unicode="&#x22;" horiz-adv-x="866" 
d="M686 1458v-348h-162v348h162zM342 1458v-348h-162v348h162z" />
    <glyph glyph-name="numbersign" unicode="#" horiz-adv-x="1386" 
d="M1122 1460l-69 -440h178v-135h-199l-45 -289h182v-131h-202l-74 -465h-152l76 465h-330l-71 -465h-152l74 465h-182v131h204l48 289h-189v135h207l70 440h153l-71 -440h325l70 440h149zM883 885h-326l-47 -289h326z" />
    <glyph glyph-name="dollar" unicode="$" horiz-adv-x="1222" 
d="M662 1651v-183q116 -6 205 -43.5t175 -113.5l-100 -101q-126 113 -287 123v-530q152 -25 216 -48t112 -65q125 -106 125 -289q0 -177 -121 -286t-325 -123v-225h-123v221q-144 6 -249.5 51t-201.5 141l107 107q80 -80 163 -116.5t189 -41.5v543q-197 19 -307 114
q-113 101 -113 273q0 174 110.5 284t301.5 125v183h123zM655 655v-526q139 9 218 79.5t79 188.5q0 121 -71 183q-12 11 -26 20t-25 15t-28 11.5t-26.5 8.5t-30 6.5t-28 5t-31.5 4.5t-31 4zM547 817v516q-126 -10 -196 -81.5t-70 -186.5q0 -112 65 -168q75 -62 201 -80z" />
    <glyph glyph-name="percent" unicode="%" horiz-adv-x="1708" 
d="M451 0l684 1458h122l-684 -1458h-122zM408 705q-119 0 -197 75t-78 201v213q0 126 78 201t197 75q120 0 198 -75t78 -201v-213q0 -126 -78 -201t-198 -75zM408 811q76 0 117.5 47.5t41.5 136.5v187q0 87 -42 134.5t-117 47.5q-74 0 -116 -47.5t-42 -134.5v-187
q0 -88 42 -136t116 -48zM1298 -12q-120 0 -198 75t-78 201v213q0 126 78 201.5t198 75.5t198.5 -75.5t78.5 -201.5v-213q0 -126 -78.5 -201t-198.5 -75zM1298 94q75 0 116.5 47.5t41.5 134.5v187q0 89 -41.5 136.5t-116.5 47.5q-74 0 -115.5 -48t-41.5 -136v-187
q0 -87 41.5 -134.5t115.5 -47.5z" />
    <glyph glyph-name="ampersand" unicode="&#x26;" horiz-adv-x="1443" 
d="M639 1470q137 0 231.5 -88.5t94.5 -218.5q0 -144 -170 -260l-109 -74l373 -448q45 68 63 140t19 194h147q-3 -288 -135 -447l223 -268h-194l-131 160q-185 -172 -430 -172q-211 0 -336 116t-125 308q0 53 11.5 100t35.5 87.5t49.5 72t66.5 65.5t72 56.5t80 54.5
q-39 46 -57 70t-47 69t-41.5 88t-12.5 90q0 131 91.5 218t230.5 87zM963 266l-402 484q-40 -27 -54.5 -37.5t-49 -37t-48.5 -41.5t-37.5 -43t-33.5 -52t-18.5 -56t-8.5 -67q0 -130 85.5 -210.5t221.5 -80.5q91 0 174 31t171 110zM639 1333q-75 0 -122.5 -46.5t-47.5 -119.5
q0 -49 28 -97t105 -142l78 53q64 44 98.5 84.5t34.5 97.5q0 73 -50 121.5t-124 48.5z" />
    <glyph glyph-name="quotesingle" unicode="'" horiz-adv-x="522" 
d="M342 1458v-348h-162v348h162z" />
    <glyph glyph-name="parenleft" unicode="(" horiz-adv-x="606" 
d="M375 1651l104 -105q-46 -42 -70 -70.5t-42 -62.5q-29 -52 -29 -162v-1044q0 -105 29 -162q25 -50 112 -133l-104 -105q-63 63 -93.5 98.5t-54.5 78.5q-43 84 -43 211v1069q0 132 43 211q17 30 40.5 60t43.5 51t64 65z" />
    <glyph glyph-name="parenright" unicode=")" horiz-adv-x="606" 
d="M127 1546l104 105q45 -45 65 -66t43 -50.5t40 -59.5q43 -84 43 -211v-1069q0 -132 -43 -211q-24 -43 -55 -79t-93 -98l-104 105q86 79 113 133q28 50 28 162v1044q0 107 -28 162q-12 23 -30.5 46.5t-33 38.5t-49.5 48z" />
    <glyph glyph-name="asterisk" unicode="*" horiz-adv-x="1007" 
d="M563 1458l-8 -280l240 145l57 -98l-246 -135l246 -134l-57 -100l-240 145l8 -280h-119l9 280l-238 -145l-59 100l245 134l-245 135l59 98l238 -145l-9 280h119z" />
    <glyph glyph-name="plus" unicode="+" horiz-adv-x="1069" 
d="M604 981v-356h359v-138h-359v-360h-137v360h-361v138h361v356h137z" />
    <glyph glyph-name="comma" unicode="," horiz-adv-x="540" 
d="M360 180v-313l-180 -162v475h180z" />
    <glyph glyph-name="hyphen" unicode="-" horiz-adv-x="872" 
d="M717 623v-138h-561v138h561z" />
    <glyph glyph-name="period" unicode="." horiz-adv-x="552" 
d="M373 193v-193h-193v193h193z" />
    <glyph glyph-name="slash" unicode="/" horiz-adv-x="729" 
d="M729 1610l-584 -1762h-145l584 1762h145z" />
    <glyph glyph-name="zero" unicode="0" horiz-adv-x="1069" 
d="M535 -12q-174 0 -287 111t-113 290v680q0 179 113 290t287 111q173 0 286 -111t113 -290v-680q0 -179 -113 -290t-286 -111zM535 119q118 0 184.5 77t66.5 201v664q0 124 -66.5 201t-184.5 77q-119 0 -185.5 -77.5t-66.5 -200.5v-664q0 -123 66.5 -200.5t185.5 -77.5z
" />
    <glyph glyph-name="one" unicode="1" horiz-adv-x="1069" 
d="M528 0v1294l-272 -239v168l272 235h148v-1458h-148z" />
    <glyph glyph-name="two" unicode="2" horiz-adv-x="1069" 
d="M139 0v131l576 731q82 107 82 215q0 120 -67.5 191t-186.5 71q-110 0 -182 -65.5t-72 -198.5h-148q0 174 110.5 284.5t291.5 110.5t291 -107t110 -286q0 -84 -27 -149.5t-90 -145.5l-510 -651h627v-131h-805z" />
    <glyph glyph-name="three" unicode="3" horiz-adv-x="1069" 
d="M514 -12q-182 0 -300.5 98t-127.5 287h147q8 -128 87.5 -191t193.5 -63q122 0 201.5 76t79.5 206q0 136 -70.5 208.5t-216.5 72.5h-31v129h31q131 0 195.5 68t64.5 194t-72 196t-182 70q-114 0 -182.5 -64.5t-79.5 -178.5h-148q12 173 126 273.5t284 100.5
q179 0 290 -108.5t111 -286.5q0 -233 -196 -321q223 -83 223 -355q0 -194 -121 -302.5t-307 -108.5z" />
    <glyph glyph-name="four" unicode="4" horiz-adv-x="1069" 
d="M664 0v231h-582v134l526 1093h158l-526 -1093h424v413h145v-413h178v-134h-178v-231h-145z" />
    <glyph glyph-name="five" unicode="5" horiz-adv-x="1069" 
d="M539 -12q-189 0 -293 104q-91 95 -103 254h148q28 -227 248 -227q113 0 180 67q51 51 65.5 123t14.5 174q0 59 -5 105.5t-21 95t-42 80.5t-71.5 52t-106.5 20q-93 0 -156.5 -39t-85.5 -105h-133v766h737v-131h-604v-463q91 101 262 101q159 0 252 -93q72 -72 96.5 -168.5
t24.5 -220.5q0 -130 -23 -223t-94 -164q-108 -108 -290 -108z" />
    <glyph glyph-name="six" unicode="6" horiz-adv-x="1069" 
d="M537 -12q-186 0 -296 115.5t-110 304.5q0 75 20 148.5t70 174.5l359 727h153l-334 -665q66 41 162 41q168 0 273.5 -116.5t105.5 -297.5q0 -189 -110 -310.5t-293 -121.5zM535 119q117 0 187.5 80t70.5 215q0 127 -69 211t-189 84q-117 0 -186.5 -80t-69.5 -215
t69.5 -215t186.5 -80z" />
    <glyph glyph-name="seven" unicode="7" horiz-adv-x="1069" 
d="M303 0l506 1327h-508v-229h-145v360h809v-131l-506 -1327h-156z" />
    <glyph glyph-name="eight" unicode="8" horiz-adv-x="1069" 
d="M535 -12q-184 0 -307.5 115.5t-123.5 297.5q0 120 60 209t160 146q-191 110 -191 323q0 170 114 280.5t288 110.5t287.5 -110.5t113.5 -280.5q0 -215 -188 -323q99 -57 158 -145.5t59 -209.5q0 -182 -123 -297.5t-307 -115.5zM535 119q120 0 201 81.5t81 202.5t-81 203
t-201 82t-201.5 -82t-81.5 -203t81.5 -202.5t201.5 -81.5zM535 817q112 0 182.5 72t70.5 188q0 115 -70.5 188.5t-182.5 73.5t-183 -74t-71 -188q0 -115 70.5 -187.5t183.5 -72.5z" />
    <glyph glyph-name="nine" unicode="9" horiz-adv-x="1069" 
d="M336 0l334 666q-64 -41 -162 -41q-168 0 -273.5 116t-105.5 297q0 189 110 310.5t293 121.5q186 0 296 -115t110 -304q0 -75 -20 -149.5t-70 -174.5l-359 -727h-153zM535 750q117 0 186.5 79.5t69.5 214.5t-69.5 215t-186.5 80t-188 -80t-71 -215q0 -126 69.5 -210
t189.5 -84z" />
    <glyph glyph-name="colon" unicode=":" horiz-adv-x="608" 
d="M428 809v-193h-192v193h192zM428 193v-193h-192v193h192z" />
    <glyph glyph-name="semicolon" unicode=";" horiz-adv-x="608" 
d="M420 180v-313l-180 -162v475h180zM428 809v-193h-192v193h192z" />
    <glyph glyph-name="less" unicode="&#x3c;" horiz-adv-x="1069" 
d="M872 965v-158l-512 -254l512 -254v-158l-677 344v136z" />
    <glyph glyph-name="equal" unicode="=" horiz-adv-x="1069" 
d="M963 795v-138h-857v138h857zM963 446v-135h-857v135h857z" />
    <glyph glyph-name="greater" unicode="&#x3e;" horiz-adv-x="1069" 
d="M197 965l677 -344v-136l-677 -344v158l512 254l-512 254v158z" />
    <glyph glyph-name="question" unicode="?" horiz-adv-x="1017" 
d="M541 1470q163 0 273 -105t110 -267q0 -66 -23.5 -123.5t-69.5 -124.5l-167 -242q-37 -55 -37 -119v-79h-148v82q0 58 15 101t49 91l166 240q34 50 50.5 88t16.5 86q0 103 -66.5 172t-168.5 69q-106 0 -172 -71.5t-66 -171.5h-147q0 158 110 266t275 108zM641 172v-172
h-176v172h176z" />
    <glyph glyph-name="at" unicode="@" horiz-adv-x="1515" 
d="M586 1460h305q203 0 317 -114q117 -117 117 -330v-1016h-145v119q-60 -74 -126 -102.5t-155 -28.5q-155 0 -244 86q-120 120 -120 413q0 138 26 242t94 172q86 86 242 86q90 0 156.5 -27.5t124.5 -101.5v162q0 82 -17.5 135t-62.5 98q-79 76 -228 76h-266
q-77 0 -129.5 -16.5t-93.5 -59.5q-45 -47 -62.5 -98t-17.5 -135v-690q0 -96 23 -145t94 -103l-103 -100q-93 69 -126 140.5t-33 205.5v688q0 211 116 330q111 114 314 114zM928 862q-62 0 -107.5 -21t-72.5 -54.5t-43 -84t-21.5 -101t-5.5 -114.5q0 -63 5.5 -113
t21.5 -100.5t43 -83.5t72.5 -54t107.5 -21q61 0 106.5 20.5t72.5 54t43.5 83.5t22 100.5t5.5 113.5q0 81 -10 142t-35.5 117t-77 86t-127.5 30z" />
    <glyph glyph-name="A" unicode="A" horiz-adv-x="1251" 
d="M692 1458l535 -1458h-166l-117 330h-637l-117 -330h-165l536 1458h131zM627 1237l-273 -772h543z" />
    <glyph glyph-name="B" unicode="B" horiz-adv-x="1368" 
d="M211 1458h549q193 0 311.5 -104.5t118.5 -284.5q0 -113 -60 -198.5t-155 -120.5q108 -40 172.5 -130t64.5 -217q0 -194 -118 -298.5t-316 -104.5h-567v1458zM764 674h-397v-535h397q135 0 214 73t79 196t-79 194.5t-214 71.5zM748 1319h-381v-506h381q128 0 207 64.5
t79 189.5t-79 188.5t-207 63.5z" />
    <glyph glyph-name="C" unicode="C" horiz-adv-x="1304" 
d="M666 1470q198 0 332.5 -115t172.5 -319h-159q-30 137 -120.5 216t-225.5 79q-150 0 -252 -102q-66 -68 -84.5 -166t-18.5 -334t18.5 -334t84.5 -166q102 -102 252 -102q135 0 225.5 79t120.5 216h159q-38 -203 -173 -318.5t-332 -115.5q-222 0 -365 143
q-41 41 -67.5 84.5t-42.5 87t-23.5 113t-9.5 134t-2 179.5t2 179.5t9.5 134t23.5 113t42.5 87t67.5 84.5q143 143 365 143z" />
    <glyph glyph-name="D" unicode="D" horiz-adv-x="1378" 
d="M211 1458h500q242 0 383 -153q31 -34 54 -73.5t37 -90t22 -91t11.5 -105.5t4 -103.5t0.5 -112.5t-0.5 -112.5t-4 -103t-11.5 -105.5t-22 -91t-37 -89.5t-54 -73.5q-142 -154 -383 -154h-500v1458zM684 1319h-317v-1180h317q190 0 287 107q34 36 54.5 85.5t29 121
t10.5 125.5t2 151t-2 151t-10.5 125.5t-29 121t-54.5 85.5q-97 107 -287 107z" />
    <glyph glyph-name="E" unicode="E" horiz-adv-x="1228" 
d="M1116 1458v-139h-749v-514h639v-139h-639v-527h749v-139h-905v1458h905z" />
    <glyph glyph-name="F" unicode="F" horiz-adv-x="1187" 
d="M1116 1458v-139h-749v-537h639v-139h-639v-643h-156v1458h905z" />
    <glyph glyph-name="G" unicode="G" horiz-adv-x="1331" 
d="M666 1470q202 0 340.5 -121.5t169.5 -314.5h-156q-31 140 -124.5 218.5t-229.5 78.5q-153 0 -252 -102q-66 -68 -84.5 -166t-18.5 -334t18.5 -334t84.5 -166q99 -102 252 -102q81 0 153.5 32t122.5 93q82 103 82 264v113h-358v133h514v-232q0 -128 -27.5 -212.5
t-97.5 -161.5q-152 -168 -389 -168q-222 0 -365 143q-41 41 -67.5 84.5t-42.5 87t-23.5 113t-9.5 134t-2 179.5t2 179.5t9.5 134t23.5 113t42.5 87t67.5 84.5q143 143 365 143z" />
    <glyph glyph-name="H" unicode="H" horiz-adv-x="1425" 
d="M1214 1458v-1458h-155v666h-692v-666h-156v1458h156v-653h692v653h155z" />
    <glyph glyph-name="I" unicode="I" horiz-adv-x="577" 
d="M367 1458v-1458h-156v1458h156z" />
    <glyph glyph-name="J" unicode="J" horiz-adv-x="1026" 
d="M836 1458v-1016q0 -208 -126.5 -331t-328.5 -123q-203 0 -334 131l105 104q48 -48 97 -72t132 -24q143 0 221 87.5t78 248.5v995h156z" />
    <glyph glyph-name="K" unicode="K" horiz-adv-x="1333" 
d="M1237 1458l-459 -563l525 -895h-185l-444 776l-307 -370v-406h-156v1458h156v-840l682 840h188z" />
    <glyph glyph-name="L" unicode="L" horiz-adv-x="1173" 
d="M367 1458v-1319h745v-139h-901v1458h156z" />
    <glyph glyph-name="M" unicode="M" horiz-adv-x="1671" 
d="M1460 1458v-1458h-155v1108l-400 -879h-133l-405 879v-1108h-156v1458h156l475 -1034l463 1034h155z" />
    <glyph glyph-name="N" unicode="N" horiz-adv-x="1499" 
d="M1288 1458v-1458h-147l-774 1169v-1169h-156v1458h147l775 -1165v1165h155z" />
    <glyph glyph-name="O" unicode="O" horiz-adv-x="1331" 
d="M666 1470q219 0 362 -143q51 -51 80.5 -101.5t44.5 -126.5t19 -152.5t4 -217.5t-4 -217.5t-19 -152.5t-44.5 -126.5t-80.5 -101.5q-143 -143 -362 -143q-222 0 -365 143q-41 41 -67.5 84.5t-42.5 87t-23.5 113t-9.5 134t-2 179.5t2 179.5t9.5 134t23.5 113t42.5 87
t67.5 84.5q143 143 365 143zM666 1331q-150 0 -252 -102q-66 -68 -84.5 -166t-18.5 -334t18.5 -334t84.5 -166q102 -102 252 -102t252 102q66 67 84 165t18 335t-18 335t-84 165q-102 102 -252 102z" />
    <glyph glyph-name="P" unicode="P" horiz-adv-x="1290" 
d="M211 1458h543q200 0 325 -117.5t125 -310.5q0 -194 -125.5 -312t-324.5 -118h-387v-600h-156v1458zM741 1319h-374v-580h374q141 0 224.5 75t83.5 216t-83.5 215t-224.5 74z" />
    <glyph glyph-name="Q" unicode="Q" horiz-adv-x="1331" 
d="M666 1470q219 0 362 -143q51 -51 80.5 -101.5t44.5 -126.5t19 -152.5t4 -217.5q0 -238 -18 -350t-83 -197l160 -159l-94 -95l-160 160q-133 -100 -315 -100q-222 0 -365 143q-41 41 -67.5 84.5t-42.5 87t-23.5 113t-9.5 134t-2 179.5t2 179.5t9.5 134t23.5 113t42.5 87
t67.5 84.5q143 143 365 143zM666 1331q-150 0 -252 -102q-66 -68 -84.5 -166t-18.5 -334t18.5 -334t84.5 -166q102 -102 252 -102q117 0 211 66l-189 188l94 94l183 -182q35 59 45 151.5t10 284.5q0 237 -18 335t-84 165q-102 102 -252 102z" />
    <glyph glyph-name="R" unicode="R" horiz-adv-x="1343" 
d="M211 1458h559q193 0 312.5 -109t119.5 -296q0 -156 -86 -258.5t-231 -132.5l346 -662h-182l-332 647h-350v-647h-156v1458zM756 1319h-389v-535h389q132 0 211.5 68.5t79.5 198.5t-79.5 199t-211.5 69z" />
    <glyph glyph-name="S" unicode="S" horiz-adv-x="1204" 
d="M592 1470q138 0 238.5 -37.5t195.5 -121.5l-100 -101q-68 65 -148.5 96t-191.5 31q-146 0 -228 -73.5t-82 -198.5q0 -113 66 -170q65 -56 190 -76l170 -26q101 -15 158 -38t107 -67q123 -107 123 -287q0 -191 -137 -302t-367 -111q-163 0 -280 45t-218 147l105 105
q88 -88 179 -123t218 -35q162 0 254 71t92 199q0 120 -72 183q-33 30 -72 44.5t-118 26.5l-170 25q-169 27 -266 110q-113 101 -113 275q0 187 125.5 298t341.5 111z" />
    <glyph glyph-name="T" unicode="T" horiz-adv-x="1122" 
d="M1061 1458v-139h-422v-1319h-156v1319h-422v139h1000z" />
    <glyph glyph-name="U" unicode="U" horiz-adv-x="1398" 
d="M1208 1458v-977q0 -217 -144 -355t-366 -138t-365 138t-143 355v977h156v-964q0 -166 96 -266.5t256 -100.5t257.5 100.5t97.5 266.5v964h155z" />
    <glyph glyph-name="V" unicode="V" horiz-adv-x="1118" 
d="M1102 1458l-479 -1458h-127l-480 1458h164l379 -1179l379 1179h164z" />
    <glyph glyph-name="W" unicode="W" horiz-adv-x="1748" 
d="M1716 1458l-373 -1458h-145l-324 1167l-323 -1167h-145l-373 1458h166l284 -1175l322 1175h139l322 -1175l284 1175h166z" />
    <glyph glyph-name="X" unicode="X" horiz-adv-x="1128" 
d="M1067 1458l-420 -710l451 -748h-180l-355 612l-356 -612h-176l446 748l-418 710h181l323 -575l324 575h180z" />
    <glyph glyph-name="Y" unicode="Y" horiz-adv-x="1052" 
d="M1036 1458l-430 -856v-602h-155v602l-435 856h168l344 -698l340 698h168z" />
    <glyph glyph-name="Z" unicode="Z" horiz-adv-x="1138" 
d="M1022 1458v-131l-729 -1188h729v-139h-905v131l729 1188h-701v139h877z" />
    <glyph glyph-name="bracketleft" unicode="[" horiz-adv-x="628" 
d="M547 1610v-131h-215v-1499h215v-132h-363v1762h363z" />
    <glyph glyph-name="backslash" unicode="\" horiz-adv-x="727" 
d="M145 1604l582 -1756h-145l-582 1756h145z" />
    <glyph glyph-name="bracketright" unicode="]" horiz-adv-x="628" 
d="M444 1610v-1762h-362v132h215v1499h-215v131h362z" />
    <glyph glyph-name="asciicircum" unicode="^" horiz-adv-x="1069" 
d="M602 1470l334 -624h-152l-249 467l-252 -467h-152l336 624h135z" />
    <glyph glyph-name="underscore" unicode="_" horiz-adv-x="1099" 
d="M1100 -233v-105h-1100v105h1100z" />
    <glyph glyph-name="grave" unicode="`" 
d="M426 1530l186 -313h-141l-215 313h170z" />
    <glyph glyph-name="a" unicode="a" horiz-adv-x="1077" 
d="M500 1020q202 0 302.5 -85.5t100.5 -250.5v-684h-147v96q-60 -60 -125 -84t-166 -24q-105 0 -169 20.5t-116 71.5q-76 73 -76 205q0 135 92 212.5t259 77.5h301v97q0 112 -61 166.5t-197 54.5q-94 0 -151 -26.5t-103 -90.5l-101 92q64 85 146 118.5t211 33.5zM756 465
h-281q-227 0 -227 -178q0 -88 56 -130t177 -42q74 0 126.5 13t97.5 54q51 48 51 174v109z" />
    <glyph glyph-name="b" unicode="b" horiz-adv-x="1116" 
d="M332 1458v-567q59 74 126.5 101.5t157.5 27.5q76 0 140.5 -23.5t105.5 -64.5q123 -123 123 -428q0 -303 -123 -428q-41 -41 -105.5 -64.5t-140.5 -23.5q-91 0 -157.5 28.5t-126.5 104.5v-121h-148v1458h148zM586 889q-64 0 -111 -22t-74 -56t-43 -87t-21 -103.5
t-5 -116.5t5 -116.5t21 -103.5t43 -87t74 -56t111 -22t110.5 22t73 56t42.5 87t21 103.5t5 116.5t-5 116.5t-21 103.5t-42.5 87t-73 56t-110.5 22z" />
    <glyph glyph-name="c" unicode="c" horiz-adv-x="1005" 
d="M578 1020q106 0 180 -33t151 -117l-100 -94q-57 63 -108 88t-123 25q-154 0 -234 -115q-35 -49 -50 -111.5t-15 -158.5t15 -159t50 -112q80 -114 234 -114q72 0 123 25.5t108 88.5l100 -96q-77 -84 -151 -116.5t-180 -32.5q-199 0 -323 133.5t-124 382.5t124 382.5
t323 133.5z" />
    <glyph glyph-name="d" unicode="d" horiz-adv-x="1116" 
d="M932 1458v-1458h-148v119q-60 -74 -126.5 -102.5t-157.5 -28.5q-76 0 -140.5 23.5t-105.5 64.5q-123 123 -123 428q0 303 123 428q41 41 105.5 64.5t140.5 23.5q90 0 157 -28.5t127 -102.5v569h148zM530 889q-63 0 -110 -22t-73.5 -56t-42 -87t-20.5 -103.5t-5 -116.5
t5 -116.5t20.5 -103.5t42 -87t73.5 -56t110 -22q64 0 111 22t74 56t43 87t21 103.5t5 116.5t-5 116.5t-21 103.5t-43 87t-74 56t-111 22z" />
    <glyph glyph-name="e" unicode="e" 
d="M543 1020q195 0 304 -130.5t109 -359.5v-65h-680q0 -167 76 -257.5t221 -90.5q86 0 144.5 26t120.5 88l100 -88q-81 -81 -164 -118t-205 -37q-208 0 -324 128t-116 388q0 244 110.5 380t303.5 136zM543 895q-80 0 -141.5 -40.5t-94.5 -111.5q-17 -37 -22.5 -68t-8.5 -100
h535q-4 50 -6 70.5t-8.5 46t-18.5 51.5q-33 71 -94 111.5t-141 40.5z" />
    <glyph glyph-name="f" unicode="f" horiz-adv-x="643" 
d="M580 1460v-127h-80q-135 0 -135 -147v-178h215v-113h-215v-895h-148v895h-129v113h129v182q0 118 66 194t190 76h107z" />
    <glyph glyph-name="g" unicode="g" horiz-adv-x="1112" 
d="M500 1020q91 0 157.5 -28t124.5 -103v119h146v-1039q0 -191 -113 -311.5t-307 -120.5q-111 0 -185.5 30.5t-156.5 104.5l96 95q62 -55 111 -78t131 -23q139 0 207.5 85.5t68.5 223.5v158q-58 -74 -125.5 -102.5t-156.5 -28.5q-74 0 -138.5 24.5t-105.5 65.5
q-123 123 -123 420t123 420q40 40 105.5 64t140.5 24zM530 889q-63 0 -110 -22t-73.5 -56t-42 -86t-20.5 -101t-5 -112t5 -112t20.5 -101t42 -86t73.5 -56t110 -22t109.5 22t73 56t42 86t20.5 101t5 112t-5 112t-20.5 101t-42 86t-73 56t-109.5 22z" />
    <glyph glyph-name="h" unicode="h" horiz-adv-x="1150" 
d="M332 1458v-563q110 125 282 125q166 0 260 -94q103 -100 103 -283v-643h-148v621q0 131 -64.5 199.5t-180.5 68.5q-117 0 -184.5 -69.5t-67.5 -198.5v-621h-148v1458h148z" />
    <glyph glyph-name="i" unicode="i" horiz-adv-x="518" 
d="M332 1008v-1008h-148v1008h148zM342 1460v-166h-166v166h166z" />
    <glyph glyph-name="j" unicode="j" horiz-adv-x="518" 
d="M332 1008v-1188q0 -122 -64.5 -196.5t-191.5 -74.5h-107v129h80q74 0 104.5 36t30.5 112v1182h148zM342 1460v-166h-166v166h166z" />
    <glyph glyph-name="k" unicode="k" horiz-adv-x="1097" 
d="M332 1458v-975l454 525h185l-342 -385l401 -623h-182l-320 516l-196 -225v-291h-148v1458h148z" />
    <glyph glyph-name="l" unicode="l" horiz-adv-x="608" 
d="M328 1458v-1184q0 -76 30.5 -111.5t104.5 -35.5h80v-127h-107q-127 0 -191.5 73.5t-64.5 194.5v1190h148z" />
    <glyph glyph-name="m" unicode="m" horiz-adv-x="1800" 
d="M1257 1020q164 0 261 -94q108 -105 108 -281v-645h-147v621q0 131 -66 199.5t-182 68.5q-113 0 -182.5 -67t-69.5 -185v-637h-148v621q0 131 -65.5 199.5t-181.5 68.5q-117 0 -184.5 -69.5t-67.5 -198.5v-621h-148v1008h148v-111q108 123 284 123q105 0 185 -42.5
t125 -125.5q118 168 331 168z" />
    <glyph glyph-name="n" unicode="n" horiz-adv-x="1153" 
d="M614 1020q166 0 260 -94q105 -102 105 -283v-643h-148v621q0 131 -65.5 199.5t-181.5 68.5q-117 0 -184.5 -69.5t-67.5 -198.5v-621h-148v1008h146v-113q110 125 284 125z" />
    <glyph glyph-name="o" unicode="o" 
d="M543 1020q176 0 288 -115q71 -71 97 -169.5t26 -231.5t-26 -231.5t-97 -170.5q-111 -114 -288 -114q-178 0 -289 114q-71 72 -97 170.5t-26 231.5t26 231.5t97 169.5q112 115 289 115zM543 889q-109 0 -183 -74q-50 -50 -65.5 -126.5t-15.5 -184.5q0 -109 15 -184.5
t66 -126.5q74 -74 183 -74q110 0 184 74q50 51 65 127t15 184q0 109 -15 185t-65 126q-74 74 -184 74z" />
    <glyph glyph-name="p" unicode="p" horiz-adv-x="1116" 
d="M616 1020q76 0 140.5 -23.5t105.5 -64.5q123 -123 123 -428q0 -303 -123 -428q-41 -41 -105.5 -64.5t-140.5 -23.5q-90 0 -157 28.5t-127 102.5v-570h-148v1459h148v-119q60 74 126.5 102.5t157.5 28.5zM586 889q-64 0 -111 -22t-74 -56t-43 -87t-21 -103.5t-5 -116.5
t5 -116.5t21 -103.5t43 -87t74 -56t111 -22t110.5 22t73 56t42.5 87t21 103.5t5 116.5t-5 116.5t-21 103.5t-42.5 87t-73 56t-110.5 22z" />
    <glyph glyph-name="q" unicode="q" horiz-adv-x="1116" 
d="M500 1020q91 0 157.5 -28.5t126.5 -104.5v121h148v-1459h-148v568q-59 -74 -126.5 -101.5t-157.5 -27.5q-76 0 -140.5 23.5t-105.5 64.5q-123 123 -123 428q0 303 123 428q41 41 105.5 64.5t140.5 23.5zM530 889q-63 0 -110 -22t-73.5 -56t-42 -87t-20.5 -103.5
t-5 -116.5t5 -116.5t20.5 -103.5t42 -87t73.5 -56t110 -22q64 0 111 22t74 56t43 87t21 103.5t5 116.5t-5 116.5t-21 103.5t-43 87t-74 56t-111 22z" />
    <glyph glyph-name="r" unicode="r" horiz-adv-x="862" 
d="M614 1020q76 0 133 -21t109 -73l-108 -111q-42 42 -79.5 58t-95.5 16q-108 0 -174.5 -76.5t-66.5 -194.5v-618h-148v1008h148v-123q41 63 117.5 99t164.5 36z" />
    <glyph glyph-name="s" unicode="s" horiz-adv-x="1015" 
d="M504 1020q226 0 362 -109l-96 -96q-105 80 -268 80q-109 0 -167.5 -43.5t-58.5 -122.5q0 -67 43.5 -102.5t137.5 -44.5l157 -15q143 -13 220 -75t77 -197q0 -144 -111 -225.5t-298 -81.5q-133 0 -234 34t-180 111l98 98q110 -116 314 -116q128 0 198 45t70 133
q0 68 -40 104t-128 43l-166 15q-301 24 -301 270q0 136 103 215.5t268 79.5z" />
    <glyph glyph-name="t" unicode="t" horiz-adv-x="679" 
d="M356 1317v-309h215v-113h-215v-621q0 -147 138 -147h77v-127h-104q-124 0 -191 76t-67 194v625h-127v113h127v309h147z" />
    <glyph glyph-name="u" unicode="u" horiz-adv-x="1153" 
d="M969 1008v-1008h-146v113q-110 -125 -284 -125q-166 0 -260 94q-105 102 -105 283v643h148v-621q0 -131 65.5 -199.5t181.5 -68.5q117 0 184.5 69.5t67.5 198.5v621h148z" />
    <glyph glyph-name="v" unicode="v" horiz-adv-x="915" 
d="M391 0l-368 1008h159l277 -809l274 809h160l-371 -1008h-131z" />
    <glyph glyph-name="w" unicode="w" horiz-adv-x="1482" 
d="M344 0l-321 1008h159l234 -809l262 809h129l260 -809l233 809h160l-319 -1008h-137l-263 821l-262 -821h-135z" />
    <glyph glyph-name="x" unicode="x" horiz-adv-x="978" 
d="M897 1008l-328 -494l342 -514h-178l-241 391l-246 -391h-178l342 514l-328 494h178l232 -373l227 373h178z" />
    <glyph glyph-name="y" unicode="y" horiz-adv-x="915" 
d="M893 1008l-465 -1270q-29 -79 -72 -119q-73 -70 -196 -70h-64v132h45q74 0 107 26t59 98l78 215l-362 988h159l277 -809l274 809h160z" />
    <glyph glyph-name="z" unicode="z" horiz-adv-x="940" 
d="M102 0v121l557 756h-526v131h701v-121l-560 -756h560v-131h-732z" />
    <glyph glyph-name="braceleft" unicode="{" horiz-adv-x="735" 
d="M631 1610v-131h-47q-94 0 -121 -27q-17 -17 -23 -46.5t-6 -86.5v-385q0 -82 -32.5 -128.5t-96.5 -76.5q64 -30 96.5 -76.5t32.5 -128.5v-385q0 -57 6 -86.5t23 -46.5q15 -15 41 -20.5t80 -5.5h47v-132h-76q-145 0 -207 62q-34 34 -47.5 79t-13.5 124v391q0 86 -37 123
t-92 37h-54v131h54q56 0 92 36q37 37 37 123v392q0 79 13.5 123.5t47.5 78.5q62 62 207 62h76z" />
    <glyph glyph-name="bar" unicode="|" horiz-adv-x="667" 
d="M408 1610v-1762h-148v1762h148z" />
    <glyph glyph-name="braceright" unicode="}" horiz-adv-x="735" 
d="M104 1610h76q145 0 207 -62q34 -34 48 -78.5t14 -123.5v-392q0 -87 36 -123t93 -36h53v-131h-53q-56 0 -93 -37q-36 -36 -36 -123v-391q0 -79 -14 -124t-48 -79q-62 -62 -207 -62h-76v132h48q54 0 79.5 5.5t40.5 20.5q17 17 23 46.5t6 86.5v385q0 82 32.5 128.5
t96.5 76.5q-64 30 -96.5 76.5t-32.5 128.5v385q0 57 -6 86.5t-23 46.5q-15 15 -41 21t-79 6h-48v131z" />
    <glyph glyph-name="asciitilde" unicode="~" horiz-adv-x="1103" 
d="M365 680q34 0 73 -10t65.5 -20.5t76.5 -33.5q103 -49 159 -49q46 0 80.5 17.5t91.5 74.5l93 -92q-84 -84 -138.5 -111.5t-126.5 -27.5q-34 0 -73 10t-67 21t-77 33q-103 49 -160 49q-46 0 -80.5 -17.5t-91.5 -74.5l-90 92q84 84 138.5 111.5t126.5 27.5z" />
    <glyph glyph-name="uni00A0" unicode="&#xa0;" horiz-adv-x="509" 
 />
    <glyph glyph-name="exclamdown" unicode="&#xa1;" horiz-adv-x="647" 
d="M356 598l23 -1049h-170l20 1049h127zM381 1008v-172h-176v172h176z" />
    <glyph glyph-name="cent" unicode="&#xa2;" horiz-adv-x="1015" 
d="M623 1458v-194q91 -6 158.5 -40.5t138.5 -111.5l-101 -94q-51 57 -97 82t-108 30v-761q62 5 108 30t97 82l101 -94q-70 -76 -138 -110.5t-159 -40.5v-236h-121v240q-172 25 -271.5 158.5t-99.5 351.5t99.5 351.5t271.5 158.5v198h121zM510 373v753q-101 -18 -164 -106
q-67 -94 -67 -270q0 -177 67 -271q63 -88 164 -106z" />
    <glyph glyph-name="sterling" unicode="&#xa3;" horiz-adv-x="1122" 
d="M682 1470q203 0 334 -131l-107 -104q-48 48 -96.5 72t-130.5 24q-145 0 -223 -87.5t-78 -248.5v-209h301v-110h-301v-537h635v-139h-791v676h-129v110h129v230q0 208 127 331t330 123z" />
    <glyph glyph-name="currency" unicode="&#xa4;" horiz-adv-x="1349" 
d="M1096 1067l94 -94l-150 -148q93 -123 93 -270q0 -151 -93 -274l150 -150l-94 -94l-152 149q-120 -86 -268 -86q-150 0 -270 86l-152 -149l-94 94l151 150q-94 124 -94 274q0 144 92 270l-149 148l94 94l149 -147q118 88 273 88q152 0 270 -88zM676 877q-130 0 -222 -94
t-92 -228q0 -136 92 -230t222 -94q129 0 221 94.5t92 229.5q0 134 -92.5 228t-220.5 94z" />
    <glyph glyph-name="yen" unicode="&#xa5;" horiz-adv-x="1052" 
d="M449 0v399h-316v103h316v100l-52 100h-264v103h213l-330 653h168l346 -698l338 698h168l-331 -653h215v-103h-267l-49 -100v-100h316v-103h-316v-399h-155z" />
    <glyph glyph-name="brokenbar" unicode="&#xa6;" horiz-adv-x="667" 
d="M408 1610v-717h-148v717h148zM408 565v-717h-148v717h148z" />
    <glyph glyph-name="section" unicode="&#xa7;" horiz-adv-x="1140" 
d="M571 1470q162 0 264.5 -86.5t108.5 -234.5h-147q-14 190 -226 190q-104 0 -162.5 -52t-58.5 -150q0 -148 172 -197l160 -45q133 -38 207 -137.5t74 -237.5q0 -118 -61 -205t-152 -131q91 -33 144.5 -109.5t53.5 -185.5q0 -157 -108 -254.5t-269 -97.5q-160 0 -269 86
t-118 244h150q9 -94 71 -144.5t166 -50.5q105 0 166.5 56.5t61.5 158.5q0 72 -48 128.5t-133 80.5l-159 45q-134 38 -207.5 136.5t-73.5 238.5q0 118 61.5 205t153.5 131q-93 42 -141.5 109t-48.5 174q0 149 103 242t265 93zM571 780q-109 0 -176 -73t-67 -189
q0 -114 67 -188q68 -74 176 -74q109 0 177 74q65 71 65 188q0 124 -65 189q-73 73 -177 73z" />
    <glyph glyph-name="dieresis" unicode="&#xa8;" 
d="M834 1415v-182h-148v182h148zM399 1415v-182h-147v182h147z" />
    <glyph glyph-name="copyright" unicode="&#xa9;" horiz-adv-x="1794" 
d="M897 -12q-151 0 -288.5 58.5t-236.5 157.5t-157.5 236.5t-58.5 288.5t58.5 288.5t157.5 236.5t236.5 157.5t288.5 58.5t288.5 -58.5t236.5 -157.5t157.5 -236.5t58.5 -288.5t-58.5 -288.5t-157.5 -236.5t-236.5 -157.5t-288.5 -58.5zM907 313q-173 0 -268.5 115.5
t-95.5 300.5t95.5 301.5t268.5 116.5q84 0 144.5 -25.5t124.5 -83.5l-76 -73q-51 44 -93.5 61.5t-99.5 17.5q-130 0 -194 -94q-56 -82 -56 -221t56 -221q63 -92 194 -92q57 0 99.5 17t93.5 61l76 -74q-60 -56 -122.5 -81.5t-146.5 -25.5zM897 98q169 0 312.5 85t227 230.5
t83.5 315.5t-83.5 315.5t-227 230.5t-312.5 85t-312.5 -85t-227 -230.5t-83.5 -315.5t83.5 -315.5t227 -230.5t312.5 -85z" />
    <glyph glyph-name="ordfeminine" unicode="&#xaa;" horiz-adv-x="919" 
d="M748 653h-119v74q-47 -46 -98.5 -65t-129.5 -19q-82 0 -134 17.5t-91 56.5q-61 64 -61 162q0 107 72 170t204 63h236v74q0 88 -46 130t-153 42q-76 0 -120.5 -19.5t-80.5 -70.5l-84 75q54 69 120.5 96t166.5 27q159 0 238.5 -69t79.5 -201v-543zM627 938v82h-219
q-172 0 -172 -137q0 -68 42 -100.5t134 -32.5q61 0 102 9.5t74 41.5q39 36 39 137z" />
    <glyph glyph-name="guillemotleft" unicode="&#xab;" horiz-adv-x="1134" 
d="M975 983v-184l-248 -246l248 -248v-182l-430 430zM512 983v-184l-246 -246l246 -248v-182l-430 430z" />
    <glyph glyph-name="logicalnot" unicode="&#xac;" horiz-adv-x="1069" 
d="M965 621v-418h-138v280h-723v138h861z" />
    <glyph glyph-name="uni00AD" unicode="&#xad;" horiz-adv-x="872" 
d="M717 623v-138h-561v138h561z" />
    <glyph glyph-name="registered" unicode="&#xae;" horiz-adv-x="1794" 
d="M897 -12q-151 0 -288.5 58.5t-236.5 157.5t-157.5 236.5t-58.5 288.5t58.5 288.5t157.5 236.5t236.5 157.5t288.5 58.5t288.5 -58.5t236.5 -157.5t157.5 -236.5t58.5 -288.5t-58.5 -288.5t-157.5 -236.5t-236.5 -157.5t-288.5 -58.5zM897 96q169 0 313 85t228 231t84 317
t-84 317t-228 231t-313 85t-312.5 -85t-227 -231t-83.5 -317t83.5 -317t227 -231t312.5 -85zM655 324v813h277q106 0 181 -71t75 -173q0 -85 -47.5 -141.5t-126.5 -81.5l194 -346h-131l-186 331h-123v-331h-113zM768 752h152q67 0 110 39.5t43 101.5t-43 102.5t-110 40.5
h-152v-284z" />
    <glyph glyph-name="macron" unicode="&#xaf;" 
d="M852 1372v-115h-616v115h616z" />
    <glyph glyph-name="degree" unicode="&#xb0;" horiz-adv-x="948" 
d="M475 1477q139 0 237.5 -98.5t98.5 -237.5t-98.5 -237.5t-237.5 -98.5q-140 0 -239 98.5t-99 237.5t99 237.5t239 98.5zM473 1358q-91 0 -151 -62t-60 -155q0 -92 61 -154.5t152 -62.5t151 62t60 155q0 92 -61 154.5t-152 62.5z" />
    <glyph glyph-name="plusminus" unicode="&#xb1;" horiz-adv-x="1069" 
d="M604 1087v-358h359v-137h-359v-363h-137v363h-361v137h361v358h137zM963 137v-137h-857v137h857z" />
    <glyph glyph-name="twosuperior" unicode="&#xb2;" horiz-adv-x="452" 
d="M55 889v76l226 258q36 38 36 92q0 34 -23 58t-63 24q-82 0 -88 -88h-88q4 76 53 120t123 44q75 0 123.5 -45.5t48.5 -112.5q0 -68 -61 -135l-186 -215h235v-76h-336z" />
    <glyph glyph-name="threesuperior" unicode="&#xb3;" horiz-adv-x="452" 
d="M217 883q-76 0 -127 42.5t-55 121.5h88q3 -36 30 -60t64 -24q42 0 69 26.5t27 71.5t-28 68.5t-70 23.5h-18v68h18q38 0 63 22.5t25 61.5q0 41 -24 63.5t-62 22.5q-35 0 -57.5 -21t-28.5 -57h-88q8 75 53.5 117.5t120.5 42.5q77 0 125.5 -45t48.5 -113q0 -96 -80 -125
q90 -39 90 -139q0 -75 -51 -121.5t-133 -46.5z" />
    <glyph glyph-name="acute" unicode="&#xb4;" 
d="M836 1530l-215 -313h-142l187 313h170z" />
    <glyph glyph-name="mu" unicode="&#xb5;" horiz-adv-x="1163" 
d="M184 -451v1459h148v-621q0 -131 65 -199.5t183 -68.5t184.5 69t66.5 199v621h148v-1008h-145v113q-108 -123 -277 -123q-148 0 -225 86v-527h-148z" />
    <glyph glyph-name="paragraph" unicode="&#xb6;" horiz-adv-x="1234" 
d="M1024 1458v-1909h-147v1770h-240v-1770h-148v1119q-119 0 -212.5 56.5t-142 145.5t-48.5 191q0 170 119.5 283.5t324.5 113.5h494z" />
    <glyph glyph-name="periodcentered" unicode="&#xb7;" horiz-adv-x="552" 
d="M373 649v-192h-193v192h193z" />
    <glyph glyph-name="cedilla" unicode="&#xb8;" 
d="M338 -442l145 305h135l-120 -305h-160z" />
    <glyph glyph-name="onesuperior" unicode="&#xb9;" horiz-adv-x="471" 
d="M225 889v475l-123 -104v102l123 104h88v-577h-88z" />
    <glyph glyph-name="ordmasculine" unicode="&#xba;" horiz-adv-x="929" 
d="M793 1055q0 -106 -21 -184t-78 -136q-90 -90 -229 -90t-229 90q-57 58 -78 136t-21 184q0 104 21 182.5t78 136.5q92 92 229 92t229 -92q57 -58 78 -136.5t21 -182.5zM672 1055q0 179 -64 243q-58 58 -143 58t-143 -58q-38 -38 -50 -98.5t-12 -144.5t12 -144t50 -98
q59 -59 143 -59t143 59q64 64 64 242z" />
    <glyph glyph-name="guillemotright" unicode="&#xbb;" horiz-adv-x="1134" 
d="M623 983l430 -430l-430 -430v184l245 246l-245 248v182zM160 983l430 -430l-430 -430v184l248 246l-248 248v182z" />
    <glyph glyph-name="onequarter" unicode="&#xbc;" horiz-adv-x="1732" 
d="M463 0l682 1458h123l-682 -1458h-123zM1460 0v135h-346v103l309 636h117l-307 -636h227v219h113v-219h100v-103h-100v-135h-113zM324 584v743l-170 -149v135l170 145h116v-874h-116z" />
    <glyph glyph-name="onehalf" unicode="&#xbd;" horiz-adv-x="1740" 
d="M463 0l682 1458h123l-682 -1458h-123zM1139 0v106l358 414q29 32 40 60.5t11 68.5q0 56 -39.5 91.5t-107.5 35.5q-66 0 -106 -32.5t-40 -104.5h-114q0 110 71 177t189 67t190 -64t72 -170q0 -61 -18 -100t-68 -96l-305 -347h393v-106h-526zM324 584v743l-170 -149v135
l170 145h116v-874h-116z" />
    <glyph glyph-name="threequarters" unicode="&#xbe;" horiz-adv-x="1744" 
d="M475 0l682 1458h123l-682 -1458h-123zM1473 0v135h-347v103l310 636h116l-307 -636h228v219h112v-219h101v-103h-101v-135h-112zM334 575q-118 0 -198.5 62t-84.5 182h119q3 -71 49 -105t115 -34t115.5 41t46.5 108q0 71 -43 110.5t-125 39.5h-21v104h21q73 0 113 37
t40 101q0 66 -43 103.5t-106 37.5q-65 0 -105.5 -35t-46.5 -96h-117q7 108 82.5 171.5t186.5 63.5q119 0 192.5 -66.5t73.5 -176.5q0 -135 -123 -187q137 -53 137 -207q0 -120 -78.5 -187t-199.5 -67z" />
    <glyph glyph-name="questiondown" unicode="&#xbf;" horiz-adv-x="1017" 
d="M539 598v-82q0 -58 -15 -101t-49 -91l-166 -240q-34 -50 -50.5 -88t-16.5 -86q0 -103 66.5 -172.5t168.5 -69.5q105 0 171.5 72t66.5 172h147q0 -158 -110 -266.5t-275 -108.5q-163 0 -273 105t-110 268q0 67 23.5 124t68.5 124l168 241q37 55 37 119v80h148zM553 1008
v-172h-176v172h176z" />
    <glyph glyph-name="Agrave" unicode="&#xc0;" horiz-adv-x="1251" 
d="M692 1458l535 -1458h-166l-117 330h-637l-117 -330h-165l536 1458h131zM627 1237l-273 -772h543zM524 1913l187 -316h-142l-215 316h170z" />
    <glyph glyph-name="Aacute" unicode="&#xc1;" horiz-adv-x="1251" 
d="M692 1458l535 -1458h-166l-117 330h-637l-117 -330h-165l536 1458h131zM627 1237l-273 -772h543zM901 1913l-215 -316h-141l186 316h170z" />
    <glyph glyph-name="Acircumflex" unicode="&#xc2;" horiz-adv-x="1251" 
d="M692 1458l535 -1458h-166l-117 330h-637l-117 -330h-165l536 1458h131zM627 1237l-273 -772h543zM696 1911l258 -314h-141l-186 213l-185 -213h-141l256 314h139z" />
    <glyph glyph-name="Atilde" unicode="&#xc3;" horiz-adv-x="1251" 
d="M692 1458l535 -1458h-166l-117 330h-637l-117 -330h-165l536 1458h131zM627 1237l-273 -772h543zM496 1829q42 0 73 -11t72 -38q65 -41 115 -41q28 0 54 12t67 53l75 -75q-64 -63 -107.5 -83t-86.5 -20q-67 0 -146 47q-73 43 -114 43q-30 0 -55 -12t-66 -53l-76 73
q63 63 107.5 84t87.5 21z" />
    <glyph glyph-name="Adieresis" unicode="&#xc4;" horiz-adv-x="1251" 
d="M692 1458l535 -1458h-166l-117 330h-637l-117 -330h-165l536 1458h131zM627 1237l-273 -772h543zM918 1798v-182h-148v182h148zM483 1798v-182h-147v182h147z" />
    <glyph glyph-name="Aring" unicode="&#xc5;" horiz-adv-x="1251" 
d="M692 1458l535 -1458h-166l-117 330h-637l-117 -330h-165l536 1458h131zM627 1237l-273 -772h543zM627 2021q100 0 170.5 -70t70.5 -171q0 -100 -71 -172t-170 -72q-100 0 -171 72t-71 172t71 170.5t171 70.5zM627 1919q-59 0 -100.5 -40.5t-41.5 -98.5t41.5 -100
t100.5 -42q58 0 99.5 41.5t41.5 100.5q0 58 -41 98.5t-100 40.5z" />
    <glyph glyph-name="AE" unicode="&#xc6;" horiz-adv-x="1898" 
d="M1786 1458v-139h-750v-514h639v-139h-639v-527h750v-139h-905v346h-506l-180 -346h-170l770 1458h991zM881 1319l-439 -838h439v838z" />
    <glyph glyph-name="Ccedilla" unicode="&#xc7;" horiz-adv-x="1304" 
d="M666 1470q198 0 332.5 -115t172.5 -319h-159q-30 137 -120.5 216t-225.5 79q-150 0 -252 -102q-66 -68 -84.5 -166t-18.5 -334t18.5 -334t84.5 -166q102 -102 252 -102q135 0 225.5 79t120.5 216h159q-38 -203 -173 -318.5t-332 -115.5q-222 0 -365 143
q-41 41 -67.5 84.5t-42.5 87t-23.5 113t-9.5 134t-2 179.5t2 179.5t9.5 134t23.5 113t42.5 87t67.5 84.5q143 143 365 143zM469 -442l143 301h129l-118 -301h-154z" />
    <glyph glyph-name="Egrave" unicode="&#xc8;" horiz-adv-x="1228" 
d="M1116 1458v-139h-749v-514h639v-139h-639v-527h749v-139h-905v1458h905zM535 1913l186 -316h-141l-215 316h170z" />
    <glyph glyph-name="Eacute" unicode="&#xc9;" horiz-adv-x="1228" 
d="M1116 1458v-139h-749v-514h639v-139h-639v-527h749v-139h-905v1458h905zM911 1913l-215 -316h-141l186 316h170z" />
    <glyph glyph-name="Ecircumflex" unicode="&#xca;" horiz-adv-x="1228" 
d="M1116 1458v-139h-749v-514h639v-139h-639v-527h749v-139h-905v1458h905zM707 1911l258 -314h-142l-186 213l-184 -213h-142l256 314h140z" />
    <glyph glyph-name="Edieresis" unicode="&#xcb;" horiz-adv-x="1228" 
d="M1116 1458v-139h-749v-514h639v-139h-639v-527h749v-139h-905v1458h905zM928 1798v-182h-148v182h148zM494 1798v-182h-148v182h148z" />
    <glyph glyph-name="Igrave" unicode="&#xcc;" horiz-adv-x="577" 
d="M367 1458v-1458h-156v1458h156zM184 1913l187 -316h-142l-215 316h170z" />
    <glyph glyph-name="Iacute" unicode="&#xcd;" horiz-adv-x="577" 
d="M367 1458v-1458h-156v1458h156zM561 1913l-215 -316h-141l186 316h170z" />
    <glyph glyph-name="Icircumflex" unicode="&#xce;" horiz-adv-x="577" 
d="M367 1458v-1458h-156v1458h156zM356 1911l258 -314h-141l-186 213l-185 -213h-141l256 314h139z" />
    <glyph glyph-name="Idieresis" unicode="&#xcf;" horiz-adv-x="577" 
d="M367 1458v-1458h-156v1458h156zM578 1798v-182h-148v182h148zM143 1798v-182h-147v182h147z" />
    <glyph glyph-name="Eth" unicode="&#xd0;" horiz-adv-x="1406" 
d="M240 1458h499q242 0 383 -153q31 -34 54 -73.5t37 -90t22 -91t11.5 -105.5t4 -103.5t0.5 -112.5q0 -105 -3 -168.5t-14.5 -147t-39 -147t-72.5 -112.5q-142 -154 -383 -154h-499v676h-160v121h160v661zM713 1319h-318v-522h332v-121h-332v-537h318q189 0 286 107
q63 67 80 179t17 304q0 95 -2 150.5t-11 126.5t-29.5 120.5t-54.5 85.5q-97 107 -286 107z" />
    <glyph glyph-name="Ntilde" unicode="&#xd1;" horiz-adv-x="1499" 
d="M1288 1458v-1458h-147l-774 1169v-1169h-156v1458h147l775 -1165v1165h155zM618 1829q42 0 73.5 -11t72.5 -38q65 -41 115 -41q28 0 53 11.5t67 53.5l76 -75q-64 -63 -107.5 -83t-86.5 -20q-67 0 -146 47q-73 43 -114 43q-30 0 -55 -12t-66 -53l-76 73q63 63 107 84
t87 21z" />
    <glyph glyph-name="Ograve" unicode="&#xd2;" horiz-adv-x="1331" 
d="M666 1470q219 0 362 -143q51 -51 80.5 -101.5t44.5 -126.5t19 -152.5t4 -217.5t-4 -217.5t-19 -152.5t-44.5 -126.5t-80.5 -101.5q-143 -143 -362 -143q-222 0 -365 143q-41 41 -67.5 84.5t-42.5 87t-23.5 113t-9.5 134t-2 179.5t2 179.5t9.5 134t23.5 113t42.5 87
t67.5 84.5q143 143 365 143zM666 1331q-150 0 -252 -102q-66 -68 -84.5 -166t-18.5 -334t18.5 -334t84.5 -166q102 -102 252 -102t252 102q66 67 84 165t18 335t-18 335t-84 165q-102 102 -252 102zM563 1913l187 -316h-142l-215 316h170z" />
    <glyph glyph-name="Oacute" unicode="&#xd3;" horiz-adv-x="1331" 
d="M666 1470q219 0 362 -143q51 -51 80.5 -101.5t44.5 -126.5t19 -152.5t4 -217.5t-4 -217.5t-19 -152.5t-44.5 -126.5t-80.5 -101.5q-143 -143 -362 -143q-222 0 -365 143q-41 41 -67.5 84.5t-42.5 87t-23.5 113t-9.5 134t-2 179.5t2 179.5t9.5 134t23.5 113t42.5 87
t67.5 84.5q143 143 365 143zM666 1331q-150 0 -252 -102q-66 -68 -84.5 -166t-18.5 -334t18.5 -334t84.5 -166q102 -102 252 -102t252 102q66 67 84 165t18 335t-18 335t-84 165q-102 102 -252 102zM940 1913l-215 -316h-141l186 316h170z" />
    <glyph glyph-name="Ocircumflex" unicode="&#xd4;" horiz-adv-x="1331" 
d="M666 1470q219 0 362 -143q51 -51 80.5 -101.5t44.5 -126.5t19 -152.5t4 -217.5t-4 -217.5t-19 -152.5t-44.5 -126.5t-80.5 -101.5q-143 -143 -362 -143q-222 0 -365 143q-41 41 -67.5 84.5t-42.5 87t-23.5 113t-9.5 134t-2 179.5t2 179.5t9.5 134t23.5 113t42.5 87
t67.5 84.5q143 143 365 143zM666 1331q-150 0 -252 -102q-66 -68 -84.5 -166t-18.5 -334t18.5 -334t84.5 -166q102 -102 252 -102t252 102q66 67 84 165t18 335t-18 335t-84 165q-102 102 -252 102zM735 1911l258 -314h-141l-186 213l-185 -213h-141l256 314h139z" />
    <glyph glyph-name="Otilde" unicode="&#xd5;" horiz-adv-x="1331" 
d="M666 1470q219 0 362 -143q51 -51 80.5 -101.5t44.5 -126.5t19 -152.5t4 -217.5t-4 -217.5t-19 -152.5t-44.5 -126.5t-80.5 -101.5q-143 -143 -362 -143q-222 0 -365 143q-41 41 -67.5 84.5t-42.5 87t-23.5 113t-9.5 134t-2 179.5t2 179.5t9.5 134t23.5 113t42.5 87
t67.5 84.5q143 143 365 143zM666 1331q-150 0 -252 -102q-66 -68 -84.5 -166t-18.5 -334t18.5 -334t84.5 -166q102 -102 252 -102t252 102q66 67 84 165t18 335t-18 335t-84 165q-102 102 -252 102zM535 1829q42 0 73 -11t72 -38q65 -41 115 -41q28 0 53 11.5t67 53.5
l76 -75q-64 -63 -107.5 -83t-86.5 -20q-67 0 -146 47q-73 43 -114 43q-30 0 -55 -12t-66 -53l-76 73q63 63 107.5 84t87.5 21z" />
    <glyph glyph-name="Odieresis" unicode="&#xd6;" horiz-adv-x="1331" 
d="M666 1470q219 0 362 -143q51 -51 80.5 -101.5t44.5 -126.5t19 -152.5t4 -217.5t-4 -217.5t-19 -152.5t-44.5 -126.5t-80.5 -101.5q-143 -143 -362 -143q-222 0 -365 143q-41 41 -67.5 84.5t-42.5 87t-23.5 113t-9.5 134t-2 179.5t2 179.5t9.5 134t23.5 113t42.5 87
t67.5 84.5q143 143 365 143zM666 1331q-150 0 -252 -102q-66 -68 -84.5 -166t-18.5 -334t18.5 -334t84.5 -166q102 -102 252 -102t252 102q66 67 84 165t18 335t-18 335t-84 165q-102 102 -252 102zM956 1798v-182h-147v182h147zM522 1798v-182h-147v182h147z" />
    <glyph glyph-name="multiply" unicode="&#xd7;" horiz-adv-x="1069" 
d="M844 954l92 -92l-311 -309l311 -309l-92 -92l-309 309l-310 -309l-92 92l309 309l-309 309l92 92l310 -311z" />
    <glyph glyph-name="Oslash" unicode="&#xd8;" horiz-adv-x="1331" 
d="M1176 729q0 -116 -2 -179t-9.5 -133t-23.5 -113t-43 -86.5t-70 -86.5q-143 -143 -362 -143q-144 0 -258 63l-68 -141h-133l102 213q-44 43 -72 87t-44.5 87.5t-24.5 114t-10 135.5t-2 182q0 115 2 179.5t9.5 134t23.5 113t42.5 87t67.5 84.5q143 143 365 143
q152 0 256 -63l69 141h133l-102 -215q37 -36 62.5 -70t43 -77.5t27 -81.5t14.5 -103t6 -120t1 -152zM311 729q0 -208 13.5 -305t58.5 -158l479 1008q-82 57 -196 57q-153 0 -252 -102q-66 -68 -84.5 -166t-18.5 -334zM1020 729q0 208 -13.5 304t-58.5 159l-479 -1008
q85 -57 197 -57q150 0 252 102q66 67 84 165t18 335z" />
    <glyph glyph-name="Ugrave" unicode="&#xd9;" horiz-adv-x="1398" 
d="M1208 1458v-977q0 -217 -144 -355t-366 -138t-365 138t-143 355v977h156v-964q0 -166 96 -266.5t256 -100.5t257.5 100.5t97.5 266.5v964h155zM598 1913l186 -316h-141l-215 316h170z" />
    <glyph glyph-name="Uacute" unicode="&#xda;" horiz-adv-x="1398" 
d="M1208 1458v-977q0 -217 -144 -355t-366 -138t-365 138t-143 355v977h156v-964q0 -166 96 -266.5t256 -100.5t257.5 100.5t97.5 266.5v964h155zM975 1913l-215 -316h-142l187 316h170z" />
    <glyph glyph-name="Ucircumflex" unicode="&#xdb;" horiz-adv-x="1398" 
d="M1208 1458v-977q0 -217 -144 -355t-366 -138t-365 138t-143 355v977h156v-964q0 -166 96 -266.5t256 -100.5t257.5 100.5t97.5 266.5v964h155zM770 1911l258 -314h-141l-187 213l-184 -213h-141l256 314h139z" />
    <glyph glyph-name="Udieresis" unicode="&#xdc;" horiz-adv-x="1398" 
d="M1208 1458v-977q0 -217 -144 -355t-366 -138t-365 138t-143 355v977h156v-964q0 -166 96 -266.5t256 -100.5t257.5 100.5t97.5 266.5v964h155zM991 1798v-182h-147v182h147zM557 1798v-182h-147v182h147z" />
    <glyph glyph-name="Yacute" unicode="&#xdd;" horiz-adv-x="1052" 
d="M1036 1458l-430 -856v-602h-155v602l-435 856h168l344 -698l340 698h168zM801 1913l-215 -316h-142l187 316h170z" />
    <glyph glyph-name="Thorn" unicode="&#xde;" horiz-adv-x="1314" 
d="M367 1458v-295h387q201 0 325.5 -116.5t124.5 -311.5t-124.5 -311.5t-325.5 -116.5h-387v-307h-156v1458h156zM739 1024h-372v-578h372q141 0 225.5 74t84.5 215t-84.5 215t-225.5 74z" />
    <glyph glyph-name="germandbls" unicode="&#xdf;" horiz-adv-x="1138" 
d="M596 1470q84 0 154 -20.5t124 -61t84.5 -106.5t30.5 -152q0 -161 -129 -243q73 -36 102 -92t29 -154v-352q0 -136 -82 -215q-42 -39 -91 -56.5t-120 -17.5h-108v127h80q42 0 67 9.5t54 31.5q53 42 53 137v344q0 87 -43 127q-43 43 -123 43h-88v125h74q81 0 130.5 49.5
t49.5 134.5q0 96 -64 154q-65 59 -194 59q-254 0 -254 -276v-1065h-148v1071q0 191 110 295t302 104z" />
    <glyph glyph-name="agrave" unicode="&#xe0;" horiz-adv-x="1077" 
d="M500 1020q202 0 302.5 -85.5t100.5 -250.5v-684h-147v96q-60 -60 -125 -84t-166 -24q-105 0 -169 20.5t-116 71.5q-76 73 -76 205q0 135 92 212.5t259 77.5h301v97q0 112 -61 166.5t-197 54.5q-94 0 -151 -26.5t-103 -90.5l-101 92q64 85 146 118.5t211 33.5zM756 465
h-281q-227 0 -227 -178q0 -88 56 -130t177 -42q74 0 126.5 13t97.5 54q51 48 51 174v109zM399 1530l187 -313h-142l-215 313h170z" />
    <glyph glyph-name="aacute" unicode="&#xe1;" horiz-adv-x="1077" 
d="M500 1020q202 0 302.5 -85.5t100.5 -250.5v-684h-147v96q-60 -60 -125 -84t-166 -24q-105 0 -169 20.5t-116 71.5q-76 73 -76 205q0 135 92 212.5t259 77.5h301v97q0 112 -61 166.5t-197 54.5q-94 0 -151 -26.5t-103 -90.5l-101 92q64 85 146 118.5t211 33.5zM756 465
h-281q-227 0 -227 -178q0 -88 56 -130t177 -42q74 0 126.5 13t97.5 54q51 48 51 174v109zM809 1530l-215 -313h-141l186 313h170z" />
    <glyph glyph-name="acircumflex" unicode="&#xe2;" horiz-adv-x="1077" 
d="M500 1020q202 0 302.5 -85.5t100.5 -250.5v-684h-147v96q-60 -60 -125 -84t-166 -24q-105 0 -169 20.5t-116 71.5q-76 73 -76 205q0 135 92 212.5t259 77.5h301v97q0 112 -61 166.5t-197 54.5q-94 0 -151 -26.5t-103 -90.5l-101 92q64 85 146 118.5t211 33.5zM756 465
h-281q-227 0 -227 -178q0 -88 56 -130t177 -42q74 0 126.5 13t97.5 54q51 48 51 174v109zM586 1530l258 -313h-142l-186 213l-184 -213h-142l256 313h140z" />
    <glyph glyph-name="atilde" unicode="&#xe3;" horiz-adv-x="1077" 
d="M500 1020q202 0 302.5 -85.5t100.5 -250.5v-684h-147v96q-60 -60 -125 -84t-166 -24q-105 0 -169 20.5t-116 71.5q-76 73 -76 205q0 135 92 212.5t259 77.5h301v97q0 112 -61 166.5t-197 54.5q-94 0 -151 -26.5t-103 -90.5l-101 92q64 85 146 118.5t211 33.5zM756 465
h-281q-227 0 -227 -178q0 -88 56 -130t177 -42q74 0 126.5 13t97.5 54q51 48 51 174v109zM385 1446q42 0 73 -11t72 -38q71 -41 115 -41q29 0 54 11.5t67 53.5l76 -73q-62 -64 -107 -84.5t-88 -20.5q-39 0 -70.5 12t-74.5 37q-70 41 -115 41q-30 0 -54.5 -11.5t-66.5 -53.5
l-76 73q64 64 107.5 84.5t87.5 20.5z" />
    <glyph glyph-name="adieresis" unicode="&#xe4;" horiz-adv-x="1077" 
d="M500 1020q202 0 302.5 -85.5t100.5 -250.5v-684h-147v96q-60 -60 -125 -84t-166 -24q-105 0 -169 20.5t-116 71.5q-76 73 -76 205q0 135 92 212.5t259 77.5h301v97q0 112 -61 166.5t-197 54.5q-94 0 -151 -26.5t-103 -90.5l-101 92q64 85 146 118.5t211 33.5zM756 465
h-281q-227 0 -227 -178q0 -88 56 -130t177 -42q74 0 126.5 13t97.5 54q51 48 51 174v109zM807 1415v-182h-148v182h148zM373 1415v-182h-148v182h148z" />
    <glyph glyph-name="aring" unicode="&#xe5;" horiz-adv-x="1077" 
d="M500 1020q202 0 302.5 -85.5t100.5 -250.5v-684h-147v96q-60 -60 -125 -84t-166 -24q-105 0 -169 20.5t-116 71.5q-76 73 -76 205q0 135 92 212.5t259 77.5h301v97q0 112 -61 166.5t-197 54.5q-94 0 -151 -26.5t-103 -90.5l-101 92q64 85 146 118.5t211 33.5zM756 465
h-281q-227 0 -227 -178q0 -88 56 -130t177 -42q74 0 126.5 13t97.5 54q51 48 51 174v109zM516 1649q100 0 171 -70.5t71 -171.5q0 -100 -71 -172t-171 -72t-171 72t-71 172t71 171t171 71zM516 1546q-59 0 -100 -40.5t-41 -98.5q0 -59 41.5 -100t99.5 -41t99.5 41t41.5 100
q0 58 -41 98.5t-100 40.5z" />
    <glyph glyph-name="ae" unicode="&#xe6;" horiz-adv-x="1714" 
d="M1169 1020q194 0 304 -131t110 -359v-65h-682q0 -167 76.5 -257.5t222.5 -90.5q86 0 144 26t118 88l103 -88q-81 -81 -165 -118t-208 -37q-247 0 -358 174q-66 -96 -151 -135t-218 -39q-102 0 -167 20.5t-118 71.5q-76 73 -76 205q0 135 92 212.5t259 77.5h301v97
q0 112 -61 166.5t-197 54.5q-94 0 -151 -26.5t-103 -90.5l-101 92q64 85 146 118.5t211 33.5q269 0 354 -158q106 158 315 158zM756 465h-281q-227 0 -227 -178q0 -88 56 -130t177 -42q74 0 126.5 13t97.5 54q51 48 51 174v109zM1169 895q-82 0 -144.5 -40.5t-90.5 -111.5
q-17 -41 -22.5 -72t-10.5 -96h535q-3 65 -8.5 97.5t-22.5 70.5q-29 70 -92.5 111t-143.5 41z" />
    <glyph glyph-name="ccedilla" unicode="&#xe7;" horiz-adv-x="1005" 
d="M578 1020q106 0 180 -33t151 -117l-100 -94q-57 63 -108 88t-123 25q-154 0 -234 -115q-35 -49 -50 -111.5t-15 -158.5t15 -159t50 -112q80 -114 234 -114q72 0 123 25.5t108 88.5l100 -96q-77 -84 -151 -116.5t-180 -32.5q-199 0 -323 133.5t-124 382.5t124 382.5
t323 133.5zM338 -442l145 305h135l-120 -305h-160z" />
    <glyph glyph-name="egrave" unicode="&#xe8;" 
d="M543 1020q195 0 304 -130.5t109 -359.5v-65h-680q0 -167 76 -257.5t221 -90.5q86 0 144.5 26t120.5 88l100 -88q-81 -81 -164 -118t-205 -37q-208 0 -324 128t-116 388q0 244 110.5 380t303.5 136zM543 895q-80 0 -141.5 -40.5t-94.5 -111.5q-17 -37 -22.5 -68t-8.5 -100
h535q-4 50 -6 70.5t-8.5 46t-18.5 51.5q-33 71 -94 111.5t-141 40.5zM426 1530l186 -313h-141l-215 313h170z" />
    <glyph glyph-name="eacute" unicode="&#xe9;" 
d="M543 1020q195 0 304 -130.5t109 -359.5v-65h-680q0 -167 76 -257.5t221 -90.5q86 0 144.5 26t120.5 88l100 -88q-81 -81 -164 -118t-205 -37q-208 0 -324 128t-116 388q0 244 110.5 380t303.5 136zM543 895q-80 0 -141.5 -40.5t-94.5 -111.5q-17 -37 -22.5 -68t-8.5 -100
h535q-4 50 -6 70.5t-8.5 46t-18.5 51.5q-33 71 -94 111.5t-141 40.5zM836 1530l-215 -313h-142l187 313h170z" />
    <glyph glyph-name="ecircumflex" unicode="&#xea;" 
d="M543 1020q195 0 304 -130.5t109 -359.5v-65h-680q0 -167 76 -257.5t221 -90.5q86 0 144.5 26t120.5 88l100 -88q-81 -81 -164 -118t-205 -37q-208 0 -324 128t-116 388q0 244 110.5 380t303.5 136zM543 895q-80 0 -141.5 -40.5t-94.5 -111.5q-17 -37 -22.5 -68t-8.5 -100
h535q-4 50 -6 70.5t-8.5 46t-18.5 51.5q-33 71 -94 111.5t-141 40.5zM612 1530l258 -313h-141l-186 213l-185 -213h-141l256 313h139z" />
    <glyph glyph-name="edieresis" unicode="&#xeb;" 
d="M543 1020q195 0 304 -130.5t109 -359.5v-65h-680q0 -167 76 -257.5t221 -90.5q86 0 144.5 26t120.5 88l100 -88q-81 -81 -164 -118t-205 -37q-208 0 -324 128t-116 388q0 244 110.5 380t303.5 136zM543 895q-80 0 -141.5 -40.5t-94.5 -111.5q-17 -37 -22.5 -68t-8.5 -100
h535q-4 50 -6 70.5t-8.5 46t-18.5 51.5q-33 71 -94 111.5t-141 40.5zM834 1415v-182h-148v182h148zM399 1415v-182h-147v182h147z" />
    <glyph glyph-name="igrave" unicode="&#xec;" horiz-adv-x="518" 
d="M141 1530l187 -313h-142l-215 313h170zM332 1008v-1008h-148v1008h148z" />
    <glyph glyph-name="iacute" unicode="&#xed;" horiz-adv-x="518" 
d="M332 1008v-1008h-148v1008h148zM551 1530l-215 -313h-141l186 313h170z" />
    <glyph glyph-name="icircumflex" unicode="&#xee;" horiz-adv-x="518" 
d="M328 1530l258 -313h-142l-186 213l-184 -213h-142l256 313h140zM332 1008v-1008h-148v1008h148z" />
    <glyph glyph-name="idieresis" unicode="&#xef;" horiz-adv-x="518" 
d="M549 1415v-182h-148v182h148zM115 1415v-182h-148v182h148zM332 1008v-1008h-148v1008h148z" />
    <glyph glyph-name="eth" unicode="&#xf0;" horiz-adv-x="1083" 
d="M539 1462l96 -168h168v-106h-111l129 -227q79 -138 104 -230.5t25 -230.5q0 -132 -26 -230.5t-97 -169.5q-109 -112 -286 -112q-178 0 -287 112q-70 70 -95.5 168.5t-25.5 231.5t25.5 231t95.5 168q102 107 278 107q76 0 125 -21l-118 203h-238v106h180l-96 168h154z
M541 883q-107 0 -181 -74q-50 -50 -64.5 -125t-14.5 -184q0 -108 14.5 -182.5t64.5 -124.5q74 -74 181 -74q108 0 182 74q50 50 65 125t15 182q0 108 -15 183.5t-65 125.5q-74 74 -182 74z" />
    <glyph glyph-name="ntilde" unicode="&#xf1;" horiz-adv-x="1153" 
d="M614 1020q166 0 260 -94q105 -102 105 -283v-643h-148v621q0 131 -65.5 199.5t-181.5 68.5q-117 0 -184.5 -69.5t-67.5 -198.5v-621h-148v1008h146v-113q110 125 284 125zM451 1446q42 0 73 -11t72 -38q71 -41 115 -41q29 0 53.5 11.5t66.5 53.5l76 -73
q-62 -64 -106.5 -84.5t-87.5 -20.5q-63 0 -146 49q-70 41 -114 41q-30 0 -54.5 -11.5t-66.5 -53.5l-76 73q64 64 107.5 84.5t87.5 20.5z" />
    <glyph glyph-name="ograve" unicode="&#xf2;" 
d="M543 1020q176 0 288 -115q71 -71 97 -169.5t26 -231.5t-26 -231.5t-97 -170.5q-111 -114 -288 -114q-178 0 -289 114q-71 72 -97 170.5t-26 231.5t26 231.5t97 169.5q112 115 289 115zM543 889q-109 0 -183 -74q-50 -50 -65.5 -126.5t-15.5 -184.5q0 -109 15 -184.5
t66 -126.5q74 -74 183 -74q110 0 184 74q50 51 65 127t15 184q0 109 -15 185t-65 126q-74 74 -184 74zM426 1530l186 -313h-141l-215 313h170z" />
    <glyph glyph-name="oacute" unicode="&#xf3;" 
d="M543 1020q176 0 288 -115q71 -71 97 -169.5t26 -231.5t-26 -231.5t-97 -170.5q-111 -114 -288 -114q-178 0 -289 114q-71 72 -97 170.5t-26 231.5t26 231.5t97 169.5q112 115 289 115zM543 889q-109 0 -183 -74q-50 -50 -65.5 -126.5t-15.5 -184.5q0 -109 15 -184.5
t66 -126.5q74 -74 183 -74q110 0 184 74q50 51 65 127t15 184q0 109 -15 185t-65 126q-74 74 -184 74zM836 1530l-215 -313h-142l187 313h170z" />
    <glyph glyph-name="ocircumflex" unicode="&#xf4;" 
d="M543 1020q176 0 288 -115q71 -71 97 -169.5t26 -231.5t-26 -231.5t-97 -170.5q-111 -114 -288 -114q-178 0 -289 114q-71 72 -97 170.5t-26 231.5t26 231.5t97 169.5q112 115 289 115zM543 889q-109 0 -183 -74q-50 -50 -65.5 -126.5t-15.5 -184.5q0 -109 15 -184.5
t66 -126.5q74 -74 183 -74q110 0 184 74q50 51 65 127t15 184q0 109 -15 185t-65 126q-74 74 -184 74zM612 1530l258 -313h-141l-186 213l-185 -213h-141l256 313h139z" />
    <glyph glyph-name="otilde" unicode="&#xf5;" 
d="M543 1020q176 0 288 -115q71 -71 97 -169.5t26 -231.5t-26 -231.5t-97 -170.5q-111 -114 -288 -114q-178 0 -289 114q-71 72 -97 170.5t-26 231.5t26 231.5t97 169.5q112 115 289 115zM543 889q-109 0 -183 -74q-50 -50 -65.5 -126.5t-15.5 -184.5q0 -109 15 -184.5
t66 -126.5q74 -74 183 -74q110 0 184 74q50 51 65 127t15 184q0 109 -15 185t-65 126q-74 74 -184 74zM412 1446q42 0 73 -11t72 -38q71 -41 115 -41q29 0 54 11.5t67 53.5l75 -73q-62 -64 -106.5 -84.5t-87.5 -20.5q-63 0 -146 49q-70 41 -114 41q-30 0 -54.5 -11.5
t-66.5 -53.5l-76 73q64 64 107.5 84.5t87.5 20.5z" />
    <glyph glyph-name="odieresis" unicode="&#xf6;" 
d="M543 1020q176 0 288 -115q71 -71 97 -169.5t26 -231.5t-26 -231.5t-97 -170.5q-111 -114 -288 -114q-178 0 -289 114q-71 72 -97 170.5t-26 231.5t26 231.5t97 169.5q112 115 289 115zM543 889q-109 0 -183 -74q-50 -50 -65.5 -126.5t-15.5 -184.5q0 -109 15 -184.5
t66 -126.5q74 -74 183 -74q110 0 184 74q50 51 65 127t15 184q0 109 -15 185t-65 126q-74 74 -184 74zM834 1415v-182h-148v182h148zM399 1415v-182h-147v182h147z" />
    <glyph glyph-name="divide" unicode="&#xf7;" horiz-adv-x="1069" 
d="M965 621v-138h-861v138h861zM623 276v-176h-177v176h177zM623 1004v-177h-177v177h177z" />
    <glyph glyph-name="oslash" unicode="&#xf8;" 
d="M954 504q0 -133 -26 -231.5t-97 -170.5q-114 -114 -288 -114q-122 0 -215 55l-78 -133h-117l117 196q-68 71 -93.5 169t-25.5 229q0 132 26 230.5t97 170.5q115 115 289 115q122 0 215 -55l80 133h114l-116 -197q68 -71 93 -168.5t25 -228.5zM807 504q0 90 -9.5 156
t-39.5 116l-363 -612q64 -45 148 -45q110 0 184 74q50 50 65 126.5t15 184.5zM690 846q-61 43 -147 43q-109 0 -183 -74q-50 -50 -65.5 -127t-15.5 -184q0 -189 51 -273z" />
    <glyph glyph-name="ugrave" unicode="&#xf9;" horiz-adv-x="1153" 
d="M969 1008v-1008h-146v113q-110 -125 -284 -125q-166 0 -260 94q-105 102 -105 283v643h148v-621q0 -131 65.5 -199.5t181.5 -68.5q117 0 184.5 69.5t67.5 198.5v621h148zM455 1530l186 -313h-141l-215 313h170z" />
    <glyph glyph-name="uacute" unicode="&#xfa;" horiz-adv-x="1153" 
d="M969 1008v-1008h-146v113q-110 -125 -284 -125q-166 0 -260 94q-105 102 -105 283v643h148v-621q0 -131 65.5 -199.5t181.5 -68.5q117 0 184.5 69.5t67.5 198.5v621h148zM864 1530l-215 -313h-141l186 313h170z" />
    <glyph glyph-name="ucircumflex" unicode="&#xfb;" horiz-adv-x="1153" 
d="M969 1008v-1008h-146v113q-110 -125 -284 -125q-166 0 -260 94q-105 102 -105 283v643h148v-621q0 -131 65.5 -199.5t181.5 -68.5q117 0 184.5 69.5t67.5 198.5v621h148zM641 1530l258 -313h-141l-187 213l-184 -213h-141l256 313h139z" />
    <glyph glyph-name="udieresis" unicode="&#xfc;" horiz-adv-x="1153" 
d="M969 1008v-1008h-146v113q-110 -125 -284 -125q-166 0 -260 94q-105 102 -105 283v643h148v-621q0 -131 65.5 -199.5t181.5 -68.5q117 0 184.5 69.5t67.5 198.5v621h148zM862 1415v-182h-147v182h147zM428 1415v-182h-147v182h147z" />
    <glyph glyph-name="yacute" unicode="&#xfd;" horiz-adv-x="915" 
d="M893 1008l-465 -1270q-29 -79 -72 -119q-73 -70 -196 -70h-64v132h45q74 0 107 26t59 98l78 215l-362 988h159l277 -809l274 809h160zM752 1530l-215 -313h-142l187 313h170z" />
    <glyph glyph-name="thorn" unicode="&#xfe;" horiz-adv-x="1116" 
d="M332 1458v-567q59 74 126.5 101.5t157.5 27.5q76 0 140.5 -23.5t105.5 -64.5q123 -123 123 -428q0 -303 -123 -428q-41 -41 -105.5 -64.5t-140.5 -23.5q-90 0 -157 28.5t-127 102.5v-570h-148v1909h148zM586 889q-64 0 -111 -22t-74 -56t-43 -87t-21 -103.5t-5 -116.5
t5 -116.5t21 -103.5t43 -87t74 -56t111 -22t110.5 22t73 56t42.5 87t21 103.5t5 116.5t-5 116.5t-21 103.5t-42.5 87t-73 56t-110.5 22z" />
    <glyph glyph-name="ydieresis" unicode="&#xff;" horiz-adv-x="915" 
d="M893 1008l-465 -1270q-29 -79 -72 -119q-73 -70 -196 -70h-64v132h45q74 0 107 26t59 98l78 215l-362 988h159l277 -809l274 809h160zM750 1415v-182h-148v182h148zM315 1415v-182h-147v182h147z" />
    <glyph glyph-name="Amacron" unicode="&#x100;" horiz-adv-x="1251" 
d="M692 1458l535 -1458h-166l-117 330h-637l-117 -330h-165l536 1458h131zM627 1237l-273 -772h543zM936 1751v-117h-617v117h617z" />
    <glyph glyph-name="amacron" unicode="&#x101;" horiz-adv-x="1077" 
d="M500 1020q202 0 302.5 -85.5t100.5 -250.5v-684h-147v96q-60 -60 -125 -84t-166 -24q-105 0 -169 20.5t-116 71.5q-76 73 -76 205q0 135 92 212.5t259 77.5h301v97q0 112 -61 166.5t-197 54.5q-94 0 -151 -26.5t-103 -90.5l-101 92q64 85 146 118.5t211 33.5zM756 465
h-281q-227 0 -227 -178q0 -88 56 -130t177 -42q74 0 126.5 13t97.5 54q51 48 51 174v109zM825 1372v-115h-616v115h616z" />
    <glyph glyph-name="Abreve" unicode="&#x102;" horiz-adv-x="1251" 
d="M692 1458l535 -1458h-166l-117 330h-637l-117 -330h-165l536 1458h131zM627 1237l-273 -772h543zM850 1901h115q-25 -285 -338 -285t-338 285h114q10 -81 69.5 -125.5t154.5 -44.5q94 0 153.5 44.5t69.5 125.5z" />
    <glyph glyph-name="abreve" unicode="&#x103;" horiz-adv-x="1077" 
d="M500 1020q202 0 302.5 -85.5t100.5 -250.5v-684h-147v96q-60 -60 -125 -84t-166 -24q-105 0 -169 20.5t-116 71.5q-76 73 -76 205q0 135 92 212.5t259 77.5h301v97q0 112 -61 166.5t-197 54.5q-94 0 -151 -26.5t-103 -90.5l-101 92q64 85 146 118.5t211 33.5zM756 465
h-281q-227 0 -227 -178q0 -88 56 -130t177 -42q74 0 126.5 13t97.5 54q51 48 51 174v109zM739 1493h115q-25 -285 -338 -285t-338 285h115q10 -81 69.5 -125.5t153.5 -44.5t153.5 44.5t69.5 125.5z" />
    <glyph glyph-name="Aogonek" unicode="&#x104;" horiz-adv-x="1251" 
d="M692 1458l535 -1458h-166l-117 330h-637l-117 -330h-165l536 1458h131zM627 1237l-273 -772h543zM948 -442l146 301h129l-119 -301h-156z" />
    <glyph glyph-name="aogonek" unicode="&#x105;" horiz-adv-x="1077" 
d="M500 1020q202 0 302.5 -85.5t100.5 -250.5v-684h-147v96q-60 -60 -125 -84t-166 -24q-105 0 -169 20.5t-116 71.5q-76 73 -76 205q0 135 92 212.5t259 77.5h301v97q0 112 -61 166.5t-197 54.5q-94 0 -151 -26.5t-103 -90.5l-101 92q64 85 146 118.5t211 33.5zM756 465
h-281q-227 0 -227 -178q0 -88 56 -130t177 -42q74 0 126.5 13t97.5 54q51 48 51 174v109zM625 -442l145 301h131l-119 -301h-157z" />
    <glyph glyph-name="Cacute" unicode="&#x106;" horiz-adv-x="1304" 
d="M666 1470q198 0 332.5 -115t172.5 -319h-159q-30 137 -120.5 216t-225.5 79q-150 0 -252 -102q-66 -68 -84.5 -166t-18.5 -334t18.5 -334t84.5 -166q102 -102 252 -102q135 0 225.5 79t120.5 216h159q-38 -203 -173 -318.5t-332 -115.5q-222 0 -365 143
q-41 41 -67.5 84.5t-42.5 87t-23.5 113t-9.5 134t-2 179.5t2 179.5t9.5 134t23.5 113t42.5 87t67.5 84.5q143 143 365 143zM940 1913l-215 -316h-141l186 316h170z" />
    <glyph glyph-name="cacute" unicode="&#x107;" horiz-adv-x="1005" 
d="M578 1020q106 0 180 -33t151 -117l-100 -94q-57 63 -108 88t-123 25q-154 0 -234 -115q-35 -49 -50 -111.5t-15 -158.5t15 -159t50 -112q80 -114 234 -114q72 0 123 25.5t108 88.5l100 -96q-77 -84 -151 -116.5t-180 -32.5q-199 0 -323 133.5t-124 382.5t124 382.5
t323 133.5zM836 1530l-215 -313h-142l187 313h170z" />
    <glyph glyph-name="Ccircumflex" unicode="&#x108;" horiz-adv-x="1304" 
d="M666 1470q198 0 332.5 -115t172.5 -319h-159q-30 137 -120.5 216t-225.5 79q-150 0 -252 -102q-66 -68 -84.5 -166t-18.5 -334t18.5 -334t84.5 -166q102 -102 252 -102q135 0 225.5 79t120.5 216h159q-38 -203 -173 -318.5t-332 -115.5q-222 0 -365 143
q-41 41 -67.5 84.5t-42.5 87t-23.5 113t-9.5 134t-2 179.5t2 179.5t9.5 134t23.5 113t42.5 87t67.5 84.5q143 143 365 143zM735 1911l258 -314h-141l-186 213l-185 -213h-141l256 314h139z" />
    <glyph glyph-name="ccircumflex" unicode="&#x109;" horiz-adv-x="1005" 
d="M578 1020q106 0 180 -33t151 -117l-100 -94q-57 63 -108 88t-123 25q-154 0 -234 -115q-35 -49 -50 -111.5t-15 -158.5t15 -159t50 -112q80 -114 234 -114q72 0 123 25.5t108 88.5l100 -96q-77 -84 -151 -116.5t-180 -32.5q-199 0 -323 133.5t-124 382.5t124 382.5
t323 133.5zM612 1530l258 -313h-141l-186 213l-185 -213h-141l256 313h139z" />
    <glyph glyph-name="Cdotaccent" unicode="&#x10a;" horiz-adv-x="1304" 
d="M666 1470q198 0 332.5 -115t172.5 -319h-159q-30 137 -120.5 216t-225.5 79q-150 0 -252 -102q-66 -68 -84.5 -166t-18.5 -334t18.5 -334t84.5 -166q102 -102 252 -102q135 0 225.5 79t120.5 216h159q-38 -203 -173 -318.5t-332 -115.5q-222 0 -365 143
q-41 41 -67.5 84.5t-42.5 87t-23.5 113t-9.5 134t-2 179.5t2 179.5t9.5 134t23.5 113t42.5 87t67.5 84.5q143 143 365 143zM592 1616v182h147v-182h-147z" />
    <glyph glyph-name="cdotaccent" unicode="&#x10b;" horiz-adv-x="1005" 
d="M578 1020q106 0 180 -33t151 -117l-100 -94q-57 63 -108 88t-123 25q-154 0 -234 -115q-35 -49 -50 -111.5t-15 -158.5t15 -159t50 -112q80 -114 234 -114q72 0 123 25.5t108 88.5l100 -96q-77 -84 -151 -116.5t-180 -32.5q-199 0 -323 133.5t-124 382.5t124 382.5
t323 133.5zM616 1415v-182h-147v182h147z" />
    <glyph glyph-name="Ccaron" unicode="&#x10c;" horiz-adv-x="1304" 
d="M666 1470q198 0 332.5 -115t172.5 -319h-159q-30 137 -120.5 216t-225.5 79q-150 0 -252 -102q-66 -68 -84.5 -166t-18.5 -334t18.5 -334t84.5 -166q102 -102 252 -102q135 0 225.5 79t120.5 216h159q-38 -203 -173 -318.5t-332 -115.5q-222 0 -365 143
q-41 41 -67.5 84.5t-42.5 87t-23.5 113t-9.5 134t-2 179.5t2 179.5t9.5 134t23.5 113t42.5 87t67.5 84.5q143 143 365 143zM993 1911l-258 -314h-139l-256 314h141l185 -213l186 213h141z" />
    <glyph glyph-name="ccaron" unicode="&#x10d;" horiz-adv-x="1005" 
d="M578 1020q106 0 180 -33t151 -117l-100 -94q-57 63 -108 88t-123 25q-154 0 -234 -115q-35 -49 -50 -111.5t-15 -158.5t15 -159t50 -112q80 -114 234 -114q72 0 123 25.5t108 88.5l100 -96q-77 -84 -151 -116.5t-180 -32.5q-199 0 -323 133.5t-124 382.5t124 382.5
t323 133.5zM870 1530l-256 -313h-139l-258 313h141l187 -215l184 215h141z" />
    <glyph glyph-name="Dcaron" unicode="&#x10e;" horiz-adv-x="1378" 
d="M211 1458h500q242 0 383 -153q31 -34 54 -73.5t37 -90t22 -91t11.5 -105.5t4 -103.5t0.5 -112.5t-0.5 -112.5t-4 -103t-11.5 -105.5t-22 -91t-37 -89.5t-54 -73.5q-142 -154 -383 -154h-500v1458zM684 1319h-317v-1180h317q190 0 287 107q34 36 54.5 85.5t29 121
t10.5 125.5t2 151t-2 151t-10.5 125.5t-29 121t-54.5 85.5q-97 107 -287 107zM1016 1911l-258 -314h-140l-256 314h142l184 -213l186 213h142z" />
    <glyph glyph-name="dcaron" unicode="&#x10f;" horiz-adv-x="1116" 
d="M932 1458v-1458h-148v119q-60 -74 -126.5 -102.5t-157.5 -28.5q-76 0 -140.5 23.5t-105.5 64.5q-123 123 -123 428q0 303 123 428q41 41 105.5 64.5t140.5 23.5q90 0 157 -28.5t127 -102.5v569h148zM530 889q-63 0 -110 -22t-73.5 -56t-42 -87t-20.5 -103.5t-5 -116.5
t5 -116.5t20.5 -103.5t42 -87t73.5 -56t110 -22q64 0 111 22t74 56t43 87t21 103.5t5 116.5t-5 116.5t-21 103.5t-43 87t-74 56t-111 22zM1282 1473l-104 -312h-119l80 312h143z" />
    <glyph glyph-name="Dcroat" unicode="&#x110;" horiz-adv-x="1406" 
d="M240 1458h499q242 0 383 -153q31 -34 54 -73.5t37 -90t22 -91t11.5 -105.5t4 -103.5t0.5 -112.5q0 -105 -3 -168.5t-14.5 -147t-39 -147t-72.5 -112.5q-142 -154 -383 -154h-499v676h-160v121h160v661zM713 1319h-318v-522h332v-121h-332v-537h318q189 0 286 107
q63 67 80 179t17 304q0 95 -2 150.5t-11 126.5t-29.5 120.5t-54.5 85.5q-97 107 -286 107z" />
    <glyph glyph-name="dcroat" unicode="&#x111;" horiz-adv-x="1116" 
d="M932 1458v-188h125v-99h-125v-1171h-146v121q-60 -76 -127 -104.5t-159 -28.5q-76 0 -140.5 23.5t-105.5 64.5q-123 125 -123 428q0 305 123 428q41 41 105.5 64.5t140.5 23.5q91 0 157.5 -27.5t126.5 -101.5v280h-252v99h252v188h148zM532 889q-64 0 -111 -22t-74 -56
t-42.5 -87t-20.5 -103.5t-5 -116.5t5 -116.5t20.5 -103.5t42.5 -87t74 -56t111 -22t110.5 22t73 56t42.5 87t21 103.5t5 116.5t-5 116.5t-21 103.5t-42.5 87t-73 56t-110.5 22z" />
    <glyph glyph-name="Emacron" unicode="&#x112;" horiz-adv-x="1228" 
d="M1116 1458v-139h-749v-514h639v-139h-639v-527h749v-139h-905v1458h905zM946 1751v-117h-616v117h616z" />
    <glyph glyph-name="emacron" unicode="&#x113;" 
d="M543 1020q195 0 304 -130.5t109 -359.5v-65h-680q0 -167 76 -257.5t221 -90.5q86 0 144.5 26t120.5 88l100 -88q-81 -81 -164 -118t-205 -37q-208 0 -324 128t-116 388q0 244 110.5 380t303.5 136zM543 895q-80 0 -141.5 -40.5t-94.5 -111.5q-17 -37 -22.5 -68t-8.5 -100
h535q-4 50 -6 70.5t-8.5 46t-18.5 51.5q-33 71 -94 111.5t-141 40.5zM852 1372v-115h-616v115h616z" />
    <glyph glyph-name="Ebreve" unicode="&#x114;" horiz-adv-x="1228" 
d="M1116 1458v-139h-749v-514h639v-139h-639v-527h749v-139h-905v1458h905zM860 1901h115q-25 -285 -338 -285t-338 285h115q10 -81 69.5 -125.5t153.5 -44.5t153.5 44.5t69.5 125.5z" />
    <glyph glyph-name="ebreve" unicode="&#x115;" 
d="M543 1020q195 0 304 -130.5t109 -359.5v-65h-680q0 -167 76 -257.5t221 -90.5q86 0 144.5 26t120.5 88l100 -88q-81 -81 -164 -118t-205 -37q-208 0 -324 128t-116 388q0 244 110.5 380t303.5 136zM543 895q-80 0 -141.5 -40.5t-94.5 -111.5q-17 -37 -22.5 -68t-8.5 -100
h535q-4 50 -6 70.5t-8.5 46t-18.5 51.5q-33 71 -94 111.5t-141 40.5zM766 1493h115q-25 -285 -338 -285t-338 285h114q10 -81 69.5 -125.5t154.5 -44.5q94 0 153.5 44.5t69.5 125.5z" />
    <glyph glyph-name="Edotaccent" unicode="&#x116;" horiz-adv-x="1228" 
d="M1116 1458v-139h-749v-514h639v-139h-639v-527h749v-139h-905v1458h905zM563 1616v182h148v-182h-148z" />
    <glyph glyph-name="edotaccent" unicode="&#x117;" 
d="M543 1020q195 0 304 -130.5t109 -359.5v-65h-680q0 -167 76 -257.5t221 -90.5q86 0 144.5 26t120.5 88l100 -88q-81 -81 -164 -118t-205 -37q-208 0 -324 128t-116 388q0 244 110.5 380t303.5 136zM543 895q-80 0 -141.5 -40.5t-94.5 -111.5q-17 -37 -22.5 -68t-8.5 -100
h535q-4 50 -6 70.5t-8.5 46t-18.5 51.5q-33 71 -94 111.5t-141 40.5zM616 1415v-182h-147v182h147z" />
    <glyph glyph-name="Eogonek" unicode="&#x118;" horiz-adv-x="1228" 
d="M1116 1458v-139h-749v-514h639v-139h-639v-527h749v-139h-905v1458h905zM774 -442l146 301h129l-119 -301h-156z" />
    <glyph glyph-name="eogonek" unicode="&#x119;" 
d="M543 1020q195 0 304 -130.5t109 -359.5v-65h-680q0 -167 76 -257.5t221 -90.5q86 0 144.5 26t120.5 88l100 -88q-81 -81 -164 -118t-205 -37q-208 0 -324 128t-116 388q0 244 110.5 380t303.5 136zM543 895q-80 0 -141.5 -40.5t-94.5 -111.5q-17 -37 -22.5 -68t-8.5 -100
h535q-4 50 -6 70.5t-8.5 46t-18.5 51.5q-33 71 -94 111.5t-141 40.5zM555 -442l145 301h131l-118 -301h-158z" />
    <glyph glyph-name="Ecaron" unicode="&#x11a;" horiz-adv-x="1228" 
d="M1116 1458v-139h-749v-514h639v-139h-639v-527h749v-139h-905v1458h905zM965 1911l-258 -314h-140l-256 314h142l184 -213l186 213h142z" />
    <glyph glyph-name="ecaron" unicode="&#x11b;" 
d="M543 1020q195 0 304 -130.5t109 -359.5v-65h-680q0 -167 76 -257.5t221 -90.5q86 0 144.5 26t120.5 88l100 -88q-81 -81 -164 -118t-205 -37q-208 0 -324 128t-116 388q0 244 110.5 380t303.5 136zM543 895q-80 0 -141.5 -40.5t-94.5 -111.5q-17 -37 -22.5 -68t-8.5 -100
h535q-4 50 -6 70.5t-8.5 46t-18.5 51.5q-33 71 -94 111.5t-141 40.5zM870 1530l-256 -313h-139l-258 313h141l187 -215l184 215h141z" />
    <glyph glyph-name="Gcircumflex" unicode="&#x11c;" horiz-adv-x="1331" 
d="M666 1470q202 0 340.5 -121.5t169.5 -314.5h-156q-31 140 -124.5 218.5t-229.5 78.5q-153 0 -252 -102q-66 -68 -84.5 -166t-18.5 -334t18.5 -334t84.5 -166q99 -102 252 -102q81 0 153.5 32t122.5 93q82 103 82 264v113h-358v133h514v-232q0 -128 -27.5 -212.5
t-97.5 -161.5q-152 -168 -389 -168q-222 0 -365 143q-41 41 -67.5 84.5t-42.5 87t-23.5 113t-9.5 134t-2 179.5t2 179.5t9.5 134t23.5 113t42.5 87t67.5 84.5q143 143 365 143zM735 1911l258 -314h-141l-186 213l-185 -213h-141l256 314h139z" />
    <glyph glyph-name="gcircumflex" unicode="&#x11d;" horiz-adv-x="1112" 
d="M500 1020q91 0 157.5 -28t124.5 -103v119h146v-1039q0 -191 -113 -311.5t-307 -120.5q-111 0 -185.5 30.5t-156.5 104.5l96 95q62 -55 111 -78t131 -23q139 0 207.5 85.5t68.5 223.5v158q-58 -74 -125.5 -102.5t-156.5 -28.5q-74 0 -138.5 24.5t-105.5 65.5
q-123 123 -123 420t123 420q40 40 105.5 64t140.5 24zM530 889q-63 0 -110 -22t-73.5 -56t-42 -86t-20.5 -101t-5 -112t5 -112t20.5 -101t42 -86t73.5 -56t110 -22t109.5 22t73 56t42 86t20.5 101t5 112t-5 112t-20.5 101t-42 86t-73 56t-109.5 22zM612 1530l258 -313h-141
l-186 213l-185 -213h-141l256 313h139z" />
    <glyph glyph-name="Gbreve" unicode="&#x11e;" horiz-adv-x="1331" 
d="M666 1470q202 0 340.5 -121.5t169.5 -314.5h-156q-31 140 -124.5 218.5t-229.5 78.5q-153 0 -252 -102q-66 -68 -84.5 -166t-18.5 -334t18.5 -334t84.5 -166q99 -102 252 -102q81 0 153.5 32t122.5 93q82 103 82 264v113h-358v133h514v-232q0 -128 -27.5 -212.5
t-97.5 -161.5q-152 -168 -389 -168q-222 0 -365 143q-41 41 -67.5 84.5t-42.5 87t-23.5 113t-9.5 134t-2 179.5t2 179.5t9.5 134t23.5 113t42.5 87t67.5 84.5q143 143 365 143zM889 1901h115q-25 -285 -338 -285t-338 285h114q10 -81 69.5 -125.5t154.5 -44.5
q94 0 153.5 44.5t69.5 125.5z" />
    <glyph glyph-name="gbreve" unicode="&#x11f;" horiz-adv-x="1112" 
d="M500 1020q91 0 157.5 -28t124.5 -103v119h146v-1039q0 -191 -113 -311.5t-307 -120.5q-111 0 -185.5 30.5t-156.5 104.5l96 95q62 -55 111 -78t131 -23q139 0 207.5 85.5t68.5 223.5v158q-58 -74 -125.5 -102.5t-156.5 -28.5q-74 0 -138.5 24.5t-105.5 65.5
q-123 123 -123 420t123 420q40 40 105.5 64t140.5 24zM530 889q-63 0 -110 -22t-73.5 -56t-42 -86t-20.5 -101t-5 -112t5 -112t20.5 -101t42 -86t73.5 -56t110 -22t109.5 22t73 56t42 86t20.5 101t5 112t-5 112t-20.5 101t-42 86t-73 56t-109.5 22zM766 1493h115
q-25 -285 -338 -285t-338 285h114q10 -81 69.5 -125.5t154.5 -44.5q94 0 153.5 44.5t69.5 125.5z" />
    <glyph glyph-name="Gdotaccent" unicode="&#x120;" horiz-adv-x="1331" 
d="M666 1470q202 0 340.5 -121.5t169.5 -314.5h-156q-31 140 -124.5 218.5t-229.5 78.5q-153 0 -252 -102q-66 -68 -84.5 -166t-18.5 -334t18.5 -334t84.5 -166q99 -102 252 -102q81 0 153.5 32t122.5 93q82 103 82 264v113h-358v133h514v-232q0 -128 -27.5 -212.5
t-97.5 -161.5q-152 -168 -389 -168q-222 0 -365 143q-41 41 -67.5 84.5t-42.5 87t-23.5 113t-9.5 134t-2 179.5t2 179.5t9.5 134t23.5 113t42.5 87t67.5 84.5q143 143 365 143zM592 1616v182h147v-182h-147z" />
    <glyph glyph-name="gdotaccent" unicode="&#x121;" horiz-adv-x="1112" 
d="M500 1020q91 0 157.5 -28t124.5 -103v119h146v-1039q0 -191 -113 -311.5t-307 -120.5q-111 0 -185.5 30.5t-156.5 104.5l96 95q62 -55 111 -78t131 -23q139 0 207.5 85.5t68.5 223.5v158q-58 -74 -125.5 -102.5t-156.5 -28.5q-74 0 -138.5 24.5t-105.5 65.5
q-123 123 -123 420t123 420q40 40 105.5 64t140.5 24zM530 889q-63 0 -110 -22t-73.5 -56t-42 -86t-20.5 -101t-5 -112t5 -112t20.5 -101t42 -86t73.5 -56t110 -22t109.5 22t73 56t42 86t20.5 101t5 112t-5 112t-20.5 101t-42 86t-73 56t-109.5 22zM616 1415v-182h-147v182
h147z" />
    <glyph glyph-name="uni0122" unicode="&#x122;" horiz-adv-x="1331" 
d="M666 1470q202 0 340.5 -121.5t169.5 -314.5h-156q-31 140 -124.5 218.5t-229.5 78.5q-153 0 -252 -102q-66 -68 -84.5 -166t-18.5 -334t18.5 -334t84.5 -166q99 -102 252 -102q81 0 153.5 32t122.5 93q82 103 82 264v113h-358v133h514v-232q0 -128 -27.5 -212.5
t-97.5 -161.5q-152 -168 -389 -168q-222 0 -365 143q-41 41 -67.5 84.5t-42.5 87t-23.5 113t-9.5 134t-2 179.5t2 179.5t9.5 134t23.5 113t42.5 87t67.5 84.5q143 143 365 143zM463 -442l145 301h129l-119 -301h-155z" />
    <glyph glyph-name="uni0123" unicode="&#x123;" horiz-adv-x="1112" 
d="M500 1020q91 0 157.5 -28t124.5 -103v119h146v-1039q0 -191 -113 -311.5t-307 -120.5q-111 0 -185.5 30.5t-156.5 104.5l96 95q62 -55 111 -78t131 -23q139 0 207.5 85.5t68.5 223.5v158q-58 -74 -125.5 -102.5t-156.5 -28.5q-74 0 -138.5 24.5t-105.5 65.5
q-123 123 -123 420t123 420q40 40 105.5 64t140.5 24zM530 889q-63 0 -110 -22t-73.5 -56t-42 -86t-20.5 -101t-5 -112t5 -112t20.5 -101t42 -86t73.5 -56t110 -22t109.5 22t73 56t42 86t20.5 101t5 112t-5 112t-20.5 101t-42 86t-73 56t-109.5 22zM752 1522l-146 -305h-135
l119 305h162z" />
    <glyph glyph-name="Hcircumflex" unicode="&#x124;" horiz-adv-x="1425" 
d="M1214 1458v-1458h-155v666h-692v-666h-156v1458h156v-653h692v653h155zM784 1911l258 -314h-141l-186 213l-185 -213h-141l256 314h139z" />
    <glyph glyph-name="hcircumflex" unicode="&#x125;" horiz-adv-x="1150" 
d="M332 1458v-563q110 125 282 125q166 0 260 -94q103 -100 103 -283v-643h-148v621q0 131 -64.5 199.5t-180.5 68.5q-117 0 -184.5 -69.5t-67.5 -198.5v-621h-148v1458h148zM328 1915l258 -313h-142l-186 213l-184 -213h-142l256 313h140z" />
    <glyph glyph-name="Hbar" unicode="&#x126;" horiz-adv-x="1466" 
d="M1235 1458v-284h151v-119h-151v-1055h-156v666h-692v-666h-156v1055h-151v119h151v284h156v-284h692v284h156zM1079 1055h-692v-250h692v250z" />
    <glyph glyph-name="hbar" unicode="&#x127;" horiz-adv-x="1148" 
d="M182 0v1169h-123v103h123v186h148v-186h254v-103h-254v-274q110 125 282 125q166 0 260 -94q103 -100 103 -283v-643h-148v621q0 131 -64.5 199.5t-180.5 68.5q-117 0 -184.5 -69.5t-67.5 -198.5v-621h-148z" />
    <glyph glyph-name="Itilde" unicode="&#x128;" horiz-adv-x="577" 
d="M367 1458v-1458h-156v1458h156zM156 1829q42 0 73 -11t72 -38q65 -41 115 -41q28 0 54 12t67 53l75 -75q-64 -63 -107.5 -83t-86.5 -20q-67 0 -146 47q-73 43 -114 43q-30 0 -55 -12t-66 -53l-76 73q63 63 107.5 84t87.5 21z" />
    <glyph glyph-name="itilde" unicode="&#x129;" horiz-adv-x="518" 
d="M127 1446q42 0 73 -11t72 -38q71 -41 115 -41q29 0 54 11.5t67 53.5l76 -73q-62 -64 -107 -84.5t-88 -20.5q-39 0 -70.5 12t-74.5 37q-70 41 -115 41q-30 0 -54.5 -11.5t-66.5 -53.5l-76 73q64 64 107.5 84.5t87.5 20.5zM332 1008v-1008h-148v1008h148z" />
    <glyph glyph-name="Imacron" unicode="&#x12a;" horiz-adv-x="577" 
d="M367 1458v-1458h-156v1458h156zM596 1751v-117h-616v117h616z" />
    <glyph glyph-name="imacron" unicode="&#x12b;" horiz-adv-x="518" 
d="M567 1372v-115h-616v115h616zM332 1008v-1008h-148v1008h148z" />
    <glyph glyph-name="Ibreve" unicode="&#x12c;" horiz-adv-x="577" 
d="M367 1458v-1458h-156v1458h156zM510 1901h115q-25 -285 -338 -285t-338 285h114q10 -81 69.5 -125.5t154.5 -44.5q94 0 153.5 44.5t69.5 125.5z" />
    <glyph glyph-name="ibreve" unicode="&#x12d;" horiz-adv-x="518" 
d="M481 1493h115q-25 -285 -338 -285t-338 285h115q10 -81 69.5 -125.5t153.5 -44.5t153.5 44.5t69.5 125.5zM332 1008v-1008h-148v1008h148z" />
    <glyph glyph-name="Iogonek" unicode="&#x12e;" horiz-adv-x="577" 
d="M367 1458v-1458h-156v1458h156zM84 -442l145 301h129l-118 -301h-156z" />
    <glyph glyph-name="iogonek" unicode="&#x12f;" horiz-adv-x="518" 
d="M332 1008v-1008h-148v1008h148zM342 1460v-166h-166v166h166zM55 -442l146 301h131l-119 -301h-158z" />
    <glyph glyph-name="Idotaccent" unicode="&#x130;" horiz-adv-x="577" 
d="M367 1458v-1458h-156v1458h156zM213 1616v182h147v-182h-147z" />
    <glyph glyph-name="dotlessi" unicode="&#x131;" horiz-adv-x="518" 
d="M332 1008v-1008h-148v1008h148z" />
    <glyph glyph-name="IJ" unicode="&#x132;" horiz-adv-x="1603" 
d="M367 1458v-1458h-156v1458h156zM1413 1458v-1016q0 -208 -126.5 -331t-328.5 -123t-333 131l104 104q48 -48 97 -72t132 -24q143 0 221 87.5t78 248.5v995h156z" />
    <glyph glyph-name="ij" unicode="&#x133;" horiz-adv-x="1036" 
d="M332 1008v-1008h-148v1008h148zM342 1460v-166h-166v166h166zM850 1008v-1188q0 -122 -64.5 -196.5t-191.5 -74.5h-107v129h80q74 0 104.5 36t30.5 112v1182h148zM860 1460v-166h-166v166h166z" />
    <glyph glyph-name="Jcircumflex" unicode="&#x134;" horiz-adv-x="1026" 
d="M836 1458v-1016q0 -208 -126.5 -331t-328.5 -123q-203 0 -334 131l105 104q48 -48 97 -72t132 -24q143 0 221 87.5t78 248.5v995h156zM829 1911l258 -314h-141l-186 213l-185 -213h-141l256 314h139z" />
    <glyph glyph-name="jcircumflex" unicode="&#x135;" horiz-adv-x="518" 
d="M332 1008v-1188q0 -122 -64.5 -196.5t-191.5 -74.5h-107v129h80q74 0 104.5 36t30.5 112v1182h148zM328 1530l258 -313h-142l-186 213l-184 -213h-142l256 313h140z" />
    <glyph glyph-name="uni0136" unicode="&#x136;" horiz-adv-x="1333" 
d="M1237 1458l-459 -563l525 -895h-185l-444 776l-307 -370v-406h-156v1458h156v-840l682 840h188zM506 -442l145 301h129l-118 -301h-156z" />
    <glyph glyph-name="uni0137" unicode="&#x137;" horiz-adv-x="1097" 
d="M332 1458v-975l454 525h185l-342 -385l401 -623h-182l-320 516l-196 -225v-291h-148v1458h148zM657 -137l-120 -305h-158l145 305h133z" />
    <glyph glyph-name="kgreenlandic" unicode="&#x138;" horiz-adv-x="1097" 
d="M971 1008l-342 -385l401 -623h-182l-320 516l-196 -225v-291h-148v1008h148v-525l454 525h185z" />
    <glyph glyph-name="Lacute" unicode="&#x139;" horiz-adv-x="1173" 
d="M367 1458v-1319h745v-139h-901v1458h156zM561 1913l-215 -316h-141l186 316h170z" />
    <glyph glyph-name="lacute" unicode="&#x13a;" horiz-adv-x="608" 
d="M328 1458v-1184q0 -76 30.5 -111.5t104.5 -35.5h80v-127h-107q-127 0 -191.5 73.5t-64.5 194.5v1190h148zM539 1915l-215 -313h-142l187 313h170z" />
    <glyph glyph-name="uni013B" unicode="&#x13b;" horiz-adv-x="1173" 
d="M367 1458v-1319h745v-139h-901v1458h156zM477 -442l146 301h129l-119 -301h-156z" />
    <glyph glyph-name="uni013C" unicode="&#x13c;" horiz-adv-x="608" 
d="M328 1458v-1184q0 -76 30.5 -111.5t104.5 -35.5h80v-127h-107q-127 0 -191.5 73.5t-64.5 194.5v1190h148zM403 -137l-120 -305h-158l145 305h133z" />
    <glyph glyph-name="Lcaron" unicode="&#x13d;" horiz-adv-x="1173" 
d="M367 1458v-1319h745v-139h-901v1458h156zM829 1458l-104 -311h-119l80 311h143z" />
    <glyph glyph-name="lcaron" unicode="&#x13e;" horiz-adv-x="608" 
d="M328 1458v-1184q0 -76 30.5 -111.5t104.5 -35.5h80v-127h-107q-127 0 -191.5 73.5t-64.5 194.5v1190h148zM678 1473l-105 -312h-118l80 312h143z" />
    <glyph glyph-name="Ldot" unicode="&#x13f;" horiz-adv-x="1173" 
d="M367 1458v-1319h745v-139h-901v1458h156zM803 643v182h147v-182h-147z" />
    <glyph glyph-name="ldot" unicode="&#x140;" horiz-adv-x="602" 
d="M328 1458v-1184q0 -76 30.5 -111.5t104.5 -35.5h80v-127h-107q-127 0 -191.5 73.5t-64.5 194.5v1190h148zM631 647v-182h-148v182h148z" />
    <glyph glyph-name="Lslash" unicode="&#x141;" horiz-adv-x="1191" 
d="M385 1458v-633l317 201v-133l-317 -201v-553h745v-139h-901v594l-149 -94v133l149 96v729h156z" />
    <glyph glyph-name="lslash" unicode="&#x142;" horiz-adv-x="634" 
d="M352 1458v-540l166 102v-127l-166 -102v-517q0 -76 30.5 -111.5t104.5 -35.5h82v-127h-106q-128 0 -193 73.5t-65 194.5v432l-129 -79v127l129 79v631h147z" />
    <glyph glyph-name="Nacute" unicode="&#x143;" horiz-adv-x="1499" 
d="M1288 1458v-1458h-147l-774 1169v-1169h-156v1458h147l775 -1165v1165h155zM1024 1913l-215 -316h-141l186 316h170z" />
    <glyph glyph-name="nacute" unicode="&#x144;" horiz-adv-x="1153" 
d="M614 1020q166 0 260 -94q105 -102 105 -283v-643h-148v621q0 131 -65.5 199.5t-181.5 68.5q-117 0 -184.5 -69.5t-67.5 -198.5v-621h-148v1008h146v-113q110 125 284 125zM874 1530l-215 -313h-141l187 313h169z" />
    <glyph glyph-name="uni0145" unicode="&#x145;" horiz-adv-x="1499" 
d="M1288 1458v-1458h-147l-774 1169v-1169h-156v1458h147l775 -1165v1165h155zM547 -442l145 301h129l-119 -301h-155z" />
    <glyph glyph-name="uni0146" unicode="&#x146;" horiz-adv-x="1153" 
d="M614 1020q166 0 260 -94q105 -102 105 -283v-643h-148v621q0 131 -65.5 199.5t-181.5 68.5q-117 0 -184.5 -69.5t-67.5 -198.5v-621h-148v1008h146v-113q110 125 284 125zM657 -137l-120 -305h-158l145 305h133z" />
    <glyph glyph-name="Ncaron" unicode="&#x147;" horiz-adv-x="1499" 
d="M1288 1458v-1458h-147l-774 1169v-1169h-156v1458h147l775 -1165v1165h155zM1077 1911l-258 -314h-139l-256 314h141l185 -213l186 213h141z" />
    <glyph glyph-name="ncaron" unicode="&#x148;" horiz-adv-x="1153" 
d="M614 1020q166 0 260 -94q105 -102 105 -283v-643h-148v621q0 131 -65.5 199.5t-181.5 68.5q-117 0 -184.5 -69.5t-67.5 -198.5v-621h-148v1008h146v-113q110 125 284 125zM909 1530l-256 -313h-139l-258 313h141l187 -215l184 215h141z" />
    <glyph glyph-name="napostrophe" unicode="&#x149;" horiz-adv-x="1691" 
d="M358 1458v-194l-178 -162v356h178zM1153 1020q166 0 260 -94q105 -102 105 -283v-643h-148v621q0 131 -66 199.5t-182 68.5q-117 0 -184.5 -69.5t-67.5 -198.5v-621h-147v1008h145v-113q110 125 285 125z" />
    <glyph glyph-name="Eng" unicode="&#x14a;" horiz-adv-x="1499" 
d="M1288 1458v-1632q0 -123 -64.5 -195.5t-193.5 -72.5h-104v127h69q76 0 107 35t31 112v180l-766 1159v-1171h-156v1458h147l775 -1167v1167h155z" />
    <glyph glyph-name="eng" unicode="&#x14b;" horiz-adv-x="1153" 
d="M614 1020q166 0 260 -94q105 -102 105 -283v-815q0 -123 -64.5 -196.5t-191.5 -73.5h-107v129h80q76 0 105.5 34.5t29.5 112.5v787q0 131 -65.5 199.5t-181.5 68.5q-117 0 -184.5 -69.5t-67.5 -198.5v-621h-148v1008h146v-113q110 125 284 125z" />
    <glyph glyph-name="Omacron" unicode="&#x14c;" horiz-adv-x="1331" 
d="M666 1470q219 0 362 -143q51 -51 80.5 -101.5t44.5 -126.5t19 -152.5t4 -217.5t-4 -217.5t-19 -152.5t-44.5 -126.5t-80.5 -101.5q-143 -143 -362 -143q-222 0 -365 143q-41 41 -67.5 84.5t-42.5 87t-23.5 113t-9.5 134t-2 179.5t2 179.5t9.5 134t23.5 113t42.5 87
t67.5 84.5q143 143 365 143zM666 1331q-150 0 -252 -102q-66 -68 -84.5 -166t-18.5 -334t18.5 -334t84.5 -166q102 -102 252 -102t252 102q66 67 84 165t18 335t-18 335t-84 165q-102 102 -252 102zM975 1751v-117h-617v117h617z" />
    <glyph glyph-name="omacron" unicode="&#x14d;" 
d="M543 1020q176 0 288 -115q71 -71 97 -169.5t26 -231.5t-26 -231.5t-97 -170.5q-111 -114 -288 -114q-178 0 -289 114q-71 72 -97 170.5t-26 231.5t26 231.5t97 169.5q112 115 289 115zM543 889q-109 0 -183 -74q-50 -50 -65.5 -126.5t-15.5 -184.5q0 -109 15 -184.5
t66 -126.5q74 -74 183 -74q110 0 184 74q50 51 65 127t15 184q0 109 -15 185t-65 126q-74 74 -184 74zM852 1372v-115h-616v115h616z" />
    <glyph glyph-name="Obreve" unicode="&#x14e;" horiz-adv-x="1331" 
d="M666 1470q219 0 362 -143q51 -51 80.5 -101.5t44.5 -126.5t19 -152.5t4 -217.5t-4 -217.5t-19 -152.5t-44.5 -126.5t-80.5 -101.5q-143 -143 -362 -143q-222 0 -365 143q-41 41 -67.5 84.5t-42.5 87t-23.5 113t-9.5 134t-2 179.5t2 179.5t9.5 134t23.5 113t42.5 87
t67.5 84.5q143 143 365 143zM666 1331q-150 0 -252 -102q-66 -68 -84.5 -166t-18.5 -334t18.5 -334t84.5 -166q102 -102 252 -102t252 102q66 67 84 165t18 335t-18 335t-84 165q-102 102 -252 102zM889 1901h115q-25 -285 -338 -285t-338 285h114q10 -81 69.5 -125.5
t154.5 -44.5q94 0 153.5 44.5t69.5 125.5z" />
    <glyph glyph-name="obreve" unicode="&#x14f;" 
d="M543 1020q176 0 288 -115q71 -71 97 -169.5t26 -231.5t-26 -231.5t-97 -170.5q-111 -114 -288 -114q-178 0 -289 114q-71 72 -97 170.5t-26 231.5t26 231.5t97 169.5q112 115 289 115zM543 889q-109 0 -183 -74q-50 -50 -65.5 -126.5t-15.5 -184.5q0 -109 15 -184.5
t66 -126.5q74 -74 183 -74q110 0 184 74q50 51 65 127t15 184q0 109 -15 185t-65 126q-74 74 -184 74zM766 1493h115q-25 -285 -338 -285t-338 285h114q10 -81 69.5 -125.5t154.5 -44.5q94 0 153.5 44.5t69.5 125.5z" />
    <glyph glyph-name="Ohungarumlaut" unicode="&#x150;" horiz-adv-x="1331" 
d="M666 1470q219 0 362 -143q51 -51 80.5 -101.5t44.5 -126.5t19 -152.5t4 -217.5t-4 -217.5t-19 -152.5t-44.5 -126.5t-80.5 -101.5q-143 -143 -362 -143q-222 0 -365 143q-41 41 -67.5 84.5t-42.5 87t-23.5 113t-9.5 134t-2 179.5t2 179.5t9.5 134t23.5 113t42.5 87
t67.5 84.5q143 143 365 143zM666 1331q-150 0 -252 -102q-66 -68 -84.5 -166t-18.5 -334t18.5 -334t84.5 -166q102 -102 252 -102t252 102q66 67 84 165t18 335t-18 335t-84 165q-102 102 -252 102zM1112 1913l-223 -314h-133l182 314h174zM739 1913l-221 -314h-135l182 314
h174z" />
    <glyph glyph-name="ohungarumlaut" unicode="&#x151;" 
d="M543 1020q176 0 288 -115q71 -71 97 -169.5t26 -231.5t-26 -231.5t-97 -170.5q-111 -114 -288 -114q-178 0 -289 114q-71 72 -97 170.5t-26 231.5t26 231.5t97 169.5q112 115 289 115zM543 889q-109 0 -183 -74q-50 -50 -65.5 -126.5t-15.5 -184.5q0 -109 15 -184.5
t66 -126.5q74 -74 183 -74q110 0 184 74q50 51 65 127t15 184q0 109 -15 185t-65 126q-74 74 -184 74zM1004 1530l-224 -313h-133l182 313h175zM629 1530l-221 -313h-136l183 313h174z" />
    <glyph glyph-name="OE" unicode="&#x152;" horiz-adv-x="2035" 
d="M664 1470q222 0 354 -163v151h905v-139h-749v-514h641v-139h-641v-527h749v-139h-905v152q-66 -81 -158.5 -122.5t-195.5 -41.5q-220 0 -363 143q-41 41 -67.5 84.5t-42.5 87t-23.5 113t-9.5 134t-2 179.5t2 179.5t9.5 134t23.5 113t42.5 87t67.5 84.5q143 143 363 143z
M666 1331q-153 0 -252 -102q-66 -68 -84.5 -166t-18.5 -334t18.5 -334t84.5 -166q99 -102 252 -102q72 0 138.5 27.5t113.5 76.5q66 67 83 161.5t17 336.5t-17 336.5t-83 161.5q-47 49 -113.5 76.5t-138.5 27.5z" />
    <glyph glyph-name="oe" unicode="&#x153;" horiz-adv-x="1763" 
d="M1634 465h-680q0 -167 76 -257.5t221 -90.5q86 0 144.5 26t120.5 88l100 -88q-81 -81 -164 -118t-205 -37q-252 0 -362 194q-47 -93 -137 -143.5t-205 -50.5q-178 0 -289 114q-71 72 -97 170.5t-26 231.5t26 231.5t97 169.5q112 115 289 115q117 0 205.5 -50.5
t138.5 -144.5q50 95 135 145t199 50q195 0 304 -131t109 -357v-67zM1489 575q-4 50 -6 70.5t-8.5 46t-18.5 51.5q-33 71 -94 111.5t-141 40.5t-141.5 -40.5t-94.5 -111.5q-17 -37 -22.5 -68t-8.5 -100h535zM807 504q0 109 -15 185t-65 126q-74 74 -184 74q-109 0 -183 -74
q-50 -50 -65.5 -126.5t-15.5 -184.5q0 -109 15 -184.5t66 -126.5q74 -74 183 -74q110 0 184 74q50 51 65 127t15 184z" />
    <glyph glyph-name="Racute" unicode="&#x154;" horiz-adv-x="1343" 
d="M211 1458h559q193 0 312.5 -109t119.5 -296q0 -156 -86 -258.5t-231 -132.5l346 -662h-182l-332 647h-350v-647h-156v1458zM756 1319h-389v-535h389q132 0 211.5 68.5t79.5 198.5t-79.5 199t-211.5 69zM946 1913l-215 -316h-141l186 316h170z" />
    <glyph glyph-name="racute" unicode="&#x155;" horiz-adv-x="862" 
d="M614 1020q76 0 133 -21t109 -73l-108 -111q-42 42 -79.5 58t-95.5 16q-108 0 -174.5 -76.5t-66.5 -194.5v-618h-148v1008h148v-123q41 63 117.5 99t164.5 36zM727 1530l-215 -313h-141l186 313h170z" />
    <glyph glyph-name="uni0156" unicode="&#x156;" horiz-adv-x="1343" 
d="M211 1458h559q193 0 312.5 -109t119.5 -296q0 -156 -86 -258.5t-231 -132.5l346 -662h-182l-332 647h-350v-647h-156v1458zM756 1319h-389v-535h389q132 0 211.5 68.5t79.5 198.5t-79.5 199t-211.5 69zM469 -442l145 301h129l-118 -301h-156z" />
    <glyph glyph-name="uni0157" unicode="&#x157;" horiz-adv-x="862" 
d="M614 1020q76 0 133 -21t109 -73l-108 -111q-42 42 -79.5 58t-95.5 16q-108 0 -174.5 -76.5t-66.5 -194.5v-618h-148v1008h148v-123q41 63 117.5 99t164.5 36zM336 -137l-121 -305h-158l146 305h133z" />
    <glyph glyph-name="Rcaron" unicode="&#x158;" horiz-adv-x="1343" 
d="M211 1458h559q193 0 312.5 -109t119.5 -296q0 -156 -86 -258.5t-231 -132.5l346 -662h-182l-332 647h-350v-647h-156v1458zM756 1319h-389v-535h389q132 0 211.5 68.5t79.5 198.5t-79.5 199t-211.5 69zM999 1911l-258 -314h-139l-256 314h141l185 -213l186 213h141z" />
    <glyph glyph-name="rcaron" unicode="&#x159;" horiz-adv-x="862" 
d="M614 1020q76 0 133 -21t109 -73l-108 -111q-42 42 -79.5 58t-95.5 16q-108 0 -174.5 -76.5t-66.5 -194.5v-618h-148v1008h148v-123q41 63 117.5 99t164.5 36zM762 1530l-256 -313h-139l-258 313h141l186 -215l185 215h141z" />
    <glyph glyph-name="Sacute" unicode="&#x15a;" horiz-adv-x="1204" 
d="M592 1470q138 0 238.5 -37.5t195.5 -121.5l-100 -101q-68 65 -148.5 96t-191.5 31q-146 0 -228 -73.5t-82 -198.5q0 -113 66 -170q65 -56 190 -76l170 -26q101 -15 158 -38t107 -67q123 -107 123 -287q0 -191 -137 -302t-367 -111q-163 0 -280 45t-218 147l105 105
q88 -88 179 -123t218 -35q162 0 254 71t92 199q0 120 -72 183q-33 30 -72 44.5t-118 26.5l-170 25q-169 27 -266 110q-113 101 -113 275q0 187 125.5 298t341.5 111zM866 1913l-215 -316h-141l186 316h170z" />
    <glyph glyph-name="sacute" unicode="&#x15b;" horiz-adv-x="1015" 
d="M504 1020q226 0 362 -109l-96 -96q-105 80 -268 80q-109 0 -167.5 -43.5t-58.5 -122.5q0 -67 43.5 -102.5t137.5 -44.5l157 -15q143 -13 220 -75t77 -197q0 -144 -111 -225.5t-298 -81.5q-133 0 -234 34t-180 111l98 98q110 -116 314 -116q128 0 198 45t70 133
q0 68 -40 104t-128 43l-166 15q-301 24 -301 270q0 136 103 215.5t268 79.5zM795 1530l-215 -313h-142l187 313h170z" />
    <glyph glyph-name="Scircumflex" unicode="&#x15c;" horiz-adv-x="1204" 
d="M592 1470q138 0 238.5 -37.5t195.5 -121.5l-100 -101q-68 65 -148.5 96t-191.5 31q-146 0 -228 -73.5t-82 -198.5q0 -113 66 -170q65 -56 190 -76l170 -26q101 -15 158 -38t107 -67q123 -107 123 -287q0 -191 -137 -302t-367 -111q-163 0 -280 45t-218 147l105 105
q88 -88 179 -123t218 -35q162 0 254 71t92 199q0 120 -72 183q-33 30 -72 44.5t-118 26.5l-170 25q-169 27 -266 110q-113 101 -113 275q0 187 125.5 298t341.5 111zM662 1911l258 -314h-142l-186 213l-184 -213h-142l256 314h140z" />
    <glyph glyph-name="scircumflex" unicode="&#x15d;" horiz-adv-x="1015" 
d="M504 1020q226 0 362 -109l-96 -96q-105 80 -268 80q-109 0 -167.5 -43.5t-58.5 -122.5q0 -67 43.5 -102.5t137.5 -44.5l157 -15q143 -13 220 -75t77 -197q0 -144 -111 -225.5t-298 -81.5q-133 0 -234 34t-180 111l98 98q110 -116 314 -116q128 0 198 45t70 133
q0 68 -40 104t-128 43l-166 15q-301 24 -301 270q0 136 103 215.5t268 79.5zM571 1530l258 -313h-141l-186 213l-185 -213h-141l256 313h139z" />
    <glyph glyph-name="Scedilla" unicode="&#x15e;" horiz-adv-x="1204" 
d="M592 1470q138 0 238.5 -37.5t195.5 -121.5l-100 -101q-68 65 -148.5 96t-191.5 31q-146 0 -228 -73.5t-82 -198.5q0 -113 66 -170q65 -56 190 -76l170 -26q101 -15 158 -38t107 -67q123 -107 123 -287q0 -191 -137 -302t-367 -111q-163 0 -280 45t-218 147l105 105
q88 -88 179 -123t218 -35q162 0 254 71t92 199q0 120 -72 183q-33 30 -72 44.5t-118 26.5l-170 25q-169 27 -266 110q-113 101 -113 275q0 187 125.5 298t341.5 111zM395 -442l144 301h129l-119 -301h-154z" />
    <glyph glyph-name="scedilla" unicode="&#x15f;" horiz-adv-x="1015" 
d="M504 1020q226 0 362 -109l-96 -96q-105 80 -268 80q-109 0 -167.5 -43.5t-58.5 -122.5q0 -67 43.5 -102.5t137.5 -44.5l157 -15q143 -13 220 -75t77 -197q0 -144 -111 -225.5t-298 -81.5q-133 0 -234 34t-180 111l98 98q110 -116 314 -116q128 0 198 45t70 133
q0 68 -40 104t-128 43l-166 15q-301 24 -301 270q0 136 103 215.5t268 79.5zM297 -442l145 305h136l-121 -305h-160z" />
    <glyph glyph-name="Scaron" unicode="&#x160;" horiz-adv-x="1204" 
d="M592 1470q138 0 238.5 -37.5t195.5 -121.5l-100 -101q-68 65 -148.5 96t-191.5 31q-146 0 -228 -73.5t-82 -198.5q0 -113 66 -170q65 -56 190 -76l170 -26q101 -15 158 -38t107 -67q123 -107 123 -287q0 -191 -137 -302t-367 -111q-163 0 -280 45t-218 147l105 105
q88 -88 179 -123t218 -35q162 0 254 71t92 199q0 120 -72 183q-33 30 -72 44.5t-118 26.5l-170 25q-169 27 -266 110q-113 101 -113 275q0 187 125.5 298t341.5 111zM920 1911l-258 -314h-140l-256 314h142l184 -213l186 213h142z" />
    <glyph glyph-name="scaron" unicode="&#x161;" horiz-adv-x="1015" 
d="M504 1020q226 0 362 -109l-96 -96q-105 80 -268 80q-109 0 -167.5 -43.5t-58.5 -122.5q0 -67 43.5 -102.5t137.5 -44.5l157 -15q143 -13 220 -75t77 -197q0 -144 -111 -225.5t-298 -81.5q-133 0 -234 34t-180 111l98 98q110 -116 314 -116q128 0 198 45t70 133
q0 68 -40 104t-128 43l-166 15q-301 24 -301 270q0 136 103 215.5t268 79.5zM829 1530l-256 -313h-139l-258 313h141l187 -215l184 215h141z" />
    <glyph glyph-name="uni0162" unicode="&#x162;" horiz-adv-x="1122" 
d="M1061 1458v-139h-422v-1319h-156v1319h-422v139h1000zM356 -442l146 301h129l-119 -301h-156z" />
    <glyph glyph-name="uni0163" unicode="&#x163;" horiz-adv-x="679" 
d="M356 1317v-309h215v-113h-215v-621q0 -147 138 -147h77v-127h-104q-124 0 -191 76t-67 194v625h-127v113h127v309h147zM408 -137l-121 -305h-158l145 305h134z" />
    <glyph glyph-name="Tcaron" unicode="&#x164;" horiz-adv-x="1122" 
d="M1061 1458v-139h-422v-1319h-156v1319h-422v139h1000zM887 1911l-258 -314h-140l-256 314h142l184 -213l186 213h142z" />
    <glyph glyph-name="tcaron" unicode="&#x165;" horiz-adv-x="679" 
d="M356 1317v-309h215v-113h-215v-621q0 -147 138 -147h77v-127h-104q-124 0 -191 76t-67 194v625h-127v113h127v309h147zM707 1473l-105 -312h-119l80 312h144z" />
    <glyph glyph-name="Tbar" unicode="&#x166;" horiz-adv-x="1122" 
d="M1061 1458v-139h-422v-522h246v-121h-246v-676h-156v676h-245v121h245v522h-422v139h1000z" />
    <glyph glyph-name="tbar" unicode="&#x167;" horiz-adv-x="679" 
d="M356 1317v-309h215v-113h-215v-291h189v-106h-189v-224q0 -147 138 -147h77v-127h-104q-124 0 -191 76t-67 194v228h-127v106h127v291h-127v113h127v309h147z" />
    <glyph glyph-name="Utilde" unicode="&#x168;" horiz-adv-x="1398" 
d="M1208 1458v-977q0 -217 -144 -355t-366 -138t-365 138t-143 355v977h156v-964q0 -166 96 -266.5t256 -100.5t257.5 100.5t97.5 266.5v964h155zM569 1829q42 0 73.5 -11t72.5 -38q65 -41 114 -41q28 0 54 12t67 53l76 -75q-64 -63 -108 -83t-87 -20q-41 0 -72 11t-73 36
q-73 43 -115 43q-30 0 -54.5 -12t-65.5 -53l-76 73q63 63 107 84t87 21z" />
    <glyph glyph-name="utilde" unicode="&#x169;" horiz-adv-x="1153" 
d="M969 1008v-1008h-146v113q-110 -125 -284 -125q-166 0 -260 94q-105 102 -105 283v643h148v-621q0 -131 65.5 -199.5t181.5 -68.5q117 0 184.5 69.5t67.5 198.5v621h148zM440 1446q42 0 73.5 -11t72.5 -38q71 -41 114 -41q29 0 54 11.5t67 53.5l76 -73
q-62 -64 -107 -84.5t-88 -20.5q-39 0 -70.5 12t-74.5 37q-70 41 -115 41q-30 0 -54 -11.5t-66 -53.5l-76 73q64 64 107 84.5t87 20.5z" />
    <glyph glyph-name="Umacron" unicode="&#x16a;" horiz-adv-x="1398" 
d="M1208 1458v-977q0 -217 -144 -355t-366 -138t-365 138t-143 355v977h156v-964q0 -166 96 -266.5t256 -100.5t257.5 100.5t97.5 266.5v964h155zM1010 1751v-117h-617v117h617z" />
    <glyph glyph-name="umacron" unicode="&#x16b;" horiz-adv-x="1153" 
d="M969 1008v-1008h-146v113q-110 -125 -284 -125q-166 0 -260 94q-105 102 -105 283v643h148v-621q0 -131 65.5 -199.5t181.5 -68.5q117 0 184.5 69.5t67.5 198.5v621h148zM881 1372v-115h-617v115h617z" />
    <glyph glyph-name="Ubreve" unicode="&#x16c;" horiz-adv-x="1398" 
d="M1208 1458v-977q0 -217 -144 -355t-366 -138t-365 138t-143 355v977h156v-964q0 -166 96 -266.5t256 -100.5t257.5 100.5t97.5 266.5v964h155zM924 1901h114q-25 -285 -338 -285t-338 285h115q10 -81 69.5 -125.5t153.5 -44.5q95 0 154.5 44.5t69.5 125.5z" />
    <glyph glyph-name="ubreve" unicode="&#x16d;" horiz-adv-x="1153" 
d="M969 1008v-1008h-146v113q-110 -125 -284 -125q-166 0 -260 94q-105 102 -105 283v643h148v-621q0 -131 65.5 -199.5t181.5 -68.5q117 0 184.5 69.5t67.5 198.5v621h148zM795 1493h114q-25 -285 -338 -285t-338 285h115q10 -81 69.5 -125.5t153.5 -44.5q95 0 154.5 44.5
t69.5 125.5z" />
    <glyph glyph-name="Uring" unicode="&#x16e;" horiz-adv-x="1398" 
d="M1208 1458v-977q0 -217 -144 -355t-366 -138t-365 138t-143 355v977h156v-964q0 -166 96 -266.5t256 -100.5t257.5 100.5t97.5 266.5v964h155zM700 2021q100 0 171 -70t71 -171q0 -100 -71 -172t-171 -72q-99 0 -170 72t-71 172t70.5 170.5t170.5 70.5zM700 1919
q-59 0 -100 -40.5t-41 -98.5q0 -59 41.5 -100.5t99.5 -41.5t100 42t42 100t-41.5 98.5t-100.5 40.5z" />
    <glyph glyph-name="uring" unicode="&#x16f;" horiz-adv-x="1153" 
d="M969 1008v-1008h-146v113q-110 -125 -284 -125q-166 0 -260 94q-105 102 -105 283v643h148v-621q0 -131 65.5 -199.5t181.5 -68.5q117 0 184.5 69.5t67.5 198.5v621h148zM571 1649q100 0 171 -70.5t71 -171.5q0 -100 -71 -172t-171 -72q-99 0 -170 72t-71 172t70.5 171
t170.5 71zM571 1546q-59 0 -100 -40.5t-41 -98.5q0 -59 41 -100t100 -41t100.5 41.5t41.5 99.5t-41.5 98.5t-100.5 40.5z" />
    <glyph glyph-name="Uhungarumlaut" unicode="&#x170;" horiz-adv-x="1398" 
d="M1208 1458v-977q0 -217 -144 -355t-366 -138t-365 138t-143 355v977h156v-964q0 -166 96 -266.5t256 -100.5t257.5 100.5t97.5 266.5v964h155zM1147 1913l-223 -314h-133l182 314h174zM774 1913l-221 -314h-135l182 314h174z" />
    <glyph glyph-name="uhungarumlaut" unicode="&#x171;" horiz-adv-x="1153" 
d="M969 1008v-1008h-146v113q-110 -125 -284 -125q-166 0 -260 94q-105 102 -105 283v643h148v-621q0 -131 65.5 -199.5t181.5 -68.5q117 0 184.5 69.5t67.5 198.5v621h148zM1032 1530l-223 -313h-133l182 313h174zM657 1530l-221 -313h-135l182 313h174z" />
    <glyph glyph-name="Uogonek" unicode="&#x172;" horiz-adv-x="1398" 
d="M1208 1458v-977q0 -217 -144 -355t-366 -138t-365 138t-143 355v977h156v-964q0 -166 96 -266.5t256 -100.5t257.5 100.5t97.5 266.5v964h155zM733 -442l146 301h129l-119 -301h-156z" />
    <glyph glyph-name="uogonek" unicode="&#x173;" horiz-adv-x="1153" 
d="M969 1008v-1008h-146v113q-110 -125 -284 -125q-166 0 -260 94q-105 102 -105 283v643h148v-621q0 -131 65.5 -199.5t181.5 -68.5q117 0 184.5 69.5t67.5 198.5v621h148zM682 -442l145 301h131l-118 -301h-158z" />
    <glyph glyph-name="Wcircumflex" unicode="&#x174;" horiz-adv-x="1748" 
d="M1716 1458l-373 -1458h-145l-324 1167l-323 -1167h-145l-373 1458h166l284 -1175l322 1175h139l322 -1175l284 1175h166zM944 1911l258 -314h-141l-187 213l-184 -213h-141l256 314h139z" />
    <glyph glyph-name="wcircumflex" unicode="&#x175;" horiz-adv-x="1482" 
d="M344 0l-321 1008h159l234 -809l262 809h129l260 -809l233 809h160l-319 -1008h-137l-263 821l-262 -821h-135zM811 1530l258 -313h-141l-187 213l-184 -213h-141l256 313h139z" />
    <glyph glyph-name="Ycircumflex" unicode="&#x176;" horiz-adv-x="1052" 
d="M1036 1458l-430 -856v-602h-155v602l-435 856h168l344 -698l340 698h168zM596 1911l258 -314h-141l-187 213l-184 -213h-141l256 314h139z" />
    <glyph glyph-name="ycircumflex" unicode="&#x177;" horiz-adv-x="915" 
d="M893 1008l-465 -1270q-29 -79 -72 -119q-73 -70 -196 -70h-64v132h45q74 0 107 26t59 98l78 215l-362 988h159l277 -809l274 809h160zM528 1530l258 -313h-141l-186 213l-185 -213h-141l256 313h139z" />
    <glyph glyph-name="Ydieresis" unicode="&#x178;" horiz-adv-x="1052" 
d="M1036 1458l-430 -856v-602h-155v602l-435 856h168l344 -698l340 698h168zM817 1798v-182h-147v182h147zM383 1798v-182h-147v182h147z" />
    <glyph glyph-name="Zacute" unicode="&#x179;" horiz-adv-x="1138" 
d="M1022 1458v-131l-729 -1188h729v-139h-905v131l729 1188h-701v139h877zM856 1913l-215 -316h-141l186 316h170z" />
    <glyph glyph-name="zacute" unicode="&#x17a;" horiz-adv-x="940" 
d="M102 0v121l557 756h-526v131h701v-121l-560 -756h560v-131h-732zM764 1530l-215 -313h-141l186 313h170z" />
    <glyph glyph-name="Zdotaccent" unicode="&#x17b;" horiz-adv-x="1138" 
d="M1022 1458v-131l-729 -1188h729v-139h-905v131l729 1188h-701v139h877zM508 1616v182h147v-182h-147z" />
    <glyph glyph-name="zdotaccent" unicode="&#x17c;" horiz-adv-x="940" 
d="M102 0v121l557 756h-526v131h701v-121l-560 -756h560v-131h-732zM545 1415v-182h-148v182h148z" />
    <glyph glyph-name="Zcaron" unicode="&#x17d;" horiz-adv-x="1138" 
d="M1022 1458v-131l-729 -1188h729v-139h-905v131l729 1188h-701v139h877zM909 1911l-258 -314h-139l-256 314h141l185 -213l186 213h141z" />
    <glyph glyph-name="zcaron" unicode="&#x17e;" horiz-adv-x="940" 
d="M102 0v121l557 756h-526v131h701v-121l-560 -756h560v-131h-732zM799 1530l-256 -313h-140l-258 313h142l186 -215l184 215h142z" />
    <glyph glyph-name="longs" unicode="&#x17f;" horiz-adv-x="518" 
d="M549 1458v-127h-80q-137 0 -137 -147v-1184h-148v1188q0 118 67 194t191 76h107z" />
    <glyph glyph-name="uni018E" unicode="&#x18e;" horiz-adv-x="1228" 
d="M113 1458h905v-1458h-905v139h749v527h-639v139h639v514h-749v139z" />
    <glyph glyph-name="uni018F" unicode="&#x18f;" horiz-adv-x="1331" 
d="M666 1470q221 0 364 -143q35 -35 58.5 -68t40 -75t26 -81t14 -102t6 -120t1.5 -152t-1.5 -152t-6 -120t-14 -102t-26 -81t-40 -75t-58.5 -68q-143 -143 -364 -143q-113 0 -214 43.5t-176 124.5q-67 75 -95.5 161t-28.5 213v273h868q-3 192 -22 278t-80 148
q-99 102 -252 102q-136 0 -230 -78.5t-125 -218.5h-155q31 193 169 314.5t341 121.5zM1020 668h-713v-152q0 -161 82 -264q50 -60 123 -92.5t154 -32.5q153 0 252 102q62 62 81 151.5t21 287.5z" />
    <glyph glyph-name="florin" unicode="&#x192;" horiz-adv-x="825" 
d="M764 1462v-127h-102q-136 0 -162 -147l-70 -402h215v-110h-235l-199 -1127h-148l199 1127h-127v110h148l69 406q21 118 101 194t204 76h107z" />
    <glyph glyph-name="Ohorn" unicode="&#x1a0;" horiz-adv-x="1331" 
d="M1354 1522v-176q0 -112 -48.5 -166.5t-156.5 -55.5q17 -65 22 -152t5 -243q0 -113 -2.5 -179t-10 -134t-24 -112.5t-43.5 -87.5t-68 -85q-140 -143 -362 -143t-365 143q-41 41 -67.5 84.5t-42.5 87t-23.5 113t-9.5 134t-2 179.5t2 179.5t9.5 134t23.5 113t42.5 87
t67.5 84.5q143 143 365 143t362 -143q52 -52 74 -92h28q51 0 74 30.5t23 100.5v156h127zM666 1331q-153 0 -252 -102q-66 -68 -84.5 -166t-18.5 -334t18.5 -334t84.5 -166q99 -102 252 -102q150 0 252 102q66 67 84 165t18 335t-18 335t-84 165q-102 102 -252 102z" />
    <glyph glyph-name="ohorn" unicode="&#x1a1;" horiz-adv-x="1103" 
d="M1114 1067v-119q0 -106 -43 -159t-141 -60q24 -91 24 -225q0 -133 -26 -231.5t-97 -170.5q-111 -114 -288 -114q-178 0 -289 114q-71 72 -97 170.5t-26 231.5t26 231.5t97 169.5q112 115 289 115q176 0 288 -115q40 -40 56 -71h12q96 0 96 135v98h119zM543 889
q-111 0 -185 -74q-50 -50 -64.5 -125.5t-14.5 -185.5q0 -109 14.5 -184.5t64.5 -126.5q74 -74 185 -74q110 0 184 74q50 51 65 127t15 184q0 109 -15 185t-65 126q-74 74 -184 74z" />
    <glyph glyph-name="Uhorn" unicode="&#x1af;" horiz-adv-x="1443" 
d="M1481 1522v-176q0 -115 -50.5 -168.5t-166.5 -53.5h-56v-645q0 -217 -143.5 -354t-366.5 -137q-222 0 -365 137t-143 354v979h156v-964q0 -167 96 -267t256 -100q161 0 258 100t97 267v964h155v-223h47q52 0 75.5 30.5t23.5 100.5v156h127z" />
    <glyph glyph-name="uhorn" unicode="&#x1b0;" horiz-adv-x="1187" 
d="M1212 1067v-119q0 -114 -50 -166.5t-165 -52.5h-28v-729h-148v113q-107 -125 -284 -125q-164 0 -258 94q-105 102 -105 283v643h148v-621q0 -132 65 -200t182 -68t184.5 69.5t67.5 198.5v621h148v-174h28q97 0 97 135v98h118z" />
    <glyph glyph-name="uni01B5" unicode="&#x1b5;" horiz-adv-x="1138" 
d="M1022 1458v-131l-326 -530h197v-121h-275l-325 -537h729v-139h-905v131l334 545h-205v121h278l322 522h-701v139h877z" />
    <glyph glyph-name="uni01B6" unicode="&#x1b6;" horiz-adv-x="940" 
d="M102 0v127l244 326h-147v102h225l242 322h-533v131h701v-125l-244 -328h147v-102h-227l-240 -322h564v-131h-732z" />
    <glyph glyph-name="uni01CD" unicode="&#x1cd;" horiz-adv-x="1251" 
d="M692 1458l535 -1458h-166l-117 330h-637l-117 -330h-165l536 1458h131zM627 1237l-273 -772h543zM954 1911l-258 -314h-139l-256 314h141l185 -213l186 213h141z" />
    <glyph glyph-name="uni01CE" unicode="&#x1ce;" horiz-adv-x="1077" 
d="M500 1020q202 0 302.5 -85.5t100.5 -250.5v-684h-147v96q-60 -60 -125 -84t-166 -24q-105 0 -169 20.5t-116 71.5q-76 73 -76 205q0 135 92 212.5t259 77.5h301v97q0 112 -61 166.5t-197 54.5q-94 0 -151 -26.5t-103 -90.5l-101 92q64 85 146 118.5t211 33.5zM756 465
h-281q-227 0 -227 -178q0 -88 56 -130t177 -42q74 0 126.5 13t97.5 54q51 48 51 174v109zM844 1530l-256 -313h-139l-259 313h142l186 -215l184 215h142z" />
    <glyph glyph-name="uni01CF" unicode="&#x1cf;" horiz-adv-x="577" 
d="M367 1458v-1458h-156v1458h156zM614 1911l-258 -314h-139l-256 314h141l185 -213l186 213h141z" />
    <glyph glyph-name="uni01D0" unicode="&#x1d0;" horiz-adv-x="518" 
d="M586 1530l-256 -313h-140l-258 313h142l186 -215l184 215h142zM332 1008v-1008h-148v1008h148z" />
    <glyph glyph-name="uni01D1" unicode="&#x1d1;" horiz-adv-x="1331" 
d="M666 1470q219 0 362 -143q51 -51 80.5 -101.5t44.5 -126.5t19 -152.5t4 -217.5t-4 -217.5t-19 -152.5t-44.5 -126.5t-80.5 -101.5q-143 -143 -362 -143q-222 0 -365 143q-41 41 -67.5 84.5t-42.5 87t-23.5 113t-9.5 134t-2 179.5t2 179.5t9.5 134t23.5 113t42.5 87
t67.5 84.5q143 143 365 143zM666 1331q-150 0 -252 -102q-66 -68 -84.5 -166t-18.5 -334t18.5 -334t84.5 -166q102 -102 252 -102t252 102q66 67 84 165t18 335t-18 335t-84 165q-102 102 -252 102zM993 1911l-258 -314h-139l-256 314h141l185 -213l186 213h141z" />
    <glyph glyph-name="uni01D2" unicode="&#x1d2;" 
d="M543 1020q176 0 288 -115q71 -71 97 -169.5t26 -231.5t-26 -231.5t-97 -170.5q-111 -114 -288 -114q-178 0 -289 114q-71 72 -97 170.5t-26 231.5t26 231.5t97 169.5q112 115 289 115zM543 889q-109 0 -183 -74q-50 -50 -65.5 -126.5t-15.5 -184.5q0 -109 15 -184.5
t66 -126.5q74 -74 183 -74q110 0 184 74q50 51 65 127t15 184q0 109 -15 185t-65 126q-74 74 -184 74zM870 1530l-256 -313h-139l-258 313h141l187 -215l184 215h141z" />
    <glyph glyph-name="uni01D3" unicode="&#x1d3;" horiz-adv-x="1398" 
d="M1208 1458v-977q0 -217 -144 -355t-366 -138t-365 138t-143 355v977h156v-964q0 -166 96 -266.5t256 -100.5t257.5 100.5t97.5 266.5v964h155zM1028 1911l-258 -314h-139l-256 314h141l184 -213l187 213h141z" />
    <glyph glyph-name="uni01D4" unicode="&#x1d4;" horiz-adv-x="1153" 
d="M969 1008v-1008h-146v113q-110 -125 -284 -125q-166 0 -260 94q-105 102 -105 283v643h148v-621q0 -131 65.5 -199.5t181.5 -68.5q117 0 184.5 69.5t67.5 198.5v621h148zM899 1530l-256 -313h-139l-258 313h141l186 -215l185 215h141z" />
    <glyph glyph-name="uni01D5" unicode="&#x1d5;" horiz-adv-x="1398" 
d="M1010 2066v-116h-617v116h617zM1208 1458v-977q0 -217 -144 -355t-366 -138t-365 138t-143 355v977h156v-964q0 -166 96 -266.5t256 -100.5t257.5 100.5t97.5 266.5v964h155zM991 1798v-182h-147v182h147zM557 1798v-182h-147v182h147z" />
    <glyph glyph-name="uni01D6" unicode="&#x1d6;" horiz-adv-x="1153" 
d="M881 1688v-115h-617v115h617zM969 1008v-1008h-146v113q-110 -125 -284 -125q-166 0 -260 94q-105 102 -105 283v643h148v-621q0 -131 65.5 -199.5t181.5 -68.5q117 0 184.5 69.5t67.5 198.5v621h148zM862 1415v-182h-147v182h147zM428 1415v-182h-147v182h147z" />
    <glyph glyph-name="uni01D7" unicode="&#x1d7;" horiz-adv-x="1398" 
d="M975 2228l-215 -315h-142l187 315h170zM1208 1458v-977q0 -217 -144 -355t-366 -138t-365 138t-143 355v977h156v-964q0 -166 96 -266.5t256 -100.5t257.5 100.5t97.5 266.5v964h155zM991 1798v-182h-147v182h147zM557 1798v-182h-147v182h147z" />
    <glyph glyph-name="uni01D8" unicode="&#x1d8;" horiz-adv-x="1153" 
d="M864 1845l-215 -313h-141l186 313h170zM969 1008v-1008h-146v113q-110 -125 -284 -125q-166 0 -260 94q-105 102 -105 283v643h148v-621q0 -131 65.5 -199.5t181.5 -68.5q117 0 184.5 69.5t67.5 198.5v621h148zM862 1415v-182h-147v182h147zM428 1415v-182h-147v182h147z
" />
    <glyph glyph-name="uni01D9" unicode="&#x1d9;" horiz-adv-x="1398" 
d="M1028 2226l-258 -313h-139l-256 313h141l184 -213l187 213h141zM1208 1458v-977q0 -217 -144 -355t-366 -138t-365 138t-143 355v977h156v-964q0 -166 96 -266.5t256 -100.5t257.5 100.5t97.5 266.5v964h155zM991 1798v-182h-147v182h147zM557 1798v-182h-147v182h147z
" />
    <glyph glyph-name="uni01DA" unicode="&#x1da;" horiz-adv-x="1153" 
d="M899 1845l-256 -313h-139l-258 313h141l186 -215l185 215h141zM969 1008v-1008h-146v113q-110 -125 -284 -125q-166 0 -260 94q-105 102 -105 283v643h148v-621q0 -131 65.5 -199.5t181.5 -68.5q117 0 184.5 69.5t67.5 198.5v621h148zM862 1415v-182h-147v182h147z
M428 1415v-182h-147v182h147z" />
    <glyph glyph-name="uni01DB" unicode="&#x1db;" horiz-adv-x="1398" 
d="M598 2228l186 -315h-141l-215 315h170zM1208 1458v-977q0 -217 -144 -355t-366 -138t-365 138t-143 355v977h156v-964q0 -166 96 -266.5t256 -100.5t257.5 100.5t97.5 266.5v964h155zM991 1798v-182h-147v182h147zM557 1798v-182h-147v182h147z" />
    <glyph glyph-name="uni01DC" unicode="&#x1dc;" horiz-adv-x="1153" 
d="M455 1845l186 -313h-141l-215 313h170zM969 1008v-1008h-146v113q-110 -125 -284 -125q-166 0 -260 94q-105 102 -105 283v643h148v-621q0 -131 65.5 -199.5t181.5 -68.5q117 0 184.5 69.5t67.5 198.5v621h148zM862 1415v-182h-147v182h147zM428 1415v-182h-147v182h147z
" />
    <glyph glyph-name="uni01DD" unicode="&#x1dd;" 
d="M545 -12q-196 0 -305 130.5t-109 358.5v66h680q0 167 -76 257.5t-221 90.5q-85 0 -143.5 -26.5t-120.5 -88.5l-100 88q81 81 163.5 118.5t204.5 37.5q208 0 324 -128t116 -388q0 -245 -110 -380.5t-303 -135.5zM545 113q80 0 141 40t94 111q17 37 22.5 68t8.5 100h-535
q4 -50 6 -70.5t8.5 -46t18.5 -51.5q33 -70 94.5 -110.5t141.5 -40.5z" />
    <glyph glyph-name="uni01DE" unicode="&#x1de;" horiz-adv-x="1251" 
d="M936 2066v-116h-617v116h617zM692 1458l535 -1458h-166l-117 330h-637l-117 -330h-165l536 1458h131zM627 1237l-273 -772h543zM918 1798v-182h-148v182h148zM483 1798v-182h-147v182h147z" />
    <glyph glyph-name="uni01DF" unicode="&#x1df;" horiz-adv-x="1077" 
d="M825 1688v-115h-616v115h616zM500 1020q202 0 302.5 -85.5t100.5 -250.5v-684h-147v96q-60 -60 -125 -84t-166 -24q-105 0 -169 20.5t-116 71.5q-76 73 -76 205q0 135 92 212.5t259 77.5h301v97q0 112 -61 166.5t-197 54.5q-94 0 -151 -26.5t-103 -90.5l-101 92
q64 85 146 118.5t211 33.5zM756 465h-281q-227 0 -227 -178q0 -88 56 -130t177 -42q74 0 126.5 13t97.5 54q51 48 51 174v109zM807 1415v-182h-148v182h148zM373 1415v-182h-148v182h148z" />
    <glyph glyph-name="uni01E0" unicode="&#x1e0;" horiz-adv-x="1251" 
d="M936 2066v-116h-617v116h617zM692 1458l535 -1458h-166l-117 330h-637l-117 -330h-165l536 1458h131zM627 1237l-273 -772h543zM553 1616v182h147v-182h-147z" />
    <glyph glyph-name="uni01E1" unicode="&#x1e1;" horiz-adv-x="1077" 
d="M825 1688v-115h-616v115h616zM500 1020q202 0 302.5 -85.5t100.5 -250.5v-684h-147v96q-60 -60 -125 -84t-166 -24q-105 0 -169 20.5t-116 71.5q-76 73 -76 205q0 135 92 212.5t259 77.5h301v97q0 112 -61 166.5t-197 54.5q-94 0 -151 -26.5t-103 -90.5l-101 92
q64 85 146 118.5t211 33.5zM756 465h-281q-227 0 -227 -178q0 -88 56 -130t177 -42q74 0 126.5 13t97.5 54q51 48 51 174v109zM590 1415v-182h-148v182h148z" />
    <glyph glyph-name="uni01E2" unicode="&#x1e2;" horiz-adv-x="1898" 
d="M1786 1458v-139h-750v-514h639v-139h-639v-527h750v-139h-905v346h-506l-180 -346h-170l770 1458h991zM881 1319l-439 -838h439v838zM1616 1751v-117h-617v117h617z" />
    <glyph glyph-name="uni01E3" unicode="&#x1e3;" horiz-adv-x="1714" 
d="M1169 1020q194 0 304 -131t110 -359v-65h-682q0 -167 76.5 -257.5t222.5 -90.5q86 0 144 26t118 88l103 -88q-81 -81 -165 -118t-208 -37q-247 0 -358 174q-66 -96 -151 -135t-218 -39q-102 0 -167 20.5t-118 71.5q-76 73 -76 205q0 135 92 212.5t259 77.5h301v97
q0 112 -61 166.5t-197 54.5q-94 0 -151 -26.5t-103 -90.5l-101 92q64 85 146 118.5t211 33.5q269 0 354 -158q106 158 315 158zM756 465h-281q-227 0 -227 -178q0 -88 56 -130t177 -42q74 0 126.5 13t97.5 54q51 48 51 174v109zM1169 895q-82 0 -144.5 -40.5t-90.5 -111.5
q-17 -41 -22.5 -72t-10.5 -96h535q-3 65 -8.5 97.5t-22.5 70.5q-29 70 -92.5 111t-143.5 41zM1153 1372v-115h-616v115h616z" />
    <glyph glyph-name="Gcaron" unicode="&#x1e6;" horiz-adv-x="1331" 
d="M666 1470q202 0 340.5 -121.5t169.5 -314.5h-156q-31 140 -124.5 218.5t-229.5 78.5q-153 0 -252 -102q-66 -68 -84.5 -166t-18.5 -334t18.5 -334t84.5 -166q99 -102 252 -102q81 0 153.5 32t122.5 93q82 103 82 264v113h-358v133h514v-232q0 -128 -27.5 -212.5
t-97.5 -161.5q-152 -168 -389 -168q-222 0 -365 143q-41 41 -67.5 84.5t-42.5 87t-23.5 113t-9.5 134t-2 179.5t2 179.5t9.5 134t23.5 113t42.5 87t67.5 84.5q143 143 365 143zM993 1911l-258 -314h-139l-256 314h141l185 -213l186 213h141z" />
    <glyph glyph-name="gcaron" unicode="&#x1e7;" horiz-adv-x="1112" 
d="M500 1020q91 0 157.5 -28t124.5 -103v119h146v-1039q0 -191 -113 -311.5t-307 -120.5q-111 0 -185.5 30.5t-156.5 104.5l96 95q62 -55 111 -78t131 -23q139 0 207.5 85.5t68.5 223.5v158q-58 -74 -125.5 -102.5t-156.5 -28.5q-74 0 -138.5 24.5t-105.5 65.5
q-123 123 -123 420t123 420q40 40 105.5 64t140.5 24zM530 889q-63 0 -110 -22t-73.5 -56t-42 -86t-20.5 -101t-5 -112t5 -112t20.5 -101t42 -86t73.5 -56t110 -22t109.5 22t73 56t42 86t20.5 101t5 112t-5 112t-20.5 101t-42 86t-73 56t-109.5 22zM870 1530l-256 -313h-139
l-258 313h141l187 -215l184 215h141z" />
    <glyph glyph-name="uni01E8" unicode="&#x1e8;" horiz-adv-x="1333" 
d="M1237 1458l-459 -563l525 -895h-185l-444 776l-307 -370v-406h-156v1458h156v-840l682 840h188zM1036 1911l-258 -314h-139l-256 314h141l185 -213l186 213h141z" />
    <glyph glyph-name="uni01E9" unicode="&#x1e9;" horiz-adv-x="1097" 
d="M332 1458v-975l454 525h185l-342 -385l401 -623h-182l-320 516l-196 -225v-291h-148v1458h148zM586 1915l-256 -313h-140l-258 313h142l186 -215l184 215h142z" />
    <glyph glyph-name="uni01EA" unicode="&#x1ea;" horiz-adv-x="1331" 
d="M666 1470q219 0 362 -143q51 -51 80.5 -101.5t44.5 -126.5t19 -152.5t4 -217.5t-4 -217.5t-19 -152.5t-44.5 -126.5t-80.5 -101.5q-143 -143 -362 -143q-222 0 -365 143q-41 41 -67.5 84.5t-42.5 87t-23.5 113t-9.5 134t-2 179.5t2 179.5t9.5 134t23.5 113t42.5 87
t67.5 84.5q143 143 365 143zM666 1331q-150 0 -252 -102q-66 -68 -84.5 -166t-18.5 -334t18.5 -334t84.5 -166q102 -102 252 -102t252 102q66 67 84 165t18 335t-18 335t-84 165q-102 102 -252 102zM463 -442l145 301h129l-119 -301h-155z" />
    <glyph glyph-name="uni01EB" unicode="&#x1eb;" 
d="M543 1020q176 0 288 -115q71 -71 97 -169.5t26 -231.5t-26 -231.5t-97 -170.5q-111 -114 -288 -114q-178 0 -289 114q-71 72 -97 170.5t-26 231.5t26 231.5t97 169.5q112 115 289 115zM543 889q-109 0 -183 -74q-50 -50 -65.5 -126.5t-15.5 -184.5q0 -109 15 -184.5
t66 -126.5q74 -74 183 -74q110 0 184 74q50 51 65 127t15 184q0 109 -15 185t-65 126q-74 74 -184 74zM340 -442l145 301h131l-118 -301h-158z" />
    <glyph glyph-name="uni01EC" unicode="&#x1ec;" horiz-adv-x="1331" 
d="M975 1751v-117h-617v117h617zM666 1470q219 0 362 -143q51 -51 80.5 -101.5t44.5 -126.5t19 -152.5t4 -217.5t-4 -217.5t-19 -152.5t-44.5 -126.5t-80.5 -101.5q-143 -143 -362 -143q-222 0 -365 143q-41 41 -67.5 84.5t-42.5 87t-23.5 113t-9.5 134t-2 179.5t2 179.5
t9.5 134t23.5 113t42.5 87t67.5 84.5q143 143 365 143zM666 1331q-150 0 -252 -102q-66 -68 -84.5 -166t-18.5 -334t18.5 -334t84.5 -166q102 -102 252 -102t252 102q66 67 84 165t18 335t-18 335t-84 165q-102 102 -252 102zM463 -442l145 301h129l-119 -301h-155z" />
    <glyph glyph-name="uni01ED" unicode="&#x1ed;" 
d="M852 1372v-115h-616v115h616zM543 1020q176 0 288 -115q71 -71 97 -169.5t26 -231.5t-26 -231.5t-97 -170.5q-111 -114 -288 -114q-178 0 -289 114q-71 72 -97 170.5t-26 231.5t26 231.5t97 169.5q112 115 289 115zM543 889q-109 0 -183 -74q-50 -50 -65.5 -126.5
t-15.5 -184.5q0 -109 15 -184.5t66 -126.5q74 -74 183 -74q110 0 184 74q50 51 65 127t15 184q0 109 -15 185t-65 126q-74 74 -184 74zM340 -442l145 301h131l-118 -301h-158z" />
    <glyph glyph-name="uni01F0" unicode="&#x1f0;" horiz-adv-x="518" 
d="M332 1008v-1188q0 -122 -64.5 -196.5t-191.5 -74.5h-107v129h80q74 0 104.5 36t30.5 112v1182h148zM586 1530l-256 -313h-140l-258 313h142l186 -215l184 215h142z" />
    <glyph glyph-name="uni01F4" unicode="&#x1f4;" horiz-adv-x="1331" 
d="M666 1470q202 0 340.5 -121.5t169.5 -314.5h-156q-31 140 -124.5 218.5t-229.5 78.5q-153 0 -252 -102q-66 -68 -84.5 -166t-18.5 -334t18.5 -334t84.5 -166q99 -102 252 -102q81 0 153.5 32t122.5 93q82 103 82 264v113h-358v133h514v-232q0 -128 -27.5 -212.5
t-97.5 -161.5q-152 -168 -389 -168q-222 0 -365 143q-41 41 -67.5 84.5t-42.5 87t-23.5 113t-9.5 134t-2 179.5t2 179.5t9.5 134t23.5 113t42.5 87t67.5 84.5q143 143 365 143zM940 1913l-215 -316h-141l186 316h170z" />
    <glyph glyph-name="uni01F5" unicode="&#x1f5;" horiz-adv-x="1112" 
d="M500 1020q91 0 157.5 -28t124.5 -103v119h146v-1039q0 -191 -113 -311.5t-307 -120.5q-111 0 -185.5 30.5t-156.5 104.5l96 95q62 -55 111 -78t131 -23q139 0 207.5 85.5t68.5 223.5v158q-58 -74 -125.5 -102.5t-156.5 -28.5q-74 0 -138.5 24.5t-105.5 65.5
q-123 123 -123 420t123 420q40 40 105.5 64t140.5 24zM530 889q-63 0 -110 -22t-73.5 -56t-42 -86t-20.5 -101t-5 -112t5 -112t20.5 -101t42 -86t73.5 -56t110 -22t109.5 22t73 56t42 86t20.5 101t5 112t-5 112t-20.5 101t-42 86t-73 56t-109.5 22zM836 1530l-215 -313h-142
l187 313h170z" />
    <glyph glyph-name="uni01F8" unicode="&#x1f8;" horiz-adv-x="1499" 
d="M1288 1458v-1458h-147l-774 1169v-1169h-156v1458h147l775 -1165v1165h155zM647 1913l187 -316h-142l-215 316h170z" />
    <glyph glyph-name="uni01F9" unicode="&#x1f9;" horiz-adv-x="1153" 
d="M614 1020q166 0 260 -94q105 -102 105 -283v-643h-148v621q0 131 -65.5 199.5t-181.5 68.5q-117 0 -184.5 -69.5t-67.5 -198.5v-621h-148v1008h146v-113q110 125 284 125zM465 1530l186 -313h-141l-215 313h170z" />
    <glyph glyph-name="Aringacute" unicode="&#x1fa;" horiz-adv-x="1251" 
d="M627 1778q100 0 170.5 -70.5t70.5 -171.5q0 -68 -34.5 -125t-92.5 -88l486 -1323h-166l-117 330h-637l-117 -330h-165l485 1323q-57 31 -91 88t-34 125q0 100 71 171t171 71zM627 1675q-59 0 -100.5 -40.5t-41.5 -98.5t41.5 -99.5t100.5 -41.5t100 41.5t41 99.5t-41 98.5
t-100 40.5zM934 2200l-215 -316h-141l186 316h170zM627 1237l-273 -772h543z" />
    <glyph glyph-name="aringacute" unicode="&#x1fb;" horiz-adv-x="1077" 
d="M809 2015l-215 -313h-141l186 313h170zM500 1020q202 0 302.5 -85.5t100.5 -250.5v-684h-147v96q-60 -60 -125 -84t-166 -24q-105 0 -169 20.5t-116 71.5q-76 73 -76 205q0 135 92 212.5t259 77.5h301v97q0 112 -61 166.5t-197 54.5q-94 0 -151 -26.5t-103 -90.5l-101 92
q64 85 146 118.5t211 33.5zM756 465h-281q-227 0 -227 -178q0 -88 56 -130t177 -42q74 0 126.5 13t97.5 54q51 48 51 174v109zM516 1649q100 0 171 -70.5t71 -171.5q0 -100 -71 -172t-171 -72t-171 72t-71 172t71 171t171 71zM516 1546q-59 0 -100 -40.5t-41 -98.5
q0 -59 41.5 -100t99.5 -41t99.5 41t41.5 100q0 58 -41 98.5t-100 40.5z" />
    <glyph glyph-name="AEacute" unicode="&#x1fc;" horiz-adv-x="1898" 
d="M1786 1458v-139h-750v-514h639v-139h-639v-527h750v-139h-905v346h-506l-180 -346h-170l770 1458h991zM881 1319l-439 -838h439v838zM1581 1913l-215 -316h-141l186 316h170z" />
    <glyph glyph-name="aeacute" unicode="&#x1fd;" horiz-adv-x="1714" 
d="M1169 1020q194 0 304 -131t110 -359v-65h-682q0 -167 76.5 -257.5t222.5 -90.5q86 0 144 26t118 88l103 -88q-81 -81 -165 -118t-208 -37q-247 0 -358 174q-66 -96 -151 -135t-218 -39q-102 0 -167 20.5t-118 71.5q-76 73 -76 205q0 135 92 212.5t259 77.5h301v97
q0 112 -61 166.5t-197 54.5q-94 0 -151 -26.5t-103 -90.5l-101 92q64 85 146 118.5t211 33.5q269 0 354 -158q106 158 315 158zM756 465h-281q-227 0 -227 -178q0 -88 56 -130t177 -42q74 0 126.5 13t97.5 54q51 48 51 174v109zM1169 895q-82 0 -144.5 -40.5t-90.5 -111.5
q-17 -41 -22.5 -72t-10.5 -96h535q-3 65 -8.5 97.5t-22.5 70.5q-29 70 -92.5 111t-143.5 41zM1137 1530l-215 -313h-142l187 313h170z" />
    <glyph glyph-name="Oslashacute" unicode="&#x1fe;" horiz-adv-x="1331" 
d="M1176 729q0 -116 -2 -179t-9.5 -133t-23.5 -113t-43 -86.5t-70 -86.5q-143 -143 -362 -143q-144 0 -258 63l-68 -141h-133l102 213q-44 43 -72 87t-44.5 87.5t-24.5 114t-10 135.5t-2 182q0 115 2 179.5t9.5 134t23.5 113t42.5 87t67.5 84.5q143 143 365 143
q152 0 256 -63l69 141h133l-102 -215q37 -36 62.5 -70t43 -77.5t27 -81.5t14.5 -103t6 -120t1 -152zM311 729q0 -208 13.5 -305t58.5 -158l479 1008q-82 57 -196 57q-153 0 -252 -102q-66 -68 -84.5 -166t-18.5 -334zM1020 729q0 208 -13.5 304t-58.5 159l-479 -1008
q85 -57 197 -57q150 0 252 102q66 67 84 165t18 335zM940 1913l-215 -316h-141l186 316h170z" />
    <glyph glyph-name="oslashacute" unicode="&#x1ff;" 
d="M954 504q0 -133 -26 -231.5t-97 -170.5q-114 -114 -288 -114q-122 0 -215 55l-78 -133h-117l117 196q-68 71 -93.5 169t-25.5 229q0 132 26 230.5t97 170.5q115 115 289 115q122 0 215 -55l80 133h114l-116 -197q68 -71 93 -168.5t25 -228.5zM807 504q0 90 -9.5 156
t-39.5 116l-363 -612q64 -45 148 -45q110 0 184 74q50 50 65 126.5t15 184.5zM690 846q-61 43 -147 43q-109 0 -183 -74q-50 -50 -65.5 -127t-15.5 -184q0 -189 51 -273zM836 1530l-215 -313h-142l187 313h170z" />
    <glyph glyph-name="uni0200" unicode="&#x200;" horiz-adv-x="1251" 
d="M692 1458l535 -1458h-166l-117 330h-637l-117 -330h-165l536 1458h131zM627 1237l-273 -772h543zM719 1913l182 -314h-135l-221 314h174zM342 1913l182 -314h-133l-223 314h174z" />
    <glyph glyph-name="uni0201" unicode="&#x201;" horiz-adv-x="1077" 
d="M500 1020q202 0 302.5 -85.5t100.5 -250.5v-684h-147v96q-60 -60 -125 -84t-166 -24q-105 0 -169 20.5t-116 71.5q-76 73 -76 205q0 135 92 212.5t259 77.5h301v97q0 112 -61 166.5t-197 54.5q-94 0 -151 -26.5t-103 -90.5l-101 92q64 85 146 118.5t211 33.5zM756 465
h-281q-227 0 -227 -178q0 -88 56 -130t177 -42q74 0 126.5 13t97.5 54q51 48 51 174v109zM590 1530l182 -313h-135l-221 313h174zM213 1530l182 -313h-133l-223 313h174z" />
    <glyph glyph-name="uni0202" unicode="&#x202;" horiz-adv-x="1251" 
d="M692 1458l535 -1458h-166l-117 330h-637l-117 -330h-165l536 1458h131zM627 1237l-273 -772h543zM627 1882q313 0 338 -285h-115q-10 81 -69.5 125.5t-153.5 44.5q-95 0 -154.5 -44.5t-69.5 -125.5h-114q25 285 338 285z" />
    <glyph glyph-name="uni0203" unicode="&#x203;" horiz-adv-x="1077" 
d="M500 1020q202 0 302.5 -85.5t100.5 -250.5v-684h-147v96q-60 -60 -125 -84t-166 -24q-105 0 -169 20.5t-116 71.5q-76 73 -76 205q0 135 92 212.5t259 77.5h301v97q0 112 -61 166.5t-197 54.5q-94 0 -151 -26.5t-103 -90.5l-101 92q64 85 146 118.5t211 33.5zM756 465
h-281q-227 0 -227 -178q0 -88 56 -130t177 -42q74 0 126.5 13t97.5 54q51 48 51 174v109zM293 1217h-115q12 140 97 212t241 72t241 -72t97 -212h-115q-10 81 -69 125t-154 44t-154 -44t-69 -125z" />
    <glyph glyph-name="uni0204" unicode="&#x204;" horiz-adv-x="1228" 
d="M1116 1458v-139h-749v-514h639v-139h-639v-527h749v-139h-905v1458h905zM729 1913l182 -314h-135l-221 314h174zM352 1913l183 -314h-134l-223 314h174z" />
    <glyph glyph-name="uni0205" unicode="&#x205;" 
d="M543 1020q195 0 304 -130.5t109 -359.5v-65h-680q0 -167 76 -257.5t221 -90.5q86 0 144.5 26t120.5 88l100 -88q-81 -81 -164 -118t-205 -37q-208 0 -324 128t-116 388q0 244 110.5 380t303.5 136zM543 895q-80 0 -141.5 -40.5t-94.5 -111.5q-17 -37 -22.5 -68t-8.5 -100
h535q-4 50 -6 70.5t-8.5 46t-18.5 51.5q-33 71 -94 111.5t-141 40.5zM616 1530l183 -313h-135l-222 313h174zM240 1530l182 -313h-133l-223 313h174z" />
    <glyph glyph-name="uni0206" unicode="&#x206;" horiz-adv-x="1228" 
d="M1116 1458v-139h-749v-514h639v-139h-639v-527h749v-139h-905v1458h905zM637 1882q313 0 338 -285h-115q-10 81 -69.5 125.5t-153.5 44.5t-153.5 -44.5t-69.5 -125.5h-115q25 285 338 285z" />
    <glyph glyph-name="uni0207" unicode="&#x207;" 
d="M543 1020q195 0 304 -130.5t109 -359.5v-65h-680q0 -167 76 -257.5t221 -90.5q86 0 144.5 26t120.5 88l100 -88q-81 -81 -164 -118t-205 -37q-208 0 -324 128t-116 388q0 244 110.5 380t303.5 136zM543 895q-80 0 -141.5 -40.5t-94.5 -111.5q-17 -37 -22.5 -68t-8.5 -100
h535q-4 50 -6 70.5t-8.5 46t-18.5 51.5q-33 71 -94 111.5t-141 40.5zM319 1217h-114q12 140 97 212t241 72t241 -72t97 -212h-115q-10 81 -69 125t-154 44t-154.5 -44t-69.5 -125z" />
    <glyph glyph-name="uni0208" unicode="&#x208;" horiz-adv-x="577" 
d="M367 1458v-1458h-156v1458h156zM379 1913l182 -314h-135l-221 314h174zM2 1913l182 -314h-133l-223 314h174z" />
    <glyph glyph-name="uni0209" unicode="&#x209;" horiz-adv-x="518" 
d="M332 1530l182 -313h-135l-221 313h174zM-45 1530l182 -313h-133l-223 313h174zM332 1008v-1008h-148v1008h148z" />
    <glyph glyph-name="uni020A" unicode="&#x20a;" horiz-adv-x="577" 
d="M367 1458v-1458h-156v1458h156zM287 1882q313 0 338 -285h-115q-10 81 -69.5 125.5t-153.5 44.5q-95 0 -154.5 -44.5t-69.5 -125.5h-114q25 285 338 285z" />
    <glyph glyph-name="uni020B" unicode="&#x20b;" horiz-adv-x="518" 
d="M35 1217h-115q12 140 97 212t241 72t241 -72t97 -212h-115q-10 81 -69 125t-154 44t-154 -44t-69 -125zM332 1008v-1008h-148v1008h148z" />
    <glyph glyph-name="uni020C" unicode="&#x20c;" horiz-adv-x="1331" 
d="M666 1470q219 0 362 -143q51 -51 80.5 -101.5t44.5 -126.5t19 -152.5t4 -217.5t-4 -217.5t-19 -152.5t-44.5 -126.5t-80.5 -101.5q-143 -143 -362 -143q-222 0 -365 143q-41 41 -67.5 84.5t-42.5 87t-23.5 113t-9.5 134t-2 179.5t2 179.5t9.5 134t23.5 113t42.5 87
t67.5 84.5q143 143 365 143zM666 1331q-150 0 -252 -102q-66 -68 -84.5 -166t-18.5 -334t18.5 -334t84.5 -166q102 -102 252 -102t252 102q66 67 84 165t18 335t-18 335t-84 165q-102 102 -252 102zM758 1913l182 -314h-135l-221 314h174zM381 1913l182 -314h-133l-223 314
h174z" />
    <glyph glyph-name="uni020D" unicode="&#x20d;" 
d="M543 1020q176 0 288 -115q71 -71 97 -169.5t26 -231.5t-26 -231.5t-97 -170.5q-111 -114 -288 -114q-178 0 -289 114q-71 72 -97 170.5t-26 231.5t26 231.5t97 169.5q112 115 289 115zM543 889q-109 0 -183 -74q-50 -50 -65.5 -126.5t-15.5 -184.5q0 -109 15 -184.5
t66 -126.5q74 -74 183 -74q110 0 184 74q50 51 65 127t15 184q0 109 -15 185t-65 126q-74 74 -184 74zM616 1530l183 -313h-135l-222 313h174zM240 1530l182 -313h-133l-223 313h174z" />
    <glyph glyph-name="uni020E" unicode="&#x20e;" horiz-adv-x="1331" 
d="M666 1470q219 0 362 -143q51 -51 80.5 -101.5t44.5 -126.5t19 -152.5t4 -217.5t-4 -217.5t-19 -152.5t-44.5 -126.5t-80.5 -101.5q-143 -143 -362 -143q-222 0 -365 143q-41 41 -67.5 84.5t-42.5 87t-23.5 113t-9.5 134t-2 179.5t2 179.5t9.5 134t23.5 113t42.5 87
t67.5 84.5q143 143 365 143zM666 1331q-150 0 -252 -102q-66 -68 -84.5 -166t-18.5 -334t18.5 -334t84.5 -166q102 -102 252 -102t252 102q66 67 84 165t18 335t-18 335t-84 165q-102 102 -252 102zM666 1882q313 0 338 -285h-115q-10 81 -69.5 125.5t-153.5 44.5
q-95 0 -154.5 -44.5t-69.5 -125.5h-114q25 285 338 285z" />
    <glyph glyph-name="uni020F" unicode="&#x20f;" 
d="M543 1020q176 0 288 -115q71 -71 97 -169.5t26 -231.5t-26 -231.5t-97 -170.5q-111 -114 -288 -114q-178 0 -289 114q-71 72 -97 170.5t-26 231.5t26 231.5t97 169.5q112 115 289 115zM543 889q-109 0 -183 -74q-50 -50 -65.5 -126.5t-15.5 -184.5q0 -109 15 -184.5
t66 -126.5q74 -74 183 -74q110 0 184 74q50 51 65 127t15 184q0 109 -15 185t-65 126q-74 74 -184 74zM319 1217h-114q12 140 97 212t241 72t241 -72t97 -212h-115q-10 81 -69 125t-154 44t-154.5 -44t-69.5 -125z" />
    <glyph glyph-name="uni0210" unicode="&#x210;" horiz-adv-x="1343" 
d="M211 1458h559q193 0 312.5 -109t119.5 -296q0 -156 -86 -258.5t-231 -132.5l346 -662h-182l-332 647h-350v-647h-156v1458zM756 1319h-389v-535h389q132 0 211.5 68.5t79.5 198.5t-79.5 199t-211.5 69zM764 1913l182 -314h-135l-221 314h174zM387 1913l182 -314h-133
l-223 314h174z" />
    <glyph glyph-name="uni0211" unicode="&#x211;" horiz-adv-x="862" 
d="M614 1020q76 0 133 -21t109 -73l-108 -111q-42 42 -79.5 58t-95.5 16q-108 0 -174.5 -76.5t-66.5 -194.5v-618h-148v1008h148v-123q41 63 117.5 99t164.5 36zM508 1530l182 -313h-135l-221 313h174zM131 1530l182 -313h-133l-223 313h174z" />
    <glyph glyph-name="uni0212" unicode="&#x212;" horiz-adv-x="1343" 
d="M211 1458h559q193 0 312.5 -109t119.5 -296q0 -156 -86 -258.5t-231 -132.5l346 -662h-182l-332 647h-350v-647h-156v1458zM756 1319h-389v-535h389q132 0 211.5 68.5t79.5 198.5t-79.5 199t-211.5 69zM672 1882q313 0 338 -285h-115q-10 81 -69.5 125.5t-153.5 44.5
t-153.5 -44.5t-69.5 -125.5h-115q25 285 338 285z" />
    <glyph glyph-name="uni0213" unicode="&#x213;" horiz-adv-x="862" 
d="M614 1020q76 0 133 -21t109 -73l-108 -111q-42 42 -79.5 58t-95.5 16q-108 0 -174.5 -76.5t-66.5 -194.5v-618h-148v1008h148v-123q41 63 117.5 99t164.5 36zM211 1217h-115q12 140 97 212t241 72t241 -72t97 -212h-115q-10 81 -69 125t-154 44t-154 -44t-69 -125z" />
    <glyph glyph-name="uni0214" unicode="&#x214;" horiz-adv-x="1398" 
d="M1208 1458v-977q0 -217 -144 -355t-366 -138t-365 138t-143 355v977h156v-964q0 -166 96 -266.5t256 -100.5t257.5 100.5t97.5 266.5v964h155zM793 1913l182 -314h-135l-222 314h175zM416 1913l182 -314h-133l-223 314h174z" />
    <glyph glyph-name="uni0215" unicode="&#x215;" horiz-adv-x="1153" 
d="M969 1008v-1008h-146v113q-110 -125 -284 -125q-166 0 -260 94q-105 102 -105 283v643h148v-621q0 -131 65.5 -199.5t181.5 -68.5q117 0 184.5 69.5t67.5 198.5v621h148zM645 1530l182 -313h-135l-221 313h174zM268 1530l183 -313h-134l-223 313h174z" />
    <glyph glyph-name="uni0216" unicode="&#x216;" horiz-adv-x="1398" 
d="M1208 1458v-977q0 -217 -144 -355t-366 -138t-365 138t-143 355v977h156v-964q0 -166 96 -266.5t256 -100.5t257.5 100.5t97.5 266.5v964h155zM700 1882q313 0 338 -285h-114q-10 81 -69.5 125.5t-154.5 44.5q-94 0 -153.5 -44.5t-69.5 -125.5h-115q25 285 338 285z" />
    <glyph glyph-name="uni0217" unicode="&#x217;" horiz-adv-x="1153" 
d="M969 1008v-1008h-146v113q-110 -125 -284 -125q-166 0 -260 94q-105 102 -105 283v643h148v-621q0 -131 65.5 -199.5t181.5 -68.5q117 0 184.5 69.5t67.5 198.5v621h148zM348 1217h-115q12 140 97 212t241 72t241 -72t97 -212h-114q-10 81 -69.5 125t-154.5 44t-154 -44
t-69 -125z" />
    <glyph glyph-name="uni0218" unicode="&#x218;" horiz-adv-x="1204" 
d="M592 1470q138 0 238.5 -37.5t195.5 -121.5l-100 -101q-68 65 -148.5 96t-191.5 31q-146 0 -228 -73.5t-82 -198.5q0 -113 66 -170q65 -56 190 -76l170 -26q101 -15 158 -38t107 -67q123 -107 123 -287q0 -191 -137 -302t-367 -111q-163 0 -280 45t-218 147l105 105
q88 -88 179 -123t218 -35q162 0 254 71t92 199q0 120 -72 183q-33 30 -72 44.5t-118 26.5l-170 25q-169 27 -266 110q-113 101 -113 275q0 187 125.5 298t341.5 111zM389 -442l146 301h129l-119 -301h-156z" />
    <glyph glyph-name="uni0219" unicode="&#x219;" horiz-adv-x="1015" 
d="M504 1020q226 0 362 -109l-96 -96q-105 80 -268 80q-109 0 -167.5 -43.5t-58.5 -122.5q0 -67 43.5 -102.5t137.5 -44.5l157 -15q143 -13 220 -75t77 -197q0 -144 -111 -225.5t-298 -81.5q-133 0 -234 34t-180 111l98 98q110 -116 314 -116q128 0 198 45t70 133
q0 68 -40 104t-128 43l-166 15q-301 24 -301 270q0 136 103 215.5t268 79.5zM578 -137l-121 -305h-158l145 305h134z" />
    <glyph glyph-name="uni021A" unicode="&#x21a;" horiz-adv-x="1122" 
d="M1061 1458v-139h-422v-1319h-156v1319h-422v139h1000zM356 -442l146 301h129l-119 -301h-156z" />
    <glyph glyph-name="uni021B" unicode="&#x21b;" horiz-adv-x="679" 
d="M356 1317v-309h215v-113h-215v-621q0 -147 138 -147h77v-127h-104q-124 0 -191 76t-67 194v625h-127v113h127v309h147zM127 -442l145 305h136l-121 -305h-160z" />
    <glyph glyph-name="uni0226" unicode="&#x226;" horiz-adv-x="1251" 
d="M692 1458l535 -1458h-166l-117 330h-637l-117 -330h-165l536 1458h131zM627 1237l-273 -772h543zM553 1616v182h147v-182h-147z" />
    <glyph glyph-name="uni0227" unicode="&#x227;" horiz-adv-x="1077" 
d="M500 1020q202 0 302.5 -85.5t100.5 -250.5v-684h-147v96q-60 -60 -125 -84t-166 -24q-105 0 -169 20.5t-116 71.5q-76 73 -76 205q0 135 92 212.5t259 77.5h301v97q0 112 -61 166.5t-197 54.5q-94 0 -151 -26.5t-103 -90.5l-101 92q64 85 146 118.5t211 33.5zM756 465
h-281q-227 0 -227 -178q0 -88 56 -130t177 -42q74 0 126.5 13t97.5 54q51 48 51 174v109zM590 1415v-182h-148v182h148z" />
    <glyph glyph-name="uni0228" unicode="&#x228;" horiz-adv-x="1228" 
d="M1116 1458v-139h-749v-514h639v-139h-639v-527h749v-139h-905v1458h905zM440 -442l144 301h129l-119 -301h-154z" />
    <glyph glyph-name="uni0229" unicode="&#x229;" 
d="M543 1020q195 0 304 -130.5t109 -359.5v-65h-680q0 -167 76 -257.5t221 -90.5q86 0 144.5 26t120.5 88l100 -88q-81 -81 -164 -118t-205 -37q-208 0 -324 128t-116 388q0 244 110.5 380t303.5 136zM543 895q-80 0 -141.5 -40.5t-94.5 -111.5q-17 -37 -22.5 -68t-8.5 -100
h535q-4 50 -6 70.5t-8.5 46t-18.5 51.5q-33 71 -94 111.5t-141 40.5zM338 -442l145 305h135l-120 -305h-160z" />
    <glyph glyph-name="uni022A" unicode="&#x22a;" horiz-adv-x="1331" 
d="M975 2083v-117h-617v117h617zM666 1470q219 0 362 -143q51 -51 80.5 -101.5t44.5 -126.5t19 -152.5t4 -217.5t-4 -217.5t-19 -152.5t-44.5 -126.5t-80.5 -101.5q-143 -143 -362 -143q-222 0 -365 143q-41 41 -67.5 84.5t-42.5 87t-23.5 113t-9.5 134t-2 179.5t2 179.5
t9.5 134t23.5 113t42.5 87t67.5 84.5q143 143 365 143zM666 1331q-150 0 -252 -102q-66 -68 -84.5 -166t-18.5 -334t18.5 -334t84.5 -166q102 -102 252 -102t252 102q66 67 84 165t18 335t-18 335t-84 165q-102 102 -252 102zM956 1798v-182h-147v182h147zM522 1798v-182
h-147v182h147z" />
    <glyph glyph-name="uni022B" unicode="&#x22b;" 
d="M852 1688v-115h-616v115h616zM543 1020q176 0 288 -115q71 -71 97 -169.5t26 -231.5t-26 -231.5t-97 -170.5q-111 -114 -288 -114q-178 0 -289 114q-71 72 -97 170.5t-26 231.5t26 231.5t97 169.5q112 115 289 115zM543 889q-109 0 -183 -74q-50 -50 -65.5 -126.5
t-15.5 -184.5q0 -109 15 -184.5t66 -126.5q74 -74 183 -74q110 0 184 74q50 51 65 127t15 184q0 109 -15 185t-65 126q-74 74 -184 74zM834 1415v-182h-148v182h148zM399 1415v-182h-147v182h147z" />
    <glyph glyph-name="uni022C" unicode="&#x22c;" horiz-adv-x="1331" 
d="M975 2083v-117h-617v117h617zM666 1470q219 0 362 -143q51 -51 80.5 -101.5t44.5 -126.5t19 -152.5t4 -217.5t-4 -217.5t-19 -152.5t-44.5 -126.5t-80.5 -101.5q-143 -143 -362 -143q-222 0 -365 143q-41 41 -67.5 84.5t-42.5 87t-23.5 113t-9.5 134t-2 179.5t2 179.5
t9.5 134t23.5 113t42.5 87t67.5 84.5q143 143 365 143zM666 1331q-150 0 -252 -102q-66 -68 -84.5 -166t-18.5 -334t18.5 -334t84.5 -166q102 -102 252 -102t252 102q66 67 84 165t18 335t-18 335t-84 165q-102 102 -252 102zM535 1829q42 0 73 -11t72 -38q65 -41 115 -41
q28 0 53 11.5t67 53.5l76 -75q-64 -63 -107.5 -83t-86.5 -20q-67 0 -146 47q-73 43 -114 43q-30 0 -55 -12t-66 -53l-76 73q63 63 107.5 84t87.5 21z" />
    <glyph glyph-name="uni022D" unicode="&#x22d;" 
d="M852 1696v-115h-616v115h616zM543 1020q176 0 288 -115q71 -71 97 -169.5t26 -231.5t-26 -231.5t-97 -170.5q-111 -114 -288 -114q-178 0 -289 114q-71 72 -97 170.5t-26 231.5t26 231.5t97 169.5q112 115 289 115zM543 889q-109 0 -183 -74q-50 -50 -65.5 -126.5
t-15.5 -184.5q0 -109 15 -184.5t66 -126.5q74 -74 183 -74q110 0 184 74q50 51 65 127t15 184q0 109 -15 185t-65 126q-74 74 -184 74zM412 1446q42 0 73 -11t72 -38q71 -41 115 -41q29 0 54 11.5t67 53.5l75 -73q-62 -64 -106.5 -84.5t-87.5 -20.5q-63 0 -146 49
q-70 41 -114 41q-30 0 -54.5 -11.5t-66.5 -53.5l-76 73q64 64 107.5 84.5t87.5 20.5z" />
    <glyph glyph-name="uni022E" unicode="&#x22e;" horiz-adv-x="1331" 
d="M666 1470q219 0 362 -143q51 -51 80.5 -101.5t44.5 -126.5t19 -152.5t4 -217.5t-4 -217.5t-19 -152.5t-44.5 -126.5t-80.5 -101.5q-143 -143 -362 -143q-222 0 -365 143q-41 41 -67.5 84.5t-42.5 87t-23.5 113t-9.5 134t-2 179.5t2 179.5t9.5 134t23.5 113t42.5 87
t67.5 84.5q143 143 365 143zM666 1331q-150 0 -252 -102q-66 -68 -84.5 -166t-18.5 -334t18.5 -334t84.5 -166q102 -102 252 -102t252 102q66 67 84 165t18 335t-18 335t-84 165q-102 102 -252 102zM592 1616v182h147v-182h-147z" />
    <glyph glyph-name="uni022F" unicode="&#x22f;" 
d="M543 1020q176 0 288 -115q71 -71 97 -169.5t26 -231.5t-26 -231.5t-97 -170.5q-111 -114 -288 -114q-178 0 -289 114q-71 72 -97 170.5t-26 231.5t26 231.5t97 169.5q112 115 289 115zM543 889q-109 0 -183 -74q-50 -50 -65.5 -126.5t-15.5 -184.5q0 -109 15 -184.5
t66 -126.5q74 -74 183 -74q110 0 184 74q50 51 65 127t15 184q0 109 -15 185t-65 126q-74 74 -184 74zM616 1415v-182h-147v182h147z" />
    <glyph glyph-name="uni0230" unicode="&#x230;" horiz-adv-x="1331" 
d="M975 2083v-117h-617v117h617zM666 1470q219 0 362 -143q51 -51 80.5 -101.5t44.5 -126.5t19 -152.5t4 -217.5t-4 -217.5t-19 -152.5t-44.5 -126.5t-80.5 -101.5q-143 -143 -362 -143q-222 0 -365 143q-41 41 -67.5 84.5t-42.5 87t-23.5 113t-9.5 134t-2 179.5t2 179.5
t9.5 134t23.5 113t42.5 87t67.5 84.5q143 143 365 143zM666 1331q-150 0 -252 -102q-66 -68 -84.5 -166t-18.5 -334t18.5 -334t84.5 -166q102 -102 252 -102t252 102q66 67 84 165t18 335t-18 335t-84 165q-102 102 -252 102zM592 1616v182h147v-182h-147z" />
    <glyph glyph-name="uni0231" unicode="&#x231;" 
d="M852 1696v-115h-616v115h616zM543 1020q176 0 288 -115q71 -71 97 -169.5t26 -231.5t-26 -231.5t-97 -170.5q-111 -114 -288 -114q-178 0 -289 114q-71 72 -97 170.5t-26 231.5t26 231.5t97 169.5q112 115 289 115zM543 889q-109 0 -183 -74q-50 -50 -65.5 -126.5
t-15.5 -184.5q0 -109 15 -184.5t66 -126.5q74 -74 183 -74q110 0 184 74q50 51 65 127t15 184q0 109 -15 185t-65 126q-74 74 -184 74zM616 1415v-182h-147v182h147z" />
    <glyph glyph-name="uni0232" unicode="&#x232;" horiz-adv-x="1052" 
d="M1036 1458l-430 -856v-602h-155v602l-435 856h168l344 -698l340 698h168zM836 1751v-117h-617v117h617z" />
    <glyph glyph-name="uni0233" unicode="&#x233;" horiz-adv-x="915" 
d="M893 1008l-465 -1270q-29 -79 -72 -119q-73 -70 -196 -70h-64v132h45q74 0 107 26t59 98l78 215l-362 988h159l277 -809l274 809h160zM768 1372v-115h-616v115h616z" />
    <glyph glyph-name="uni0237" unicode="&#x237;" horiz-adv-x="518" 
d="M332 1008v-1188q0 -122 -64.5 -196.5t-191.5 -74.5h-107v129h80q74 0 104.5 36t30.5 112v1182h148z" />
    <glyph glyph-name="uni0259" unicode="&#x259;" horiz-adv-x="1089" 
d="M545 -12q-196 0 -305 130.5t-109 358.5v66h680q0 167 -76 257.5t-221 90.5q-85 0 -143.5 -26.5t-120.5 -88.5l-100 88q81 81 163.5 118.5t204.5 37.5q208 0 324 -128t116 -388q0 -245 -110 -380.5t-303 -135.5zM545 113q80 0 141 40t94 111q17 37 22.5 68t8.5 100h-535
q4 -50 6 -70.5t8.5 -46t18.5 -51.5q33 -70 94.5 -110.5t141.5 -40.5z" />
    <glyph glyph-name="uni02BB" unicode="&#x2bb;" horiz-adv-x="538" 
d="M358 1620v-356h-178v194z" />
    <glyph glyph-name="uni02BC" unicode="&#x2bc;" horiz-adv-x="538" 
d="M358 1458v-194l-178 -162v356h178z" />
    <glyph glyph-name="uni02C0" unicode="&#x2c0;" 
d="M436 1485v92q96 0 154.5 -55.5t58.5 -141.5t-58.5 -141t-154.5 -55v92q47 0 79 30t32 74t-32 74.5t-79 30.5z" />
    <glyph glyph-name="circumflex" unicode="&#x2c6;" 
d="M612 1530l258 -313h-141l-186 213l-185 -213h-141l256 313h139z" />
    <glyph glyph-name="caron" unicode="&#x2c7;" 
d="M870 1530l-256 -313h-139l-258 313h141l187 -215l184 215h141z" />
    <glyph glyph-name="breve" unicode="&#x2d8;" 
d="M766 1493h115q-25 -285 -338 -285t-338 285h114q10 -81 69.5 -125.5t154.5 -44.5q94 0 153.5 44.5t69.5 125.5z" />
    <glyph glyph-name="dotaccent" unicode="&#x2d9;" 
d="M616 1415v-182h-147v182h147z" />
    <glyph glyph-name="ring" unicode="&#x2da;" 
d="M543 1649q100 0 170.5 -70.5t70.5 -171.5q0 -100 -71 -172t-170 -72q-100 0 -171 72t-71 172t71 171t171 71zM543 1546q-59 0 -100.5 -40.5t-41.5 -98.5t41.5 -99.5t100.5 -41.5t100 41t41 100q0 58 -41 98.5t-100 40.5z" />
    <glyph glyph-name="ogonek" unicode="&#x2db;" 
d="M340 -442l145 301h131l-118 -301h-158z" />
    <glyph glyph-name="tilde" unicode="&#x2dc;" 
d="M412 1446q42 0 73 -11t72 -38q71 -41 115 -41q29 0 54 11.5t67 53.5l75 -73q-62 -64 -106.5 -84.5t-87.5 -20.5q-63 0 -146 49q-70 41 -114 41q-30 0 -54.5 -11.5t-66.5 -53.5l-76 73q64 64 107.5 84.5t87.5 20.5z" />
    <glyph glyph-name="hungarumlaut" unicode="&#x2dd;" 
d="M1004 1530l-224 -313h-133l182 313h175zM629 1530l-221 -313h-136l183 313h174z" />
    <glyph glyph-name="gravecomb" unicode="&#x300;" horiz-adv-x="2" 
d="M-6 1530l186 -313h-141l-215 313h170z" />
    <glyph glyph-name="acutecomb" unicode="&#x301;" horiz-adv-x="2" 
d="M180 1530l-215 -313h-141l186 313h170z" />
    <glyph glyph-name="uni0302" unicode="&#x302;" horiz-adv-x="2" 
d="M70 1530l258 -313h-142l-186 213l-184 -213h-142l256 313h140z" />
    <glyph glyph-name="tildecomb" unicode="&#x303;" horiz-adv-x="2" 
d="M-129 1446q42 0 73 -11t72 -38q71 -41 115 -41q29 0 54 11.5t67 53.5l76 -73q-62 -64 -107 -84.5t-88 -20.5q-39 0 -70.5 12t-74.5 37q-70 41 -115 41q-30 0 -54.5 -11.5t-66.5 -53.5l-76 73q64 64 107.5 84.5t87.5 20.5z" />
    <glyph glyph-name="uni0304" unicode="&#x304;" horiz-adv-x="2" 
d="M309 1372v-115h-616v115h616z" />
    <glyph glyph-name="uni0306" unicode="&#x306;" horiz-adv-x="2" 
d="M225 1493h115q-25 -285 -338 -285t-338 285h115q10 -81 69.5 -125.5t153.5 -44.5t153.5 44.5t69.5 125.5z" />
    <glyph glyph-name="uni0307" unicode="&#x307;" horiz-adv-x="2" 
d="M76 1415v-182h-148v182h148z" />
    <glyph glyph-name="uni0308" unicode="&#x308;" horiz-adv-x="2" 
d="M293 1415v-182h-148v182h148zM-141 1415v-182h-148v182h148z" />
    <glyph glyph-name="hookabovecomb" unicode="&#x309;" horiz-adv-x="2" 
d="M-104 1485v92q96 0 154.5 -55.5t58.5 -141.5t-58.5 -141t-154.5 -55v92q47 0 78.5 30t31.5 74t-31.5 74.5t-78.5 30.5z" />
    <glyph glyph-name="uni030A" unicode="&#x30a;" horiz-adv-x="2" 
d="M2 1649q100 0 171 -70.5t71 -171.5q0 -100 -71 -172t-171 -72t-171 72t-71 172t71 171t171 71zM2 1546q-59 0 -100 -40.5t-41 -98.5q0 -59 41.5 -100t99.5 -41t99.5 41t41.5 100q0 58 -41 98.5t-100 40.5z" />
    <glyph glyph-name="uni030B" unicode="&#x30b;" horiz-adv-x="2" 
d="M367 1530l-224 -313h-133l183 313h174zM-8 1530l-221 -313h-136l183 313h174z" />
    <glyph glyph-name="uni030C" unicode="&#x30c;" horiz-adv-x="2" 
d="M328 1530l-256 -313h-140l-258 313h142l186 -215l184 215h142z" />
    <glyph glyph-name="uni030F" unicode="&#x30f;" horiz-adv-x="2" 
d="M186 1530l183 -313h-136l-221 313h174zM-190 1530l182 -313h-133l-224 313h175z" />
    <glyph glyph-name="uni0310" unicode="&#x310;" horiz-adv-x="2" 
d="M225 1493h115q-25 -285 -338 -285t-338 285h115q10 -81 69.5 -125.5t153.5 -44.5t153.5 44.5t69.5 125.5zM78 1722v-182h-148v182h148z" />
    <glyph glyph-name="uni0311" unicode="&#x311;" horiz-adv-x="2" 
d="M-221 1217h-115q12 140 97 212t241 72t241 -72t97 -212h-115q-10 81 -69 125t-154 44t-154 -44t-69 -125z" />
    <glyph glyph-name="uni0312" unicode="&#x312;" horiz-adv-x="2" 
d="M141 1522l-145 -305h-135l119 305h161z" />
    <glyph glyph-name="uni0313" unicode="&#x313;" horiz-adv-x="2" 
d="M113 1473l-105 -312h-119l80 312h144z" />
    <glyph glyph-name="uni0316" unicode="&#x316;" horiz-adv-x="2" 
d="M-6 -137l186 -314h-141l-215 314h170z" />
    <glyph glyph-name="uni0317" unicode="&#x317;" horiz-adv-x="2" 
d="M180 -141l-215 -314h-141l186 314h170z" />
    <glyph glyph-name="uni031B" unicode="&#x31b;" horiz-adv-x="2" 
d="M129 1067v-119q0 -114 -49.5 -166.5t-163.5 -52.5h-43v105h41q49 0 72.5 31.5t23.5 103.5v98h119z" />
    <glyph glyph-name="uni031C" unicode="&#x31c;" horiz-adv-x="2" 
d="M109 -76v-92q-47 0 -79 -30t-32 -74t32 -74.5t79 -30.5v-92q-96 0 -154.5 55.5t-58.5 141.5t58.5 141t154.5 55z" />
    <glyph glyph-name="dotbelowcomb" unicode="&#x323;" horiz-adv-x="2" 
d="M76 -160v-182h-148v182h148z" />
    <glyph glyph-name="uni0324" unicode="&#x324;" horiz-adv-x="2" 
d="M293 -158v-182h-148v182h148zM-141 -158v-182h-148v182h148z" />
    <glyph glyph-name="uni0325" unicode="&#x325;" horiz-adv-x="2" 
d="M2 -76q100 0 171 -70t71 -171q0 -100 -71 -172t-171 -72t-171 72t-71 172t71 170.5t171 70.5zM2 -178q-59 0 -100 -40.5t-41 -98.5q0 -59 41.5 -100.5t99.5 -41.5t99.5 41.5t41.5 100.5q0 58 -41 98.5t-100 40.5z" />
    <glyph glyph-name="uni0326" unicode="&#x326;" horiz-adv-x="2" 
d="M141 -137l-121 -305h-157l145 305h133z" />
    <glyph glyph-name="uni0327" unicode="&#x327;" horiz-adv-x="2" 
d="M-139 -442l145 305h135l-121 -305h-159z" />
    <glyph glyph-name="uni0328" unicode="&#x328;" horiz-adv-x="2" 
d="M-137 -442l145 301h131l-119 -301h-157z" />
    <glyph glyph-name="uni032C" unicode="&#x32c;" horiz-adv-x="2" 
d="M328 -137l-256 -314h-140l-258 314h142l186 -215l184 215h142z" />
    <glyph glyph-name="uni032D" unicode="&#x32d;" horiz-adv-x="2" 
d="M70 -139l258 -314h-142l-186 213l-184 -213h-142l256 314h140z" />
    <glyph glyph-name="uni032E" unicode="&#x32e;" horiz-adv-x="2" 
d="M225 -137h115q-25 -285 -338 -285t-338 285h115q10 -81 69.5 -125.5t153.5 -44.5t153.5 44.5t69.5 125.5z" />
    <glyph glyph-name="uni032F" unicode="&#x32f;" horiz-adv-x="2" 
d="M-221 -416h-115q25 285 338 285t338 -285h-115q-10 81 -69.5 125.5t-153.5 44.5t-153.5 -44.5t-69.5 -125.5z" />
    <glyph glyph-name="uni0330" unicode="&#x330;" horiz-adv-x="2" 
d="M-129 -162q42 0 73 -11t72 -38q71 -41 115 -41q29 0 54 12t67 54l76 -74q-62 -64 -107 -84.5t-88 -20.5q-39 0 -70 12t-75 38q-70 41 -115 41q-30 0 -54.5 -12t-66.5 -54l-76 74q64 64 107.5 84t87.5 20z" />
    <glyph glyph-name="uni0331" unicode="&#x331;" horiz-adv-x="2" 
d="M309 -193v-114h-616v114h616z" />
    <glyph glyph-name="uni0340" unicode="&#x340;" horiz-adv-x="2" 
d="M-27 1694l228 -316h-142l-256 316h170z" />
    <glyph glyph-name="uni0341" unicode="&#x341;" horiz-adv-x="2" 
d="M180 1694l-215 -314h-141l186 314h170z" />
    <glyph glyph-name="uni037E" unicode="&#x37e;" horiz-adv-x="608" 
d="M420 180v-313l-180 -162v475h180zM428 809v-193h-192v193h192z" />
    <glyph glyph-name="tonos" unicode="&#x384;" 
d="M616 1458v-203l-147 -77v280h147z" />
    <glyph glyph-name="dieresistonos" unicode="&#x385;" 
d="M616 1458v-203l-147 -77v280h147zM373 1386v-182h-148v182h148zM860 1386v-182h-147v182h147z" />
    <glyph glyph-name="Alphatonos" unicode="&#x386;" horiz-adv-x="1251" 
d="M692 1458l535 -1458h-166l-117 330h-637l-117 -330h-165l536 1458h131zM627 1237l-273 -772h543zM158 1458v-203l-148 -77v280h148z" />
    <glyph glyph-name="anoteleia" unicode="&#x387;" horiz-adv-x="552" 
d="M373 649v-192h-193v192h193z" />
    <glyph glyph-name="Epsilontonos" unicode="&#x388;" horiz-adv-x="1228" 
d="M1116 1458v-139h-749v-514h639v-139h-639v-527h749v-139h-905v1458h905zM37 1458v-203l-148 -77v280h148z" />
    <glyph glyph-name="Etatonos" unicode="&#x389;" horiz-adv-x="1425" 
d="M1214 1458v-1458h-155v666h-692v-666h-156v1458h156v-653h692v653h155zM37 1458v-203l-148 -77v280h148z" />
    <glyph glyph-name="Iotatonos" unicode="&#x38a;" horiz-adv-x="577" 
d="M367 1458v-1458h-156v1458h156zM37 1458v-203l-148 -77v280h148z" />
    <glyph glyph-name="Omicrontonos" unicode="&#x38c;" horiz-adv-x="1331" 
d="M666 1470q219 0 362 -143q51 -51 80.5 -101.5t44.5 -126.5t19 -152.5t4 -217.5t-4 -217.5t-19 -152.5t-44.5 -126.5t-80.5 -101.5q-143 -143 -362 -143q-222 0 -365 143q-41 41 -67.5 84.5t-42.5 87t-23.5 113t-9.5 134t-2 179.5t2 179.5t9.5 134t23.5 113t42.5 87
t67.5 84.5q143 143 365 143zM666 1331q-150 0 -252 -102q-66 -68 -84.5 -166t-18.5 -334t18.5 -334t84.5 -166q102 -102 252 -102t252 102q66 67 84 165t18 335t-18 335t-84 165q-102 102 -252 102zM78 1458v-203l-148 -77v280h148z" />
    <glyph glyph-name="Upsilontonos" unicode="&#x38e;" horiz-adv-x="1052" 
d="M1036 1458l-430 -856v-602h-155v602l-435 856h168l344 -698l340 698h168zM-66 1458v-203l-147 -77v280h147z" />
    <glyph glyph-name="Omegatonos" unicode="&#x38f;" horiz-adv-x="1331" 
d="M666 1331q-153 0 -252 -102q-66 -68 -84.5 -166t-18.5 -334q0 -187 11.5 -287.5t44.5 -154.5q34 -55 77.5 -90t110.5 -66v-131h-399v139h170q-77 63 -115 135q-35 70 -45 170.5t-10 284.5q0 115 2 179.5t9.5 134t23.5 113t42.5 87t67.5 84.5q143 143 365 143
q221 0 364 -143q35 -35 58.5 -68t40 -75t26 -81t14 -102t6 -120t1.5 -152q0 -182 -10.5 -283t-45.5 -172q-39 -74 -114 -135h170v-139h-400v131q67 31 111 66.5t78 89.5q33 54 44 153.5t11 288.5q0 237 -18 335t-84 165q-99 102 -252 102zM74 1458v-203l-148 -77v280h148z
" />
    <glyph glyph-name="iotadieresistonos" unicode="&#x390;" horiz-adv-x="608" 
d="M328 1008v-734q0 -76 30.5 -111.5t104.5 -35.5h80v-127h-107q-127 0 -191.5 73.5t-64.5 194.5v740h148zM328 1458v-203l-148 -77v280h148zM84 1386v-182h-147v182h147zM571 1386v-182h-147v182h147z" />
    <glyph glyph-name="Alpha" unicode="&#x391;" horiz-adv-x="1251" 
d="M692 1458l535 -1458h-166l-117 330h-637l-117 -330h-165l536 1458h131zM627 1237l-273 -772h543z" />
    <glyph glyph-name="Beta" unicode="&#x392;" horiz-adv-x="1368" 
d="M211 1458h549q193 0 311.5 -104.5t118.5 -284.5q0 -113 -60 -198.5t-155 -120.5q108 -40 172.5 -130t64.5 -217q0 -194 -118 -298.5t-316 -104.5h-567v1458zM764 674h-397v-535h397q135 0 214 73t79 196t-79 194.5t-214 71.5zM748 1319h-381v-506h381q128 0 207 64.5
t79 189.5t-79 188.5t-207 63.5z" />
    <glyph glyph-name="Gamma" unicode="&#x393;" horiz-adv-x="1148" 
d="M1087 1458v-139h-720v-1319h-156v1458h876z" />
    <glyph glyph-name="uni0394" unicode="&#x394;" horiz-adv-x="1249" 
d="M25 0l534 1458h129l537 -1458h-1200zM227 135h795l-399 1102z" />
    <glyph glyph-name="Epsilon" unicode="&#x395;" horiz-adv-x="1228" 
d="M1116 1458v-139h-749v-514h639v-139h-639v-527h749v-139h-905v1458h905z" />
    <glyph glyph-name="Zeta" unicode="&#x396;" horiz-adv-x="1138" 
d="M1022 1458v-131l-729 -1188h729v-139h-905v131l729 1188h-701v139h877z" />
    <glyph glyph-name="Eta" unicode="&#x397;" horiz-adv-x="1425" 
d="M1214 1458v-1458h-155v666h-692v-666h-156v1458h156v-653h692v653h155z" />
    <glyph glyph-name="Theta" unicode="&#x398;" horiz-adv-x="1331" 
d="M666 -12q-222 0 -365 143q-41 41 -67.5 84.5t-42.5 87t-23.5 113t-9.5 134t-2 179.5t2 179.5t9.5 134t23.5 113t42.5 87t67.5 84.5q143 143 365 143q219 0 362 -143q51 -51 80.5 -101.5t44.5 -126.5t19 -152.5t4 -217.5t-4 -217.5t-19 -152.5t-44.5 -126.5t-80.5 -101.5
q-143 -143 -362 -143zM666 127q150 0 252 102q62 64 81 152t21 285h-709q2 -197 21.5 -285t81.5 -152q102 -102 252 -102zM311 805h709q-2 188 -21.5 274.5t-80.5 149.5q-102 102 -252 102t-252 -102q-61 -63 -81 -150t-22 -274z" />
    <glyph glyph-name="Iota" unicode="&#x399;" horiz-adv-x="577" 
d="M367 1458v-1458h-156v1458h156z" />
    <glyph glyph-name="Kappa" unicode="&#x39a;" horiz-adv-x="1333" 
d="M1237 1458l-459 -563l525 -895h-185l-444 776l-307 -370v-406h-156v1458h156v-840l682 840h188z" />
    <glyph glyph-name="Lambda" unicode="&#x39b;" horiz-adv-x="1134" 
d="M25 0l479 1458h127l479 -1458h-164l-379 1180l-379 -1180h-163z" />
    <glyph glyph-name="Mu" unicode="&#x39c;" horiz-adv-x="1671" 
d="M1460 1458v-1458h-155v1108l-400 -879h-133l-405 879v-1108h-156v1458h156l475 -1034l463 1034h155z" />
    <glyph glyph-name="Nu" unicode="&#x39d;" horiz-adv-x="1499" 
d="M1288 1458v-1458h-147l-774 1169v-1169h-156v1458h147l775 -1165v1165h155z" />
    <glyph glyph-name="Xi" unicode="&#x39e;" horiz-adv-x="1171" 
d="M1059 1458v-139h-395v-514h284v-139h-284v-527h395v-139h-946v139h395v527h-285v139h285v514h-395v139h946z" />
    <glyph glyph-name="Omicron" unicode="&#x39f;" horiz-adv-x="1331" 
d="M666 1470q219 0 362 -143q51 -51 80.5 -101.5t44.5 -126.5t19 -152.5t4 -217.5t-4 -217.5t-19 -152.5t-44.5 -126.5t-80.5 -101.5q-143 -143 -362 -143q-222 0 -365 143q-41 41 -67.5 84.5t-42.5 87t-23.5 113t-9.5 134t-2 179.5t2 179.5t9.5 134t23.5 113t42.5 87
t67.5 84.5q143 143 365 143zM666 1331q-150 0 -252 -102q-66 -68 -84.5 -166t-18.5 -334t18.5 -334t84.5 -166q102 -102 252 -102t252 102q66 67 84 165t18 335t-18 335t-84 165q-102 102 -252 102z" />
    <glyph glyph-name="Pi" unicode="&#x3a0;" horiz-adv-x="1404" 
d="M1194 1458v-1458h-156v1319h-671v-1319h-156v1458h983z" />
    <glyph glyph-name="Rho" unicode="&#x3a1;" horiz-adv-x="1290" 
d="M211 1458h543q200 0 325 -117.5t125 -310.5q0 -194 -125.5 -312t-324.5 -118h-387v-600h-156v1458zM741 1319h-374v-580h374q141 0 224.5 75t83.5 216t-83.5 215t-224.5 74z" />
    <glyph glyph-name="Sigma" unicode="&#x3a3;" horiz-adv-x="1138" 
d="M1022 1458v-139h-709l367 -543l-389 -637h731v-139h-905v131l389 641l-373 557v129h889z" />
    <glyph glyph-name="Tau" unicode="&#x3a4;" horiz-adv-x="1122" 
d="M1061 1458v-139h-422v-1319h-156v1319h-422v139h1000z" />
    <glyph glyph-name="Upsilon" unicode="&#x3a5;" horiz-adv-x="1052" 
d="M1036 1458l-430 -856v-602h-155v602l-435 856h168l344 -698l340 698h168z" />
    <glyph glyph-name="Phi" unicode="&#x3a6;" horiz-adv-x="1492" 
d="M825 1458v-110q128 0 227 -37t185 -123q81 -80 106 -189.5t25 -261.5q0 -72 -4 -123.5t-16 -114t-40 -116t-71 -96.5q-86 -86 -185 -123t-227 -37v-127h-155v127q-129 0 -228 36.5t-186 123.5q-43 43 -71 96.5t-40 116t-16 114t-4 123.5q0 152 25 261.5t106 189.5
q87 87 186 123.5t228 36.5v110h155zM670 266v942q-94 0 -165 -25t-130 -85q-59 -62 -76.5 -150.5t-17.5 -210.5q0 -120 17.5 -208t76.5 -150t130 -87.5t165 -25.5zM825 1208v-942q94 0 164 25.5t131 87.5q59 62 76.5 150t17.5 208q0 122 -17.5 210.5t-76.5 150.5
q-61 61 -131 85.5t-164 24.5z" />
    <glyph glyph-name="Chi" unicode="&#x3a7;" horiz-adv-x="1128" 
d="M1067 1458l-420 -710l451 -748h-180l-355 612l-356 -612h-176l446 748l-418 710h181l323 -575l324 575h180z" />
    <glyph glyph-name="Psi" unicode="&#x3a8;" horiz-adv-x="1458" 
d="M1317 1458v-647q0 -214 -137 -354q-141 -141 -373 -150v-307h-156v307q-234 9 -372 150t-138 354v647h156v-647q0 -162 100 -262q95 -95 254 -105v1014h156v-1014q159 10 254 105q100 100 100 262v647h156z" />
    <glyph glyph-name="uni03A9" unicode="&#x3a9;" horiz-adv-x="1331" 
d="M666 1331q-153 0 -252 -102q-66 -68 -84.5 -166t-18.5 -334q0 -187 11.5 -287.5t44.5 -154.5q34 -55 77.5 -90t110.5 -66v-131h-399v139h170q-77 63 -115 135q-35 70 -45 170.5t-10 284.5q0 115 2 179.5t9.5 134t23.5 113t42.5 87t67.5 84.5q143 143 365 143
q221 0 364 -143q35 -35 58.5 -68t40 -75t26 -81t14 -102t6 -120t1.5 -152q0 -182 -10.5 -283t-45.5 -172q-39 -74 -114 -135h170v-139h-400v131q67 31 111 66.5t78 89.5q33 54 44 153.5t11 288.5q0 237 -18 335t-84 165q-99 102 -252 102z" />
    <glyph glyph-name="Iotadieresis" unicode="&#x3aa;" horiz-adv-x="577" 
d="M367 1458v-1458h-156v1458h156zM578 1798v-182h-148v182h148zM143 1798v-182h-147v182h147z" />
    <glyph glyph-name="Upsilondieresis" unicode="&#x3ab;" horiz-adv-x="1052" 
d="M1036 1458l-430 -856v-602h-155v602l-435 856h168l344 -698l340 698h168zM817 1798v-182h-147v182h147zM383 1798v-182h-147v182h147z" />
    <glyph glyph-name="alphatonos" unicode="&#x3ac;" horiz-adv-x="1116" 
d="M500 1020q91 0 158.5 -28.5t127.5 -102.5v119h146v-1008h-146v121q-60 -75 -127.5 -104t-158.5 -29q-76 0 -140.5 23.5t-105.5 64.5q-123 125 -123 428q0 305 123 428q41 41 105.5 64.5t140.5 23.5zM530 889q-63 0 -110 -22t-73.5 -56t-42 -87t-20.5 -103.5t-5 -116.5
t5 -116.5t20.5 -103.5t42 -87t73.5 -56t110 -22q64 0 111 22t74 56t43 87t21 103.5t5 116.5t-5 116.5t-21 103.5t-43 87t-74 56t-111 22zM594 1458v-203l-148 -77v280h148z" />
    <glyph glyph-name="epsilontonos" unicode="&#x3ad;" horiz-adv-x="1021" 
d="M524 1020q257 0 402 -152l-97 -94q-115 121 -303 121q-92 0 -154.5 -43.5t-62.5 -124.5q0 -75 48.5 -114.5t138.5 -39.5h168v-116h-175q-99 0 -151.5 -46t-52.5 -126t65 -125t162 -45q109 0 182 27t140 94l94 -95q-83 -83 -179.5 -118t-236.5 -35q-105 0 -188.5 30.5
t-135 96t-51.5 157.5q0 91 46 153t126 91q-147 64 -147 221q0 128 103 205.5t259 77.5zM612 1458v-203l-147 -77v280h147z" />
    <glyph glyph-name="etatonos" unicode="&#x3ae;" horiz-adv-x="1153" 
d="M655 1458v-203l-147 -77v280h147zM614 1016q166 0 260 -94q105 -102 105 -283v-643h-148v620q0 131 -65.5 200t-181.5 69t-184 -69.5t-68 -199.5v-620h-148v1008h146v-113q110 125 284 125z" />
    <glyph glyph-name="iotatonos" unicode="&#x3af;" horiz-adv-x="608" 
d="M328 1008v-734q0 -76 30.5 -111.5t104.5 -35.5h80v-127h-107q-127 0 -191.5 73.5t-64.5 194.5v740h148zM328 1458v-203l-148 -77v280h148z" />
    <glyph glyph-name="upsilondieresistonos" unicode="&#x3b0;" horiz-adv-x="1142" 
d="M969 1008v-633q0 -180 -107 -287q-100 -100 -293 -100q-190 0 -290 100q-105 105 -105 287v633h148v-605q0 -141 62.5 -212.5t184.5 -71.5q123 0 187.5 72.5t64.5 211.5v605h148zM645 1458v-203l-147 -77v280h147zM401 1386v-182h-147v182h147zM889 1386v-182h-148v182
h148z" />
    <glyph glyph-name="alpha" unicode="&#x3b1;" horiz-adv-x="1116" 
d="M500 1020q91 0 158.5 -28.5t127.5 -102.5v119h146v-1008h-146v121q-60 -75 -127.5 -104t-158.5 -29q-76 0 -140.5 23.5t-105.5 64.5q-123 125 -123 428q0 305 123 428q41 41 105.5 64.5t140.5 23.5zM530 889q-63 0 -110 -22t-73.5 -56t-42 -87t-20.5 -103.5t-5 -116.5
t5 -116.5t20.5 -103.5t42 -87t73.5 -56t110 -22q64 0 111 22t74 56t43 87t21 103.5t5 116.5t-5 116.5t-21 103.5t-43 87t-74 56t-111 22z" />
    <glyph glyph-name="beta" unicode="&#x3b2;" horiz-adv-x="1161" 
d="M573 1470q179 0 283.5 -90t104.5 -262q0 -124 -53 -211.5t-154 -115.5q280 -69 280 -385q0 -186 -113.5 -302t-299.5 -116q-85 0 -165 35.5t-126 93.5v-117h-146v1102q0 163 108.5 265.5t280.5 102.5zM573 1341q-112 0 -176.5 -67.5t-64.5 -194.5v-688q0 -137 74 -204.5
t200 -67.5q136 0 208.5 77t72.5 205q0 171 -80 245.5t-250 74.5h-86v123h92q250 0 250 262q0 116 -62 175.5t-178 59.5z" />
    <glyph glyph-name="gamma" unicode="&#x3b3;" horiz-adv-x="915" 
d="M891 1008l-359 -998v-461h-147v461l-360 998h157l277 -820l274 820h158z" />
    <glyph glyph-name="delta" unicode="&#x3b4;" 
d="M854 1458v-127h-436l321 -330q121 -124 168 -240.5t47 -260.5q0 -131 -26 -229t-97 -169q-111 -114 -288 -114q-178 0 -289 114q-71 71 -97 169t-26 229q0 247 121 368q105 105 264 105q47 0 94 -17l-368 375v127h612zM543 858q-109 0 -185 -76q-50 -50 -64.5 -119
t-14.5 -163q0 -107 14.5 -182t64.5 -125q74 -74 185 -74q110 0 184 74q50 50 65 125.5t15 181.5q0 94 -15 163t-65 119q-76 76 -184 76z" />
    <glyph glyph-name="epsilon" unicode="&#x3b5;" horiz-adv-x="1021" 
d="M524 1020q257 0 402 -152l-97 -94q-115 121 -303 121q-92 0 -154.5 -43.5t-62.5 -124.5q0 -75 48.5 -114.5t138.5 -39.5h168v-116h-175q-99 0 -151.5 -46t-52.5 -126t65 -125t162 -45q109 0 182 27t140 94l94 -95q-83 -83 -179.5 -118t-236.5 -35q-105 0 -188.5 30.5
t-135 96t-51.5 157.5q0 91 46 153t126 91q-147 64 -147 221q0 128 103 205.5t259 77.5z" />
    <glyph glyph-name="zeta" unicode="&#x3b6;" horiz-adv-x="940" 
d="M819 -297h-131q5 31 16 120.5t11 110.5q0 41 -24 53.5t-75 12.5h-170q-344 0 -344 258q0 104 59 187.5t161 166.5l325 265h-491v131h698v-127l-426 -349q-90 -71 -134 -133.5t-44 -136.5q0 -70 51 -100.5t154 -30.5h194q45 0 78.5 -5.5t64 -20.5t46.5 -45.5t16 -75.5
q0 -23 -6 -74t-17.5 -128t-11.5 -79z" />
    <glyph glyph-name="eta" unicode="&#x3b7;" horiz-adv-x="1153" 
d="M614 1020q166 0 260 -94q105 -102 105 -283v-643h-148v621q0 131 -65.5 199.5t-181.5 68.5q-117 0 -184.5 -69.5t-67.5 -198.5v-621h-148v1008h146v-113q110 125 284 125z" />
    <glyph glyph-name="theta" unicode="&#x3b8;" horiz-adv-x="1110" 
d="M555 -12q-173 0 -285 118q-39 39 -66 97.5t-40 111.5t-20 137t-8 134t-1 143t1 143t8 134t20 137t40 111.5t66 97.5q112 118 285 118q170 0 285 -118q39 -39 66 -97.5t40 -111.5t20 -137t8 -134t1 -143t-1 -143t-8 -134t-20 -137t-40 -111.5t-66 -97.5
q-115 -118 -285 -118zM555 119q103 0 180 80q57 60 73.5 178.5t16.5 322.5h-540q0 -207 16 -324t74 -177q77 -80 180 -80zM285 827h540q0 72 -2.5 124t-10.5 116.5t-27.5 113t-49.5 79.5q-76 79 -180 79t-180 -79q-30 -31 -49.5 -79.5t-27.5 -113t-10.5 -116.5t-2.5 -124z
" />
    <glyph glyph-name="iota" unicode="&#x3b9;" horiz-adv-x="608" 
d="M328 1008v-734q0 -76 30.5 -111.5t104.5 -35.5h80v-127h-107q-127 0 -191.5 73.5t-64.5 194.5v740h148z" />
    <glyph glyph-name="kappa" unicode="&#x3ba;" horiz-adv-x="1095" 
d="M969 1008l-340 -385l399 -623h-182l-318 516l-196 -225v-291h-148v1008h148v-525l454 525h183z" />
    <glyph glyph-name="lambda" unicode="&#x3bb;" horiz-adv-x="929" 
d="M31 0l368 979l-82 238q-23 70 -51 90t-104 20h-29v131h49q107 0 164.5 -39t91.5 -135l461 -1284h-158l-270 805l-283 -805h-157z" />
    <glyph glyph-name="uni03BC" unicode="&#x3bc;" horiz-adv-x="1163" 
d="M184 -451v1459h148v-621q0 -131 65 -199.5t183 -68.5t184.5 69t66.5 199v621h148v-1008h-145v113q-108 -123 -277 -123q-148 0 -225 86v-527h-148z" />
    <glyph glyph-name="nu" unicode="&#x3bd;" horiz-adv-x="915" 
d="M391 0l-368 1008h159l277 -809l274 809h160l-371 -1008h-131z" />
    <glyph glyph-name="xi" unicode="&#x3be;" horiz-adv-x="983" 
d="M883 -297h-131q26 227 26 231q0 41 -23 53.5t-73 12.5h-119q-86 0 -161 22t-137 67t-98 123t-36 181q0 147 77 248t185 135q-90 28 -150.5 109.5t-60.5 199.5q0 175 113.5 280t284.5 105q231 0 372 -153l-92 -100q-117 124 -274 124q-117 0 -183.5 -68t-66.5 -194
q0 -122 67 -180.5t187 -58.5h235v-131h-233q-138 0 -225.5 -87t-87.5 -216q0 -75 24 -130t65.5 -85.5t91 -45t107.5 -14.5h146q45 0 78 -5.5t63 -20.5t45.5 -45.5t15.5 -75.5t-32 -281z" />
    <glyph glyph-name="omicron" unicode="&#x3bf;" 
d="M543 1020q176 0 288 -115q71 -71 97 -169.5t26 -231.5t-26 -231.5t-97 -170.5q-111 -114 -288 -114q-178 0 -289 114q-71 72 -97 170.5t-26 231.5t26 231.5t97 169.5q112 115 289 115zM543 889q-109 0 -183 -74q-50 -50 -65.5 -126.5t-15.5 -184.5q0 -109 15 -184.5
t66 -126.5q74 -74 183 -74q110 0 184 74q50 51 65 127t15 184q0 109 -15 185t-65 126q-74 74 -184 74z" />
    <glyph glyph-name="pi" unicode="&#x3c0;" horiz-adv-x="1150" 
d="M967 1008v-1008h-148v877h-487v-877h-148v1008h783z" />
    <glyph glyph-name="rho" unicode="&#x3c1;" horiz-adv-x="1107" 
d="M571 1020q171 0 277 -109q129 -132 129 -407q0 -264 -129 -404q-98 -112 -275 -112q-73 0 -141.5 36.5t-109.5 98.5v-574h-148v957q0 129 25 229t92 172q107 113 280 113zM575 889q-104 0 -174 -70q-50 -51 -64.5 -126.5t-14.5 -184.5q0 -54 2 -89t9 -82.5t24 -84
t44 -62.5q39 -38 75 -54.5t87 -16.5q117 0 182 71q84 93 84 314q0 224 -86 317q-65 68 -168 68z" />
    <glyph glyph-name="sigma1" unicode="&#x3c2;" horiz-adv-x="1005" 
d="M813 -297h-131q5 31 16 120.5t11 110.5q0 41 -23 53.5t-72 12.5h-36q-220 0 -333.5 131t-113.5 369q0 253 122.5 386.5t324.5 133.5q105 0 180.5 -33.5t150.5 -116.5l-100 -94q-57 63 -108.5 88t-122.5 25q-156 0 -234 -115q-35 -50 -50 -112t-15 -162q0 -176 65 -267
q75 -102 246 -102h53q36 0 64 -3t55.5 -12.5t45.5 -25.5t29 -43t11 -63q0 -74 -35 -281z" />
    <glyph glyph-name="sigma" unicode="&#x3c3;" horiz-adv-x="1118" 
d="M989 1008v-127h-182q71 -57 109 -158t38 -219q0 -133 -26 -231.5t-97 -170.5q-111 -114 -288 -114q-178 0 -289 114q-71 72 -97 170.5t-26 231.5q0 131 25.5 227t93.5 166q111 111 289 111h450zM539 881q-109 0 -183 -74q-27 -26 -44 -60t-23.5 -78.5t-8 -76.5t-1.5 -88
q0 -109 14.5 -184.5t64.5 -126.5q74 -74 185 -74q110 0 184 74q50 51 65 127t15 184q0 106 -16 179.5t-68 125.5q-72 72 -184 72z" />
    <glyph glyph-name="tau" unicode="&#x3c4;" horiz-adv-x="845" 
d="M764 1008v-131h-266v-877h-148v877h-268v131h682z" />
    <glyph glyph-name="upsilon" unicode="&#x3c5;" horiz-adv-x="1142" 
d="M969 1008v-633q0 -180 -107 -287q-100 -100 -293 -100q-190 0 -290 100q-105 105 -105 287v633h148v-605q0 -141 62.5 -212.5t184.5 -71.5q123 0 187.5 72.5t64.5 211.5v605h148z" />
    <glyph glyph-name="phi" unicode="&#x3c6;" horiz-adv-x="1433" 
d="M643 -451v439q-242 5 -364 121q-148 137 -148 395q0 255 107 387q64 77 153 129l82 -105q-81 -51 -127 -108q-67 -85 -67 -303q0 -210 104 -307q42 -41 103 -61t157 -21v905h141q242 0 371 -119q148 -141 148 -397q0 -258 -148 -395q-122 -116 -364 -121v-439h-148z
M791 895v-780q95 1 155.5 21t102.5 61q106 99 106 307q0 214 -106 309q-79 74 -258 82z" />
    <glyph glyph-name="chi" unicode="&#x3c7;" horiz-adv-x="978" 
d="M897 1008l-328 -494l342 -514h-178l-241 391l-246 -391h-178l342 514l-328 494h178l232 -373l227 373h178z" />
    <glyph glyph-name="psi" unicode="&#x3c8;" horiz-adv-x="1462" 
d="M657 -451v439q-112 5 -195.5 33t-150.5 88q-137 125 -137 374v525h148v-508q0 -116 23.5 -184.5t70.5 -112.5q89 -80 241 -86v891h148v-891q153 6 242 86q94 84 94 297v508h147v-525q0 -133 -34.5 -222.5t-104.5 -151.5q-123 -112 -344 -121v-439h-148z" />
    <glyph glyph-name="omega" unicode="&#x3c9;" horiz-adv-x="1433" 
d="M465 -12q-90 0 -150 31t-102 96q-82 124 -82 370q0 265 133 412q66 73 154 123l80 -105q-84 -53 -127 -106q-47 -59 -69.5 -134t-22.5 -190q0 -200 45 -282q49 -84 149 -84q83 0 126.5 74.5t43.5 179.5v323h148v-323q0 -105 43.5 -179.5t126.5 -74.5q100 0 149 84
q45 82 45 282q0 114 -23 188t-71 136q-45 56 -125 106l80 105q86 -49 153 -123q134 -148 134 -412q0 -241 -84 -370q-43 -64 -102 -95.5t-148 -31.5q-91 0 -158 55t-94 143q-29 -88 -95 -143t-157 -55z" />
    <glyph glyph-name="iotadieresis" unicode="&#x3ca;" horiz-adv-x="608" 
d="M328 1008v-734q0 -76 30.5 -111.5t104.5 -35.5h80v-127h-107q-127 0 -191.5 73.5t-64.5 194.5v740h148zM545 1415v-182h-148v182h148zM111 1415v-182h-148v182h148z" />
    <glyph glyph-name="upsilondieresis" unicode="&#x3cb;" horiz-adv-x="1142" 
d="M969 1008v-633q0 -180 -107 -287q-100 -100 -293 -100q-190 0 -290 100q-105 105 -105 287v633h148v-605q0 -141 62.5 -212.5t184.5 -71.5q123 0 187.5 72.5t64.5 211.5v605h148zM862 1415v-182h-147v182h147zM428 1415v-182h-147v182h147z" />
    <glyph glyph-name="omicrontonos" unicode="&#x3cc;" 
d="M543 1020q176 0 288 -115q71 -71 97 -169.5t26 -231.5t-26 -231.5t-97 -170.5q-111 -114 -288 -114q-178 0 -289 114q-71 72 -97 170.5t-26 231.5t26 231.5t97 169.5q112 115 289 115zM543 889q-109 0 -183 -74q-50 -50 -65.5 -126.5t-15.5 -184.5q0 -109 15 -184.5
t66 -126.5q74 -74 183 -74q110 0 184 74q50 51 65 127t15 184q0 109 -15 185t-65 126q-74 74 -184 74zM616 1458v-203l-147 -77v280h147z" />
    <glyph glyph-name="upsilontonos" unicode="&#x3cd;" horiz-adv-x="1142" 
d="M969 1008v-633q0 -180 -107 -287q-100 -100 -293 -100q-190 0 -290 100q-105 105 -105 287v633h148v-605q0 -141 62.5 -212.5t184.5 -71.5q123 0 187.5 72.5t64.5 211.5v605h148zM645 1458v-203l-147 -77v280h147z" />
    <glyph glyph-name="omegatonos" unicode="&#x3ce;" horiz-adv-x="1433" 
d="M465 -12q-90 0 -150 31t-102 96q-82 124 -82 370q0 265 133 412q66 73 154 123l80 -105q-84 -53 -127 -106q-47 -59 -69.5 -134t-22.5 -190q0 -200 45 -282q49 -84 149 -84q83 0 126.5 74.5t43.5 179.5v323h148v-323q0 -105 43.5 -179.5t126.5 -74.5q100 0 149 84
q45 82 45 282q0 114 -23 188t-71 136q-45 56 -125 106l80 105q86 -49 153 -123q134 -148 134 -412q0 -241 -84 -370q-43 -64 -102 -95.5t-148 -31.5q-91 0 -158 55t-94 143q-29 -88 -95 -143t-157 -55zM791 1458v-203l-148 -77v280h148z" />
    <glyph glyph-name="uni0400" unicode="&#x400;" horiz-adv-x="1228" 
d="M1116 1458v-139h-749v-514h639v-139h-639v-527h749v-139h-905v1458h905zM535 1913l186 -316h-141l-215 316h170z" />
    <glyph glyph-name="uni0401" unicode="&#x401;" horiz-adv-x="1228" 
d="M1116 1458v-139h-749v-514h639v-139h-639v-527h749v-139h-905v1458h905zM928 1798v-182h-148v182h148zM494 1798v-182h-148v182h148z" />
    <glyph glyph-name="uni0402" unicode="&#x402;" horiz-adv-x="1433" 
d="M1059 1458v-139h-484v-428h328q205 0 327 -118t122 -327q0 -210 -122 -328t-327 -118h-84v137h68q149 0 229 76.5t80 230.5q0 153 -80 230.5t-229 77.5h-312v-752h-155v1319h-359v139h998z" />
    <glyph glyph-name="uni0403" unicode="&#x403;" horiz-adv-x="1148" 
d="M1087 1458v-139h-720v-1319h-156v1458h876zM877 1913l-215 -316h-142l187 316h170z" />
    <glyph glyph-name="uni0404" unicode="&#x404;" horiz-adv-x="1304" 
d="M666 1470q198 0 332.5 -115t172.5 -319h-159q-30 137 -120.5 216t-225.5 79q-150 0 -252 -102q-61 -63 -81 -150.5t-22 -273.5h549v-139h-549q2 -197 21.5 -286t81.5 -151q102 -102 252 -102q135 0 225.5 79t120.5 216h159q-38 -203 -173 -318.5t-332 -115.5
q-222 0 -365 143q-41 41 -67.5 84.5t-42.5 87t-23.5 113t-9.5 134t-2 179.5t2 179.5t9.5 134t23.5 113t42.5 87t67.5 84.5q143 143 365 143z" />
    <glyph glyph-name="uni0405" unicode="&#x405;" horiz-adv-x="1204" 
d="M592 1470q138 0 238.5 -37.5t195.5 -121.5l-100 -101q-68 65 -148.5 96t-191.5 31q-146 0 -228 -73.5t-82 -198.5q0 -113 66 -170q65 -56 190 -76l170 -26q101 -15 158 -38t107 -67q123 -107 123 -287q0 -191 -137 -302t-367 -111q-163 0 -280 45t-218 147l105 105
q88 -88 179 -123t218 -35q162 0 254 71t92 199q0 120 -72 183q-33 30 -72 44.5t-118 26.5l-170 25q-169 27 -266 110q-113 101 -113 275q0 187 125.5 298t341.5 111z" />
    <glyph glyph-name="uni0406" unicode="&#x406;" horiz-adv-x="577" 
d="M367 1458v-1458h-156v1458h156z" />
    <glyph glyph-name="uni0407" unicode="&#x407;" horiz-adv-x="577" 
d="M367 1458v-1458h-156v1458h156zM578 1798v-182h-148v182h148zM143 1798v-182h-147v182h147z" />
    <glyph glyph-name="uni0408" unicode="&#x408;" horiz-adv-x="1026" 
d="M836 1458v-1016q0 -208 -126.5 -331t-328.5 -123q-203 0 -334 131l105 104q48 -48 97 -72t132 -24q143 0 221 87.5t78 248.5v995h156z" />
    <glyph glyph-name="uni0409" unicode="&#x409;" horiz-adv-x="2103" 
d="M1180 1458v-600h391q204 0 327 -118t123 -312q0 -192 -124 -310t-326 -118h-547v1319h-512v-500q0 -228 -27 -386.5t-82 -253.5t-132 -137t-185 -42h-74v139h39q58 0 101.5 17t84.5 64.5t66.5 127.5t41 210t15.5 308v592h820zM1556 719h-376v-580h376q146 0 227 76
t81 213q0 138 -81 214.5t-227 76.5z" />
    <glyph glyph-name="uni040A" unicode="&#x40a;" horiz-adv-x="2138" 
d="M1214 1458v-600h392q204 0 327 -118t123 -312q0 -192 -124 -310t-326 -118h-547v719h-692v-719h-156v1458h156v-600h692v600h155zM1591 719h-377v-580h377q146 0 226.5 76t80.5 213q0 138 -80.5 214.5t-226.5 76.5z" />
    <glyph glyph-name="uni040B" unicode="&#x40b;" horiz-adv-x="1531" 
d="M1059 1458v-139h-484v-428h328q202 0 325.5 -117t123.5 -309v-465h-156v465q0 135 -81.5 211t-227.5 76h-312v-752h-155v1319h-359v139h998z" />
    <glyph glyph-name="uni040C" unicode="&#x40c;" horiz-adv-x="1243" 
d="M1190 1458l-645 -692l700 -766h-207l-669 762l624 696h197zM367 1458v-1458h-156v1458h156zM915 1913l-215 -316h-141l186 316h170z" />
    <glyph glyph-name="uni040D" unicode="&#x40d;" horiz-adv-x="1466" 
d="M1255 1458v-1458h-155v1190l-742 -1190h-147v1458h156v-1188l741 1188h147zM631 1913l186 -316h-141l-215 316h170z" />
    <glyph glyph-name="uni040E" unicode="&#x40e;" horiz-adv-x="1120" 
d="M1100 1458l-529 -1231q-97 -227 -286 -227h-127v139h92q73 0 116 34t76 112l60 137l-482 1036h166l394 -862l354 862h166zM782 1901h115q-25 -285 -338 -285t-338 285h115q10 -81 69.5 -125.5t153.5 -44.5t153.5 44.5t69.5 125.5z" />
    <glyph glyph-name="uni040F" unicode="&#x40f;" horiz-adv-x="1425" 
d="M1214 1458v-1458h-423v-354h-156v354h-424v1458h156v-1319h692v1319h155z" />
    <glyph glyph-name="uni0410" unicode="&#x410;" horiz-adv-x="1251" 
d="M692 1458l535 -1458h-166l-117 330h-637l-117 -330h-165l536 1458h131zM627 1237l-273 -772h543z" />
    <glyph glyph-name="uni0411" unicode="&#x411;" horiz-adv-x="1298" 
d="M1120 1458v-139h-753v-457h395q202 0 325 -119.5t123 -314.5q0 -193 -122.5 -310.5t-325.5 -117.5h-551v1458h909zM748 723h-381v-584h381q146 0 226.5 75.5t80.5 213.5q0 139 -80.5 217t-226.5 78z" />
    <glyph glyph-name="uni0412" unicode="&#x412;" horiz-adv-x="1368" 
d="M211 1458h549q193 0 311.5 -104.5t118.5 -284.5q0 -113 -60 -198.5t-155 -120.5q108 -40 172.5 -130t64.5 -217q0 -194 -118 -298.5t-316 -104.5h-567v1458zM764 674h-397v-535h397q135 0 214 73t79 196t-79 194.5t-214 71.5zM748 1319h-381v-506h381q128 0 207 64.5
t79 189.5t-79 188.5t-207 63.5z" />
    <glyph glyph-name="uni0413" unicode="&#x413;" horiz-adv-x="1148" 
d="M1087 1458v-139h-720v-1319h-156v1458h876z" />
    <glyph glyph-name="uni0414" unicode="&#x414;" horiz-adv-x="1413" 
d="M1157 1458v-1319h172v-493h-153v354h-986v-354h-153v493h135q97 169 138.5 372t41.5 501v446h805zM1001 1319h-499v-442q0 -444 -162 -738h661v1180z" />
    <glyph glyph-name="uni0415" unicode="&#x415;" horiz-adv-x="1228" 
d="M1116 1458v-139h-749v-514h639v-139h-639v-527h749v-139h-905v1458h905z" />
    <glyph glyph-name="uni0416" unicode="&#x416;" horiz-adv-x="1847" 
d="M1645 0l-641 762l593 696h197l-612 -692l667 -766h-204zM-2 0l668 766l-615 692h197l596 -696l-641 -762h-205zM846 0v1458h155v-1458h-155z" />
    <glyph glyph-name="uni0417" unicode="&#x417;" horiz-adv-x="1261" 
d="M633 1470q198 0 324 -105.5t126 -281.5q0 -235 -211 -331q234 -85 234 -351q0 -187 -134.5 -300t-338.5 -113q-201 0 -337 115t-171 319h156q30 -137 122 -217t228 -80q140 0 229.5 76.5t89.5 204.5q0 135 -76.5 203.5t-220.5 68.5h-184v135h190q128 0 198.5 68.5
t70.5 195.5q0 123 -80 190.5t-217 67.5q-134 0 -225.5 -80.5t-122.5 -218.5h-156q35 204 170.5 319t335.5 115z" />
    <glyph glyph-name="uni0418" unicode="&#x418;" horiz-adv-x="1466" 
d="M1255 1458v-1458h-155v1190l-742 -1190h-147v1458h156v-1188l741 1188h147z" />
    <glyph glyph-name="uni0419" unicode="&#x419;" horiz-adv-x="1466" 
d="M1255 1458v-1458h-155v1190l-742 -1190h-147v1458h156v-1188l741 1188h147zM956 1901h115q-25 -285 -338 -285t-338 285h115q10 -81 69.5 -125.5t153.5 -44.5t153.5 44.5t69.5 125.5z" />
    <glyph glyph-name="uni041A" unicode="&#x41a;" horiz-adv-x="1243" 
d="M1190 1458l-645 -692l700 -766h-207l-669 762l624 696h197zM367 1458v-1458h-156v1458h156z" />
    <glyph glyph-name="uni041B" unicode="&#x41b;" horiz-adv-x="1388" 
d="M1178 1458v-1458h-156v1319h-510v-500q0 -228 -27 -386.5t-82 -253.5t-132 -137t-185 -42h-74v139h39q58 0 101.5 17t84.5 64.5t66.5 127.5t41 210t15.5 308v592h818z" />
    <glyph glyph-name="uni041C" unicode="&#x41c;" horiz-adv-x="1671" 
d="M1460 1458v-1458h-155v1108l-400 -879h-133l-405 879v-1108h-156v1458h156l475 -1034l463 1034h155z" />
    <glyph glyph-name="uni041D" unicode="&#x41d;" horiz-adv-x="1425" 
d="M1214 1458v-1458h-155v666h-692v-666h-156v1458h156v-653h692v653h155z" />
    <glyph glyph-name="uni041E" unicode="&#x41e;" horiz-adv-x="1331" 
d="M666 1470q219 0 362 -143q51 -51 80.5 -101.5t44.5 -126.5t19 -152.5t4 -217.5t-4 -217.5t-19 -152.5t-44.5 -126.5t-80.5 -101.5q-143 -143 -362 -143q-222 0 -365 143q-41 41 -67.5 84.5t-42.5 87t-23.5 113t-9.5 134t-2 179.5t2 179.5t9.5 134t23.5 113t42.5 87
t67.5 84.5q143 143 365 143zM666 1331q-150 0 -252 -102q-66 -68 -84.5 -166t-18.5 -334t18.5 -334t84.5 -166q102 -102 252 -102t252 102q66 67 84 165t18 335t-18 335t-84 165q-102 102 -252 102z" />
    <glyph glyph-name="uni041F" unicode="&#x41f;" horiz-adv-x="1425" 
d="M1214 1458v-1458h-155v1319h-692v-1319h-156v1458h1003z" />
    <glyph glyph-name="uni0420" unicode="&#x420;" horiz-adv-x="1290" 
d="M211 1458h543q200 0 325 -117.5t125 -310.5q0 -194 -125.5 -312t-324.5 -118h-387v-600h-156v1458zM741 1319h-374v-580h374q141 0 224.5 75t83.5 216t-83.5 215t-224.5 74z" />
    <glyph glyph-name="uni0421" unicode="&#x421;" horiz-adv-x="1304" 
d="M666 1470q198 0 332.5 -115t172.5 -319h-159q-30 137 -120.5 216t-225.5 79q-150 0 -252 -102q-66 -68 -84.5 -166t-18.5 -334t18.5 -334t84.5 -166q102 -102 252 -102q135 0 225.5 79t120.5 216h159q-38 -203 -173 -318.5t-332 -115.5q-222 0 -365 143
q-41 41 -67.5 84.5t-42.5 87t-23.5 113t-9.5 134t-2 179.5t2 179.5t9.5 134t23.5 113t42.5 87t67.5 84.5q143 143 365 143z" />
    <glyph glyph-name="uni0422" unicode="&#x422;" horiz-adv-x="1122" 
d="M1061 1458v-139h-422v-1319h-156v1319h-422v139h1000z" />
    <glyph glyph-name="uni0423" unicode="&#x423;" horiz-adv-x="1120" 
d="M1100 1458l-529 -1231q-97 -227 -286 -227h-127v139h92q73 0 116 34t76 112l60 137l-482 1036h166l394 -862l354 862h166z" />
    <glyph glyph-name="uni0424" unicode="&#x424;" horiz-adv-x="1597" 
d="M877 1511v-137q313 -10 460.5 -156.5t147.5 -435.5q0 -292 -145.5 -442t-462.5 -160v-188h-156v188q-317 10 -462.5 160t-145.5 442q0 289 147.5 435.5t460.5 156.5v137h156zM721 313v928q-130 -3 -219 -35t-140 -94.5t-72.5 -143t-21.5 -192.5q0 -111 23 -192.5
t75 -142.5t140.5 -93t214.5 -35zM877 1241v-928q245 6 348.5 122t103.5 341q0 112 -22 193t-72.5 143t-139.5 94t-218 35z" />
    <glyph glyph-name="uni0425" unicode="&#x425;" horiz-adv-x="1128" 
d="M1067 1458l-420 -710l451 -748h-180l-355 612l-356 -612h-176l446 748l-418 710h181l323 -575l324 575h180z" />
    <glyph glyph-name="uni0426" unicode="&#x426;" horiz-adv-x="1470" 
d="M1214 1458v-1319h172v-493h-151v354h-1024v1458h156v-1319h692v1319h155z" />
    <glyph glyph-name="uni0427" unicode="&#x427;" horiz-adv-x="1320" 
d="M1110 1458v-1458h-156v666q-280 -56 -411 -56q-79 0 -145.5 19t-122 60t-87.5 114t-32 172v483h155v-454q0 -61 15.5 -107t40.5 -73.5t61.5 -44.5t73 -23t80.5 -6q111 0 372 51v657h156z" />
    <glyph glyph-name="uni0428" unicode="&#x428;" horiz-adv-x="2039" 
d="M1829 1458v-1458h-1618v1458h156v-1319h575v1319h156v-1319h575v1319h156z" />
    <glyph glyph-name="uni0429" unicode="&#x429;" horiz-adv-x="2086" 
d="M1829 1458v-1319h174v-493h-154v354h-1638v1458h156v-1319h575v1319h156v-1319h575v1319h156z" />
    <glyph glyph-name="uni042A" unicode="&#x42a;" horiz-adv-x="1488" 
d="M565 1458v-600h391q204 0 327.5 -118t123.5 -312q0 -192 -124.5 -310t-326.5 -118h-546v1319h-349v139h504zM942 719h-377v-580h377q146 0 226.5 76t80.5 213q0 138 -80.5 214.5t-226.5 76.5z" />
    <glyph glyph-name="uni042B" unicode="&#x42b;" horiz-adv-x="1882" 
d="M1671 1458v-1458h-155v1458h155zM367 1458v-600h391q204 0 327 -118t123 -312q0 -192 -124 -310t-326 -118h-547v1458h156zM743 719h-376v-580h376q146 0 227 76t81 213q0 138 -81 214.5t-227 76.5z" />
    <glyph glyph-name="uni042C" unicode="&#x42c;" horiz-adv-x="1290" 
d="M367 1458v-600h391q204 0 327 -118t123 -312q0 -192 -124 -310t-326 -118h-547v1458h156zM743 719h-376v-580h376q146 0 227 76t81 213q0 138 -81 214.5t-227 76.5z" />
    <glyph glyph-name="uni042D" unicode="&#x42d;" horiz-adv-x="1304" 
d="M639 1470q222 0 365 -143q41 -41 67.5 -84.5t42.5 -87t23.5 -113t9.5 -134t2 -179.5t-2 -179.5t-9.5 -134t-23.5 -113t-42.5 -87t-67.5 -84.5q-143 -143 -365 -143q-197 0 -332.5 115.5t-173.5 318.5h160q30 -137 120.5 -216t225.5 -79q150 0 252 102q62 62 81 150.5
t21 286.5h-549v139h549q-2 187 -21.5 274.5t-80.5 149.5q-102 102 -252 102q-135 0 -225.5 -79t-120.5 -216h-160q38 204 173 319t333 115z" />
    <glyph glyph-name="uni042E" unicode="&#x42e;" horiz-adv-x="1851" 
d="M1186 1470q219 0 362 -143q43 -43 70 -86.5t43 -86.5t23.5 -113t9.5 -133t2 -179t-2 -179t-9.5 -133t-23.5 -113t-43 -86.5t-70 -86.5q-143 -143 -362 -143q-222 0 -365 143q-48 48 -76.5 95t-43.5 114.5t-19.5 137t-5.5 188.5h-309v-666h-156v1458h156v-653h309
q1 151 10.5 233.5t40.5 154t94 134.5q143 143 365 143zM1186 1331q-153 0 -252 -102q-66 -68 -84.5 -166t-18.5 -334t18.5 -334t84.5 -166q99 -102 252 -102q150 0 252 102q66 67 84 165t18 335t-18 335t-84 165q-102 102 -252 102z" />
    <glyph glyph-name="uni042F" unicode="&#x42f;" horiz-adv-x="1339" 
d="M1128 1458v-1458h-155v600h-361l-317 -600h-182l336 623q-146 35 -230 143t-84 264q0 194 124 311t327 117h542zM973 1321h-373q-146 0 -227.5 -77t-81.5 -214t81.5 -214t227.5 -77h373v582z" />
    <glyph glyph-name="uni0430" unicode="&#x430;" horiz-adv-x="1077" 
d="M500 1020q202 0 302.5 -85.5t100.5 -250.5v-684h-147v96q-60 -60 -125 -84t-166 -24q-105 0 -169 20.5t-116 71.5q-76 73 -76 205q0 135 92 212.5t259 77.5h301v97q0 112 -61 166.5t-197 54.5q-94 0 -151 -26.5t-103 -90.5l-101 92q64 85 146 118.5t211 33.5zM756 465
h-281q-227 0 -227 -178q0 -88 56 -130t177 -42q74 0 126.5 13t97.5 54q51 48 51 174v109z" />
    <glyph glyph-name="uni0431" unicode="&#x431;" horiz-adv-x="1095" 
d="M887 1470v-137q-23 -2 -85 -4t-109.5 -6t-107 -13t-108.5 -28t-82 -47q-67 -58 -91.5 -147t-24.5 -230q34 64 118 107q88 43 181 43q165 0 256 -88q131 -125 131 -418q0 -150 -29 -244.5t-94 -159.5q-107 -110 -283 -110q-131 0 -229.5 67t-141.5 183t-43 354
q0 122 0.5 185.5t3 145t8.5 122.5t15.5 91t25 79.5t36.5 59t51 56.5q34 31 84 54t98.5 36t114 22.5t110 13t107.5 7.5t88 6zM559 881q-112 0 -182 -76q-84 -87 -84 -307q0 -119 20.5 -189t63.5 -116q74 -74 182 -74q111 0 182 74q42 45 60 114t18 187q0 123 -18 195t-60 116
q-70 76 -182 76z" />
    <glyph glyph-name="uni0432" unicode="&#x432;" horiz-adv-x="1101" 
d="M184 1008h467q134 0 215.5 -72.5t81.5 -192.5q0 -163 -160 -221q177 -67 177 -243q0 -129 -80 -204t-221 -75h-480v1008zM637 459h-307v-328h307q86 0 133 43t47 119t-47.5 121t-132.5 45zM625 877h-295v-297h295q87 0 131.5 39t44.5 112q0 146 -176 146z" />
    <glyph glyph-name="uni0433" unicode="&#x433;" horiz-adv-x="845" 
d="M823 1008v-131h-491v-877h-148v1008h639z" />
    <glyph glyph-name="uni0434" unicode="&#x434;" horiz-adv-x="1138" 
d="M930 1008v-877h149v-424h-143v293h-748v-293h-143v424h119q43 73 69 139.5t46 194t20 301.5v242h631zM782 879h-342v-183q0 -372 -118 -565h460v748z" />
    <glyph glyph-name="uni0435" unicode="&#x435;" 
d="M543 1020q195 0 304 -130.5t109 -359.5v-65h-680q0 -167 76 -257.5t221 -90.5q86 0 144.5 26t120.5 88l100 -88q-81 -81 -164 -118t-205 -37q-208 0 -324 128t-116 388q0 244 110.5 380t303.5 136zM543 895q-80 0 -141.5 -40.5t-94.5 -111.5q-17 -37 -22.5 -68t-8.5 -100
h535q-4 50 -6 70.5t-8.5 46t-18.5 51.5q-33 71 -94 111.5t-141 40.5z" />
    <glyph glyph-name="uni0436" unicode="&#x436;" horiz-adv-x="1470" 
d="M1417 1008l-432 -476l473 -532h-186l-461 522l428 486h178zM233 1008l426 -486l-460 -522h-187l473 532l-432 476h180zM809 1008v-1008h-147v1008h147z" />
    <glyph glyph-name="uni0437" unicode="&#x437;" horiz-adv-x="987" 
d="M477 1020q155 0 257 -72t102 -200q0 -77 -42.5 -137.5t-119.5 -86.5q82 -26 130 -89.5t48 -149.5q0 -132 -112 -213.5t-271 -81.5q-126 0 -221.5 32t-181.5 111l94 96q65 -62 132 -87t161 -25q63 0 120.5 19.5t96.5 60.5t39 94q0 82 -56.5 125t-152.5 43h-148v114h150
q85 0 136.5 43.5t51.5 120.5q0 75 -61 116.5t-166 41.5q-152 0 -270 -82l-84 98q154 109 368 109z" />
    <glyph glyph-name="uni0438" unicode="&#x438;" horiz-adv-x="1181" 
d="M997 1008v-1008h-147v786l-518 -786h-148v1008h148v-783l518 783h147z" />
    <glyph glyph-name="uni0439" unicode="&#x439;" horiz-adv-x="1181" 
d="M997 1008v-1008h-147v786l-518 -786h-148v1008h148v-783l518 783h147zM815 1493h115q-25 -285 -338 -285t-338 285h115q10 -81 69.5 -125.5t153.5 -44.5t153.5 44.5t69.5 125.5z" />
    <glyph glyph-name="uni043A" unicode="&#x43a;" horiz-adv-x="1013" 
d="M961 1008l-453 -476l493 -532h-190l-477 522l444 486h183zM332 1008v-1008h-148v1008h148z" />
    <glyph glyph-name="uni043B" unicode="&#x43b;" horiz-adv-x="1107" 
d="M924 1008v-1008h-148v877h-354v-345q0 -154 -23.5 -260.5t-69 -164.5t-101 -82.5t-128.5 -24.5h-67v127h33q33 0 57.5 6t56 31.5t51.5 71t34 132t14 207.5v433h645z" />
    <glyph glyph-name="uni043C" unicode="&#x43c;" horiz-adv-x="1341" 
d="M1157 1008v-1008h-147v739l-285 -508h-104l-289 508v-739h-148v1008h148l344 -625l336 625h145z" />
    <glyph glyph-name="uni043D" unicode="&#x43d;" horiz-adv-x="1150" 
d="M967 1008v-1008h-148v457h-487v-457h-148v1008h148v-424h487v424h148z" />
    <glyph glyph-name="uni043E" unicode="&#x43e;" 
d="M543 1020q176 0 288 -115q71 -71 97 -169.5t26 -231.5t-26 -231.5t-97 -170.5q-111 -114 -288 -114q-178 0 -289 114q-71 72 -97 170.5t-26 231.5t26 231.5t97 169.5q112 115 289 115zM543 889q-109 0 -183 -74q-50 -50 -65.5 -126.5t-15.5 -184.5q0 -109 15 -184.5
t66 -126.5q74 -74 183 -74q110 0 184 74q50 51 65 127t15 184q0 109 -15 185t-65 126q-74 74 -184 74z" />
    <glyph glyph-name="uni043F" unicode="&#x43f;" horiz-adv-x="1150" 
d="M967 1008v-1008h-148v877h-487v-877h-148v1008h783z" />
    <glyph glyph-name="uni0440" unicode="&#x440;" horiz-adv-x="1116" 
d="M616 1020q76 0 140.5 -23.5t105.5 -64.5q123 -123 123 -428q0 -303 -123 -428q-41 -41 -105.5 -64.5t-140.5 -23.5q-90 0 -157 28.5t-127 102.5v-570h-148v1459h148v-119q60 74 126.5 102.5t157.5 28.5zM586 889q-64 0 -111 -22t-74 -56t-43 -87t-21 -103.5t-5 -116.5
t5 -116.5t21 -103.5t43 -87t74 -56t111 -22t110.5 22t73 56t42.5 87t21 103.5t5 116.5t-5 116.5t-21 103.5t-42.5 87t-73 56t-110.5 22z" />
    <glyph glyph-name="uni0441" unicode="&#x441;" horiz-adv-x="1005" 
d="M578 1020q106 0 180 -33t151 -117l-100 -94q-57 63 -108 88t-123 25q-154 0 -234 -115q-35 -49 -50 -111.5t-15 -158.5t15 -159t50 -112q80 -114 234 -114q72 0 123 25.5t108 88.5l100 -96q-77 -84 -151 -116.5t-180 -32.5q-199 0 -323 133.5t-124 382.5t124 382.5
t323 133.5z" />
    <glyph glyph-name="uni0442" unicode="&#x442;" horiz-adv-x="874" 
d="M854 1008v-131h-334v-877h-147v877h-353v131h834z" />
    <glyph glyph-name="uni0443" unicode="&#x443;" horiz-adv-x="915" 
d="M893 1008l-465 -1270q-29 -79 -72 -119q-73 -70 -196 -70h-64v132h45q74 0 107 26t59 98l78 215l-362 988h159l277 -809l274 809h160z" />
    <glyph glyph-name="uni0444" unicode="&#x444;" horiz-adv-x="1417" 
d="M782 1458v-438q244 -12 377 -141.5t133 -372.5q0 -244 -133.5 -375t-376.5 -143v-439h-147v439q-243 12 -376.5 143t-133.5 375q0 243 133 372.5t377 141.5v438h147zM635 119v770q-185 -6 -274 -109t-89 -276q0 -177 93 -279t270 -106zM782 889v-770q177 4 270 106
t93 279q0 174 -88 276.5t-275 108.5z" />
    <glyph glyph-name="uni0445" unicode="&#x445;" horiz-adv-x="978" 
d="M897 1008l-328 -494l342 -514h-178l-241 391l-246 -391h-178l342 514l-328 494h178l232 -373l227 373h178z" />
    <glyph glyph-name="uni0446" unicode="&#x446;" horiz-adv-x="1183" 
d="M967 1008v-877h153v-424h-147v293h-789v1008h148v-877h487v877h148z" />
    <glyph glyph-name="uni0447" unicode="&#x447;" horiz-adv-x="1077" 
d="M893 1008v-1008h-148v457q-185 -39 -307 -39q-137 0 -216 72t-79 217v301h148v-275q0 -180 186 -180q98 0 268 33v422h148z" />
    <glyph glyph-name="uni0448" unicode="&#x448;" horiz-adv-x="1638" 
d="M1454 1008v-1008h-1270v1008h148v-877h413v877h148v-877h414v877h147z" />
    <glyph glyph-name="uni0449" unicode="&#x449;" horiz-adv-x="1669" 
d="M1454 1008v-877h152v-424h-148v293h-1274v1008h148v-877h413v877h148v-877h414v877h147z" />
    <glyph glyph-name="uni044A" unicode="&#x44a;" horiz-adv-x="1173" 
d="M446 1008v-400h310q145 0 232 -83t87 -220q0 -138 -87 -221.5t-232 -83.5h-457v881h-266v127h413zM731 485h-285v-362h285q97 0 147 46.5t50 135.5q0 87 -50.5 133.5t-146.5 46.5z" />
    <glyph glyph-name="uni044B" unicode="&#x44b;" horiz-adv-x="1501" 
d="M1317 1008v-1008h-148v1008h148zM332 1008v-400h309q145 0 232.5 -83t87.5 -220q0 -138 -87.5 -221.5t-232.5 -83.5h-457v1008h148zM616 485h-284v-362h284q97 0 147 46.5t50 135.5q0 87 -50.5 133.5t-146.5 46.5z" />
    <glyph glyph-name="uni044C" unicode="&#x44c;" horiz-adv-x="1058" 
d="M332 1008v-400h309q145 0 232.5 -83t87.5 -220q0 -138 -87.5 -221.5t-232.5 -83.5h-457v1008h148zM616 485h-284v-362h284q97 0 147 46.5t50 135.5q0 87 -50.5 133.5t-146.5 46.5z" />
    <glyph glyph-name="uni044D" unicode="&#x44d;" horiz-adv-x="1005" 
d="M424 -12q-108 0 -179 33.5t-149 115.5l99 94q58 -61 108 -87.5t123 -26.5q151 0 224.5 94t76.5 248h-430v116h428q-10 143 -85 229.5t-214 86.5q-72 0 -122 -27t-109 -88l-99 94q81 82 150.5 116t177.5 34q211 0 330.5 -136.5t119.5 -377.5q0 -244 -119 -381t-331 -137z
" />
    <glyph glyph-name="uni044E" unicode="&#x44e;" horiz-adv-x="1488" 
d="M946 1020q177 0 289 -115q71 -71 97 -169.5t26 -231.5t-26 -231.5t-97 -170.5q-111 -114 -289 -114t-289 114q-115 118 -122 357h-203v-459h-148v1008h148v-424h205q10 211 120 321q112 115 289 115zM946 889q-108 0 -182 -74q-50 -50 -66 -127t-16 -184
q0 -108 15.5 -184t66.5 -127q74 -74 182 -74q110 0 184 74q50 51 65 127t15 184q0 109 -15 185t-65 126q-74 74 -184 74z" />
    <glyph glyph-name="uni044F" unicode="&#x44f;" horiz-adv-x="1054" 
d="M870 1008v-1008h-147v395h-215l-219 -395h-172l237 414q-108 23 -170.5 100.5t-62.5 190.5q0 137 86.5 220t228.5 83h434zM723 885h-258q-95 0 -147 -47.5t-52 -135.5q0 -89 51.5 -135.5t147.5 -46.5h258v365z" />
    <glyph glyph-name="uni0450" unicode="&#x450;" 
d="M543 1020q195 0 304 -130.5t109 -359.5v-65h-680q0 -167 76 -257.5t221 -90.5q86 0 144.5 26t120.5 88l100 -88q-81 -81 -164 -118t-205 -37q-208 0 -324 128t-116 388q0 244 110.5 380t303.5 136zM543 895q-80 0 -141.5 -40.5t-94.5 -111.5q-17 -37 -22.5 -68t-8.5 -100
h535q-4 50 -6 70.5t-8.5 46t-18.5 51.5q-33 71 -94 111.5t-141 40.5zM426 1530l186 -313h-141l-215 313h170z" />
    <glyph glyph-name="uni0451" unicode="&#x451;" 
d="M543 1020q195 0 304 -130.5t109 -359.5v-65h-680q0 -167 76 -257.5t221 -90.5q86 0 144.5 26t120.5 88l100 -88q-81 -81 -164 -118t-205 -37q-208 0 -324 128t-116 388q0 244 110.5 380t303.5 136zM543 895q-80 0 -141.5 -40.5t-94.5 -111.5q-17 -37 -22.5 -68t-8.5 -100
h535q-4 50 -6 70.5t-8.5 46t-18.5 51.5q-33 71 -94 111.5t-141 40.5zM834 1415v-182h-148v182h148zM399 1415v-182h-147v182h147z" />
    <glyph glyph-name="uni0452" unicode="&#x452;" horiz-adv-x="1153" 
d="M332 1458v-205h506v-104h-506v-266q63 66 129 95.5t155 29.5q176 0 277 -115q86 -99 86 -262v-688q0 -137 -74.5 -224.5t-224.5 -87.5h-98v127h71q83 0 130.5 54t47.5 135v661q0 131 -65.5 200t-181.5 69t-184 -70.5t-68 -198.5v-608h-148v1149h-125v104h125v205h148z
" />
    <glyph glyph-name="uni0453" unicode="&#x453;" horiz-adv-x="845" 
d="M823 1008v-131h-491v-877h-148v1008h639zM756 1530l-215 -313h-142l187 313h170z" />
    <glyph glyph-name="uni0454" unicode="&#x454;" horiz-adv-x="1005" 
d="M582 -12q-212 0 -331.5 137t-119.5 381q0 241 120 377.5t331 136.5q108 0 177 -33.5t150 -116.5l-98 -94q-59 61 -109 88t-122 27q-139 0 -214 -86.5t-85 -229.5h428v-116h-430q3 -154 76.5 -248t224.5 -94q73 0 123 26.5t108 87.5l98 -94q-79 -82 -149 -115.5
t-178 -33.5z" />
    <glyph glyph-name="uni0455" unicode="&#x455;" horiz-adv-x="1015" 
d="M504 1020q226 0 362 -109l-96 -96q-105 80 -268 80q-109 0 -167.5 -43.5t-58.5 -122.5q0 -67 43.5 -102.5t137.5 -44.5l157 -15q143 -13 220 -75t77 -197q0 -144 -111 -225.5t-298 -81.5q-133 0 -234 34t-180 111l98 98q110 -116 314 -116q128 0 198 45t70 133
q0 68 -40 104t-128 43l-166 15q-301 24 -301 270q0 136 103 215.5t268 79.5z" />
    <glyph glyph-name="uni0456" unicode="&#x456;" horiz-adv-x="518" 
d="M332 1008v-1008h-148v1008h148zM342 1460v-166h-166v166h166z" />
    <glyph glyph-name="uni0457" unicode="&#x457;" horiz-adv-x="518" 
d="M549 1415v-182h-148v182h148zM115 1415v-182h-148v182h148zM332 1008v-1008h-148v1008h148z" />
    <glyph glyph-name="uni0458" unicode="&#x458;" horiz-adv-x="518" 
d="M332 1008v-1188q0 -122 -64.5 -196.5t-191.5 -74.5h-107v129h80q74 0 104.5 36t30.5 112v1182h148zM342 1460v-166h-166v166h166z" />
    <glyph glyph-name="uni0459" unicode="&#x459;" horiz-adv-x="1650" 
d="M924 1008v-400h309q145 0 232 -83t87 -220q0 -138 -87 -221.5t-232 -83.5h-457v877h-354v-345q0 -154 -23.5 -260.5t-69 -164.5t-101 -82.5t-128.5 -24.5h-67v127h33q33 0 57.5 6t56 31.5t51.5 71t34 132t14 207.5v433h645zM1208 485h-284v-362h284q97 0 147 46.5
t50 135.5q0 87 -50.5 133.5t-146.5 46.5z" />
    <glyph glyph-name="uni045A" unicode="&#x45a;" horiz-adv-x="1695" 
d="M969 1008v-400h309q145 0 232 -83t87 -220q0 -138 -87 -221.5t-232 -83.5h-457v485h-489v-485h-148v1008h148v-400h489v400h148zM1253 485h-284v-362h284q97 0 147 46.5t50 135.5q0 87 -50.5 133.5t-146.5 46.5z" />
    <glyph glyph-name="uni045B" unicode="&#x45b;" horiz-adv-x="1153" 
d="M332 1458v-205h506v-104h-506v-266q63 66 129 95.5t155 29.5q176 0 277 -115q86 -99 86 -262v-631h-148v608q0 131 -65.5 200t-181.5 69t-184 -70.5t-68 -198.5v-608h-148v1149h-125v104h125v205h148z" />
    <glyph glyph-name="uni045C" unicode="&#x45c;" horiz-adv-x="1013" 
d="M961 1008l-453 -476l493 -532h-190l-477 522l444 486h183zM332 1008v-1008h-148v1008h148zM823 1530l-215 -313h-141l186 313h170z" />
    <glyph glyph-name="uni045D" unicode="&#x45d;" horiz-adv-x="1181" 
d="M997 1008v-1008h-147v786l-518 -786h-148v1008h148v-783l518 783h147zM475 1530l187 -313h-142l-215 313h170z" />
    <glyph glyph-name="uni045E" unicode="&#x45e;" horiz-adv-x="915" 
d="M893 1008l-465 -1270q-29 -79 -72 -119q-73 -70 -196 -70h-64v132h45q74 0 107 26t59 98l78 215l-362 988h159l277 -809l274 809h160zM682 1493h115q-25 -285 -338 -285t-338 285h115q10 -81 69.5 -125.5t153.5 -44.5t153.5 44.5t69.5 125.5z" />
    <glyph glyph-name="uni045F" unicode="&#x45f;" horiz-adv-x="1150" 
d="M967 1008v-1008h-318v-293h-147v293h-318v1008h148v-877h487v877h148z" />
    <glyph glyph-name="uni0462" unicode="&#x462;" horiz-adv-x="1318" 
d="M395 1458v-207h332v-121h-332v-272h391q204 0 327.5 -118t123.5 -312q0 -192 -124.5 -310t-326.5 -118h-546v1130h-160v121h160v207h155zM772 719h-377v-580h377q146 0 226.5 76t80.5 213q0 138 -80.5 214.5t-226.5 76.5z" />
    <glyph glyph-name="uni0463" unicode="&#x463;" horiz-adv-x="1062" 
d="M336 1458v-450h215v-109h-215v-291h309q145 0 232.5 -83t87.5 -220q0 -138 -87.5 -221.5t-232.5 -83.5h-457v899h-129v109h129v450h148zM621 485h-285v-362h285q97 0 146.5 46.5t49.5 135.5q0 87 -50 133.5t-146 46.5z" />
    <glyph glyph-name="uni0472" unicode="&#x472;" horiz-adv-x="1331" 
d="M666 -12q-222 0 -365 143q-41 41 -67.5 84.5t-42.5 87t-23.5 113t-9.5 134t-2 179.5t2 179.5t9.5 134t23.5 113t42.5 87t67.5 84.5q143 143 365 143q219 0 362 -143q51 -51 80.5 -101.5t44.5 -126.5t19 -152.5t4 -217.5t-4 -217.5t-19 -152.5t-44.5 -126.5t-80.5 -101.5
q-143 -143 -362 -143zM666 127q150 0 252 102q62 64 81 152t21 285h-709q2 -197 21.5 -285t81.5 -152q102 -102 252 -102zM311 805h709q-2 188 -21.5 274.5t-80.5 149.5q-102 102 -252 102t-252 -102q-61 -63 -81 -150t-22 -274z" />
    <glyph glyph-name="uni0473" unicode="&#x473;" 
d="M543 1020q176 0 288 -115q71 -71 97 -169.5t26 -231.5t-26 -231.5t-97 -170.5q-111 -114 -288 -114q-178 0 -289 114q-71 72 -97 170.5t-26 231.5t26 231.5t97 169.5q112 115 289 115zM807 465h-528q2 -92 18.5 -159t62.5 -113q74 -74 183 -74q110 0 184 74
q45 46 61.5 113.5t18.5 158.5zM543 889q-109 0 -183 -74q-70 -70 -81 -240h526q-7 167 -78 240q-74 74 -184 74z" />
    <glyph glyph-name="uni0474" unicode="&#x474;" horiz-adv-x="1118" 
d="M1102 1458l-479 -1458h-127l-480 1458h164l379 -1179l379 1179h164z" />
    <glyph glyph-name="uni0475" unicode="&#x475;" horiz-adv-x="915" 
d="M391 0l-368 1008h159l277 -809l274 809h160l-371 -1008h-131z" />
    <glyph glyph-name="uni0490" unicode="&#x490;" horiz-adv-x="1150" 
d="M1090 1694v-375h-723v-1319h-156v1458h723v236h156z" />
    <glyph glyph-name="uni0491" unicode="&#x491;" horiz-adv-x="845" 
d="M823 1303v-426h-491v-877h-148v1008h492v295h147z" />
    <glyph glyph-name="uni0492" unicode="&#x492;" horiz-adv-x="1177" 
d="M1116 1458v-139h-721v-522h332v-121h-332v-676h-155v676h-160v121h160v661h876z" />
    <glyph glyph-name="uni0493" unicode="&#x493;" horiz-adv-x="864" 
d="M842 1008v-131h-492v-304h215v-108h-215v-465h-147v465h-127v108h127v435h639z" />
    <glyph glyph-name="uni0496" unicode="&#x496;" horiz-adv-x="1886" 
d="M1794 1458l-612 -692l547 -627h120v-491h-153v352h-51l-641 762l593 696h197zM248 1458l596 -696l-641 -762h-205l668 766l-615 692h197zM1001 1458v-1458h-155v1458h155z" />
    <glyph glyph-name="uni0497" unicode="&#x497;" horiz-adv-x="1511" 
d="M1317 -293v293h-45l-461 522l428 486h178l-432 -476l356 -401h119v-424h-143zM12 0l473 532l-432 476h180l426 -486l-460 -522h-187zM662 0v1008h147v-1008h-147z" />
    <glyph glyph-name="uni049A" unicode="&#x49a;" horiz-adv-x="1282" 
d="M1190 1458l-645 -692l573 -627h127v-491h-153v352h-54l-669 762l624 696h197zM367 1458v-1458h-156v1458h156z" />
    <glyph glyph-name="uni049B" unicode="&#x49b;" horiz-adv-x="1052" 
d="M961 1008l-453 -476l373 -401h120v-424h-143v293h-47l-477 522l444 486h183zM332 1008v-1008h-148v1008h148z" />
    <glyph glyph-name="uni049C" unicode="&#x49c;" horiz-adv-x="1347" 
d="M1296 1458l-526 -700l580 -758h-203l-504 684h-78v-326h-110v326h-88v-684h-156v1458h156v-637h88v299h110v-299h74l463 637h194z" />
    <glyph glyph-name="uni049D" unicode="&#x49d;" horiz-adv-x="1122" 
d="M1069 1008l-348 -476l389 -532h-190l-330 457h-68v-252h-102v252h-88v-457h-148v1008h148v-426h88v233h102v-233h66l299 426h182z" />
    <glyph glyph-name="uni04A2" unicode="&#x4a2;" horiz-adv-x="1427" 
d="M1214 1458v-1319h78v-491h-155v352h-78v666h-692v-666h-156v1458h156v-653h692v653h155z" />
    <glyph glyph-name="uni04A3" unicode="&#x4a3;" horiz-adv-x="1097" 
d="M967 1008v-877h67v-424h-143v293h-72v457h-487v-457h-148v1008h148v-424h487v424h148z" />
    <glyph glyph-name="uni04AE" unicode="&#x4ae;" horiz-adv-x="1052" 
d="M1036 1458l-430 -856v-602h-155v602l-435 856h168l344 -698l340 698h168z" />
    <glyph glyph-name="uni04AF" unicode="&#x4af;" horiz-adv-x="915" 
d="M891 1008l-359 -998v-461h-147v461l-360 998h157l277 -820l274 820h158z" />
    <glyph glyph-name="uni04B0" unicode="&#x4b0;" horiz-adv-x="1052" 
d="M1036 1458l-430 -856h248v-121h-248v-481h-155v481h-252v121h252l-435 856h168l344 -698l340 698h168z" />
    <glyph glyph-name="uni04B1" unicode="&#x4b1;" horiz-adv-x="915" 
d="M385 -451v349h-199v112h199l-360 998h157l277 -820l274 820h158l-359 -998h197v-112h-197v-349h-147z" />
    <glyph glyph-name="uni04B2" unicode="&#x4b2;" horiz-adv-x="1157" 
d="M1067 1458l-420 -710l367 -609h112v-491h-155v352h-53l-355 612l-356 -612h-176l446 748l-418 710h181l323 -575l324 575h180z" />
    <glyph glyph-name="uni04B3" unicode="&#x4b3;" horiz-adv-x="1009" 
d="M897 1008l-328 -494l254 -383h119v-424h-143v293h-66l-241 391l-246 -391h-178l342 514l-328 494h178l232 -373l227 373h178z" />
    <glyph glyph-name="uni04B6" unicode="&#x4b6;" horiz-adv-x="1320" 
d="M1110 1458v-1319h78v-491h-156v352h-78v666q-280 -56 -411 -56q-79 0 -145.5 19t-122 60t-87.5 114t-32 172v483h155v-454q0 -61 15.5 -107t40.5 -73.5t61.5 -44.5t73 -23t80.5 -6q111 0 372 51v657h156z" />
    <glyph glyph-name="uni04B7" unicode="&#x4b7;" horiz-adv-x="1028" 
d="M899 1008v-877h66v-424h-144v293h-69v457q-190 -39 -308 -39q-137 0 -215.5 72t-78.5 217v301h147v-275q0 -180 186 -180q99 0 269 33v422h147z" />
    <glyph glyph-name="uni04B8" unicode="&#x4b8;" horiz-adv-x="1329" 
d="M963 0v668q-122 -28 -275 -47v-334h-110v323h-31q-63 0 -118 11.5t-106 38.5t-87.5 68t-58 104t-21.5 143v483h155v-454q0 -74 22 -126t62 -78.5t83.5 -37.5t99.5 -12v299h110v-293q134 14 275 45v657h155v-1458h-155z" />
    <glyph glyph-name="uni04B9" unicode="&#x4b9;" horiz-adv-x="1101" 
d="M770 0v457q-90 -18 -188 -29v-254h-103v250l-30 -2q-140 0 -219.5 71.5t-79.5 213.5v301h147v-275q0 -177 182 -180v231h103v-227q99 8 188 29v422h148v-1008h-148z" />
    <glyph glyph-name="uni04BA" unicode="&#x4ba;" horiz-adv-x="1320" 
d="M367 1458v-661q275 55 411 55q79 0 145.5 -19t122 -60t87.5 -114t32 -172v-487h-155v459q0 61 -15.5 107t-40.5 73.5t-61.5 44.5t-73 23t-80.5 6q-111 0 -372 -51v-662h-156v1458h156z" />
    <glyph glyph-name="uni04BB" unicode="&#x4bb;" horiz-adv-x="1077" 
d="M332 1008v-424q185 39 307 39q137 0 216 -72t79 -217v-334h-148v307q0 96 -48.5 138t-139.5 42q-106 0 -266 -32v-455h-148v1008h148z" />
    <glyph glyph-name="uni04C0" unicode="&#x4c0;" horiz-adv-x="577" 
d="M367 1458v-1458h-156v1458h156z" />
    <glyph glyph-name="uni04CF" unicode="&#x4cf;" horiz-adv-x="516" 
d="M332 1458v-1458h-148v1458h148z" />
    <glyph glyph-name="uni04D8" unicode="&#x4d8;" horiz-adv-x="1331" 
d="M666 1470q221 0 364 -143q35 -35 58.5 -68t40 -75t26 -81t14 -102t6 -120t1.5 -152t-1.5 -152t-6 -120t-14 -102t-26 -81t-40 -75t-58.5 -68q-143 -143 -364 -143q-113 0 -214 43.5t-176 124.5q-67 75 -95.5 161t-28.5 213v273h868q-3 192 -22 278t-80 148
q-99 102 -252 102q-136 0 -230 -78.5t-125 -218.5h-155q31 193 169 314.5t341 121.5zM1020 668h-713v-152q0 -161 82 -264q50 -60 123 -92.5t154 -32.5q153 0 252 102q62 62 81 151.5t21 287.5z" />
    <glyph glyph-name="uni04D9" unicode="&#x4d9;" horiz-adv-x="1089" 
d="M545 -12q-196 0 -305 130.5t-109 358.5v66h680q0 167 -76 257.5t-221 90.5q-85 0 -143.5 -26.5t-120.5 -88.5l-100 88q81 81 163.5 118.5t204.5 37.5q208 0 324 -128t116 -388q0 -245 -110 -380.5t-303 -135.5zM545 113q80 0 141 40t94 111q17 37 22.5 68t8.5 100h-535
q4 -50 6 -70.5t8.5 -46t18.5 -51.5q33 -70 94.5 -110.5t141.5 -40.5z" />
    <glyph glyph-name="uni04E2" unicode="&#x4e2;" horiz-adv-x="1466" 
d="M1255 1458v-1458h-155v1190l-742 -1190h-147v1458h156v-1188l741 1188h147zM1042 1751v-117h-616v117h616z" />
    <glyph glyph-name="uni04E3" unicode="&#x4e3;" horiz-adv-x="1181" 
d="M997 1008v-1008h-147v786l-518 -786h-148v1008h148v-783l518 783h147zM901 1372v-115h-616v115h616z" />
    <glyph glyph-name="uni04E8" unicode="&#x4e8;" horiz-adv-x="1331" 
d="M666 -12q-222 0 -365 143q-41 41 -67.5 84.5t-42.5 87t-23.5 113t-9.5 134t-2 179.5t2 179.5t9.5 134t23.5 113t42.5 87t67.5 84.5q143 143 365 143q219 0 362 -143q51 -51 80.5 -101.5t44.5 -126.5t19 -152.5t4 -217.5t-4 -217.5t-19 -152.5t-44.5 -126.5t-80.5 -101.5
q-143 -143 -362 -143zM666 127q150 0 252 102q62 64 81 152t21 285h-709q2 -197 21.5 -285t81.5 -152q102 -102 252 -102zM311 805h709q-2 188 -21.5 274.5t-80.5 149.5q-102 102 -252 102t-252 -102q-61 -63 -81 -150t-22 -274z" />
    <glyph glyph-name="uni04E9" unicode="&#x4e9;" 
d="M543 1020q176 0 288 -115q71 -71 97 -169.5t26 -231.5t-26 -231.5t-97 -170.5q-111 -114 -288 -114q-178 0 -289 114q-71 72 -97 170.5t-26 231.5t26 231.5t97 169.5q112 115 289 115zM807 465h-528q2 -92 18.5 -159t62.5 -113q74 -74 183 -74q110 0 184 74
q45 46 61.5 113.5t18.5 158.5zM543 889q-109 0 -183 -74q-70 -70 -81 -240h526q-7 167 -78 240q-74 74 -184 74z" />
    <glyph glyph-name="uni04EE" unicode="&#x4ee;" horiz-adv-x="1120" 
d="M1100 1458l-529 -1231q-97 -227 -286 -227h-127v139h92q73 0 116 34t76 112l60 137l-482 1036h166l394 -862l354 862h166zM868 1751v-117h-616v117h616z" />
    <glyph glyph-name="uni04EF" unicode="&#x4ef;" horiz-adv-x="915" 
d="M893 1008l-465 -1270q-29 -79 -72 -119q-73 -70 -196 -70h-64v132h45q74 0 107 26t59 98l78 215l-362 988h159l277 -809l274 809h160zM768 1372v-115h-616v115h616z" />
    <glyph glyph-name="uni1E00" unicode="&#x1e00;" horiz-adv-x="1251" 
d="M692 1458l535 -1458h-166l-117 330h-637l-117 -330h-165l536 1458h131zM627 1237l-273 -772h543zM627 -76q100 0 170.5 -70t70.5 -171q0 -100 -71 -172t-170 -72q-100 0 -171 72t-71 172t71 170.5t171 70.5zM627 -178q-59 0 -100.5 -40.5t-41.5 -98.5q0 -59 41.5 -100.5
t100.5 -41.5q58 0 99.5 41.5t41.5 100.5q0 58 -41 98.5t-100 40.5z" />
    <glyph glyph-name="uni1E01" unicode="&#x1e01;" horiz-adv-x="1077" 
d="M500 1020q202 0 302.5 -85.5t100.5 -250.5v-684h-147v96q-60 -60 -125 -84t-166 -24q-105 0 -169 20.5t-116 71.5q-76 73 -76 205q0 135 92 212.5t259 77.5h301v97q0 112 -61 166.5t-197 54.5q-94 0 -151 -26.5t-103 -90.5l-101 92q64 85 146 118.5t211 33.5zM756 465
h-281q-227 0 -227 -178q0 -88 56 -130t177 -42q74 0 126.5 13t97.5 54q51 48 51 174v109zM516 -76q100 0 171 -70t71 -171q0 -100 -71 -172t-171 -72t-171 72t-71 172t71 170.5t171 70.5zM516 -178q-59 0 -100 -40.5t-41 -98.5q0 -59 41.5 -100.5t99.5 -41.5t99.5 41.5
t41.5 100.5q0 58 -41 98.5t-100 40.5z" />
    <glyph glyph-name="uni1E02" unicode="&#x1e02;" horiz-adv-x="1368" 
d="M211 1458h549q193 0 311.5 -104.5t118.5 -284.5q0 -113 -60 -198.5t-155 -120.5q108 -40 172.5 -130t64.5 -217q0 -194 -118 -298.5t-316 -104.5h-567v1458zM764 674h-397v-535h397q135 0 214 73t79 196t-79 194.5t-214 71.5zM748 1319h-381v-506h381q128 0 207 64.5
t79 189.5t-79 188.5t-207 63.5zM598 1616v182h147v-182h-147z" />
    <glyph glyph-name="uni1E03" unicode="&#x1e03;" horiz-adv-x="1116" 
d="M332 1458v-567q59 74 126.5 101.5t157.5 27.5q76 0 140.5 -23.5t105.5 -64.5q123 -123 123 -428q0 -303 -123 -428q-41 -41 -105.5 -64.5t-140.5 -23.5q-91 0 -157.5 28.5t-126.5 104.5v-121h-148v1458h148zM586 889q-64 0 -111 -22t-74 -56t-43 -87t-21 -103.5
t-5 -116.5t5 -116.5t21 -103.5t43 -87t74 -56t111 -22t110.5 22t73 56t42.5 87t21 103.5t5 116.5t-5 116.5t-21 103.5t-42.5 87t-73 56t-110.5 22zM682 1415v-182h-147v182h147z" />
    <glyph glyph-name="uni1E04" unicode="&#x1e04;" horiz-adv-x="1368" 
d="M211 1458h549q193 0 311.5 -104.5t118.5 -284.5q0 -113 -60 -198.5t-155 -120.5q108 -40 172.5 -130t64.5 -217q0 -194 -118 -298.5t-316 -104.5h-567v1458zM764 674h-397v-535h397q135 0 214 73t79 196t-79 194.5t-214 71.5zM748 1319h-381v-506h381q128 0 207 64.5
t79 189.5t-79 188.5t-207 63.5zM745 -160v-182h-147v182h147z" />
    <glyph glyph-name="uni1E05" unicode="&#x1e05;" horiz-adv-x="1116" 
d="M332 1458v-567q59 74 126.5 101.5t157.5 27.5q76 0 140.5 -23.5t105.5 -64.5q123 -123 123 -428q0 -303 -123 -428q-41 -41 -105.5 -64.5t-140.5 -23.5q-91 0 -157.5 28.5t-126.5 104.5v-121h-148v1458h148zM586 889q-64 0 -111 -22t-74 -56t-43 -87t-21 -103.5
t-5 -116.5t5 -116.5t21 -103.5t43 -87t74 -56t111 -22t110.5 22t73 56t42.5 87t21 103.5t5 116.5t-5 116.5t-21 103.5t-42.5 87t-73 56t-110.5 22zM682 -160v-182h-147v182h147z" />
    <glyph glyph-name="uni1E06" unicode="&#x1e06;" horiz-adv-x="1368" 
d="M211 1458h549q193 0 311.5 -104.5t118.5 -284.5q0 -113 -60 -198.5t-155 -120.5q108 -40 172.5 -130t64.5 -217q0 -194 -118 -298.5t-316 -104.5h-567v1458zM764 674h-397v-535h397q135 0 214 73t79 196t-79 194.5t-214 71.5zM748 1319h-381v-506h381q128 0 207 64.5
t79 189.5t-79 188.5t-207 63.5zM958 -193v-114h-616v114h616z" />
    <glyph glyph-name="uni1E07" unicode="&#x1e07;" horiz-adv-x="1116" 
d="M332 1458v-567q59 74 126.5 101.5t157.5 27.5q76 0 140.5 -23.5t105.5 -64.5q123 -123 123 -428q0 -303 -123 -428q-41 -41 -105.5 -64.5t-140.5 -23.5q-91 0 -157.5 28.5t-126.5 104.5v-121h-148v1458h148zM586 889q-64 0 -111 -22t-74 -56t-43 -87t-21 -103.5
t-5 -116.5t5 -116.5t21 -103.5t43 -87t74 -56t111 -22t110.5 22t73 56t42.5 87t21 103.5t5 116.5t-5 116.5t-21 103.5t-42.5 87t-73 56t-110.5 22zM889 -193v-114h-617v114h617z" />
    <glyph glyph-name="uni1E08" unicode="&#x1e08;" horiz-adv-x="1304" 
d="M940 1913l-215 -316h-141l186 316h170zM666 1470q198 0 332.5 -115t172.5 -319h-159q-30 137 -120.5 216t-225.5 79q-150 0 -252 -102q-66 -68 -84.5 -166t-18.5 -334t18.5 -334t84.5 -166q102 -102 252 -102q135 0 225.5 79t120.5 216h159q-38 -203 -173 -318.5
t-332 -115.5q-222 0 -365 143q-41 41 -67.5 84.5t-42.5 87t-23.5 113t-9.5 134t-2 179.5t2 179.5t9.5 134t23.5 113t42.5 87t67.5 84.5q143 143 365 143zM469 -442l143 301h129l-118 -301h-154z" />
    <glyph glyph-name="uni1E09" unicode="&#x1e09;" horiz-adv-x="1005" 
d="M338 -442l145 305h135l-120 -305h-160zM578 1020q106 0 180 -33t151 -117l-100 -94q-57 63 -108 88t-123 25q-154 0 -234 -115q-35 -49 -50 -111.5t-15 -158.5t15 -159t50 -112q80 -114 234 -114q72 0 123 25.5t108 88.5l100 -96q-77 -84 -151 -116.5t-180 -32.5
q-199 0 -323 133.5t-124 382.5t124 382.5t323 133.5zM836 1530l-215 -313h-142l187 313h170z" />
    <glyph glyph-name="uni1E0A" unicode="&#x1e0a;" horiz-adv-x="1378" 
d="M211 1458h500q242 0 383 -153q31 -34 54 -73.5t37 -90t22 -91t11.5 -105.5t4 -103.5t0.5 -112.5t-0.5 -112.5t-4 -103t-11.5 -105.5t-22 -91t-37 -89.5t-54 -73.5q-142 -154 -383 -154h-500v1458zM684 1319h-317v-1180h317q190 0 287 107q34 36 54.5 85.5t29 121
t10.5 125.5t2 151t-2 151t-10.5 125.5t-29 121t-54.5 85.5q-97 107 -287 107zM614 1616v182h148v-182h-148z" />
    <glyph glyph-name="uni1E0B" unicode="&#x1e0b;" horiz-adv-x="1116" 
d="M932 1458v-1458h-148v119q-60 -74 -126.5 -102.5t-157.5 -28.5q-76 0 -140.5 23.5t-105.5 64.5q-123 123 -123 428q0 303 123 428q41 41 105.5 64.5t140.5 23.5q90 0 157 -28.5t127 -102.5v569h148zM530 889q-63 0 -110 -22t-73.5 -56t-42 -87t-20.5 -103.5t-5 -116.5
t5 -116.5t20.5 -103.5t42 -87t73.5 -56t110 -22q64 0 111 22t74 56t43 87t21 103.5t5 116.5t-5 116.5t-21 103.5t-43 87t-74 56t-111 22zM551 1415v-182h-148v182h148z" />
    <glyph glyph-name="uni1E0C" unicode="&#x1e0c;" horiz-adv-x="1378" 
d="M211 1458h500q242 0 383 -153q31 -34 54 -73.5t37 -90t22 -91t11.5 -105.5t4 -103.5t0.5 -112.5t-0.5 -112.5t-4 -103t-11.5 -105.5t-22 -91t-37 -89.5t-54 -73.5q-142 -154 -383 -154h-500v1458zM684 1319h-317v-1180h317q190 0 287 107q34 36 54.5 85.5t29 121
t10.5 125.5t2 151t-2 151t-10.5 125.5t-29 121t-54.5 85.5q-97 107 -287 107zM762 -160v-182h-148v182h148z" />
    <glyph glyph-name="uni1E0D" unicode="&#x1e0d;" horiz-adv-x="1116" 
d="M932 1458v-1458h-148v119q-60 -74 -126.5 -102.5t-157.5 -28.5q-76 0 -140.5 23.5t-105.5 64.5q-123 123 -123 428q0 303 123 428q41 41 105.5 64.5t140.5 23.5q90 0 157 -28.5t127 -102.5v569h148zM530 889q-63 0 -110 -22t-73.5 -56t-42 -87t-20.5 -103.5t-5 -116.5
t5 -116.5t20.5 -103.5t42 -87t73.5 -56t110 -22q64 0 111 22t74 56t43 87t21 103.5t5 116.5t-5 116.5t-21 103.5t-43 87t-74 56t-111 22zM612 -160v-182h-147v182h147z" />
    <glyph glyph-name="uni1E0E" unicode="&#x1e0e;" horiz-adv-x="1378" 
d="M211 1458h500q242 0 383 -153q31 -34 54 -73.5t37 -90t22 -91t11.5 -105.5t4 -103.5t0.5 -112.5t-0.5 -112.5t-4 -103t-11.5 -105.5t-22 -91t-37 -89.5t-54 -73.5q-142 -154 -383 -154h-500v1458zM684 1319h-317v-1180h317q190 0 287 107q34 36 54.5 85.5t29 121
t10.5 125.5t2 151t-2 151t-10.5 125.5t-29 121t-54.5 85.5q-97 107 -287 107zM975 -193v-114h-617v114h617z" />
    </font>
</defs>
</svg>
